G04 #@! TF.GenerationSoftware,KiCad,Pcbnew,(6.0.0-rc1-dev-305-gf0b8b21)*
G04 #@! TF.CreationDate,2018-11-29T17:33:20-08:00*
G04 #@! TF.ProjectId,EE173_Lab4,45453137335F4C6162342E6B69636164,rev?*
G04 #@! TF.SameCoordinates,Original*
G04 #@! TF.FileFunction,Copper,L2,Bot,Signal*
G04 #@! TF.FilePolarity,Positive*
%FSLAX46Y46*%
G04 Gerber Fmt 4.6, Leading zero omitted, Abs format (unit mm)*
G04 Created by KiCad (PCBNEW (6.0.0-rc1-dev-305-gf0b8b21)) date Thursday, November 29, 2018 at 05:33:20 PM*
%MOMM*%
%LPD*%
G01*
G04 APERTURE LIST*
G04 #@! TA.AperFunction,SMDPad,CuDef*
%ADD10R,1.500000X5.080000*%
G04 #@! TD*
G04 #@! TA.AperFunction,ComponentPad*
%ADD11O,2.200000X2.200000*%
G04 #@! TD*
G04 #@! TA.AperFunction,ComponentPad*
%ADD12R,2.200000X2.200000*%
G04 #@! TD*
G04 #@! TA.AperFunction,ComponentPad*
%ADD13C,1.800000*%
G04 #@! TD*
G04 #@! TA.AperFunction,ComponentPad*
%ADD14R,1.800000X1.800000*%
G04 #@! TD*
G04 #@! TA.AperFunction,ComponentPad*
%ADD15R,2.032000X2.032000*%
G04 #@! TD*
G04 #@! TA.AperFunction,ComponentPad*
%ADD16C,2.032000*%
G04 #@! TD*
G04 #@! TA.AperFunction,ComponentPad*
%ADD17C,1.500000*%
G04 #@! TD*
G04 #@! TA.AperFunction,ComponentPad*
%ADD18R,1.500000X1.500000*%
G04 #@! TD*
G04 #@! TA.AperFunction,SMDPad,CuDef*
%ADD19R,5.080000X1.500000*%
G04 #@! TD*
G04 #@! TA.AperFunction,ViaPad*
%ADD20C,0.889000*%
G04 #@! TD*
G04 #@! TA.AperFunction,Conductor*
%ADD21C,0.254000*%
G04 #@! TD*
G04 APERTURE END LIST*
D10*
G04 #@! TO.P,J4,2*
G04 #@! TO.N,GND*
X252068307Y-35330910D03*
X260568307Y-35330910D03*
G04 #@! TD*
D11*
G04 #@! TO.P,D1,2*
G04 #@! TO.N,Net-(D1-Pad2)*
X216933397Y-113187217D03*
D12*
G04 #@! TO.P,D1,1*
G04 #@! TO.N,Net-(C2-Pad2)*
X227093397Y-113187217D03*
G04 #@! TD*
D13*
G04 #@! TO.P,D2,2*
G04 #@! TO.N,Net-(D2-Pad2)*
X227245391Y-90241213D03*
D14*
G04 #@! TO.P,D2,1*
G04 #@! TO.N,GND*
X224705391Y-90241213D03*
G04 #@! TD*
D15*
G04 #@! TO.P,U2,1*
G04 #@! TO.N,Net-(C2-Pad2)*
X233087391Y-108295213D03*
D16*
G04 #@! TO.P,U2,2*
G04 #@! TO.N,GND*
X233087391Y-105745213D03*
G04 #@! TO.P,U2,3*
G04 #@! TO.N,+6V*
X233087391Y-103195213D03*
G04 #@! TD*
D17*
G04 #@! TO.P,JP3,1*
G04 #@! TO.N,GND*
X245178307Y-51450910D03*
D18*
G04 #@! TO.P,JP3,2*
G04 #@! TO.N,Net-(J3-Pad1)*
X247718307Y-51450910D03*
G04 #@! TD*
D17*
G04 #@! TO.P,JP6,1*
G04 #@! TO.N,Net-(JP4-Pad1)*
X245158307Y-57510910D03*
D18*
G04 #@! TO.P,JP6,2*
G04 #@! TO.N,Net-(J3-Pad1)*
X247698307Y-57510910D03*
G04 #@! TD*
D17*
G04 #@! TO.P,JP4,1*
G04 #@! TO.N,Net-(JP4-Pad1)*
X245168307Y-63470910D03*
D18*
G04 #@! TO.P,JP4,2*
G04 #@! TO.N,Net-(JP4-Pad2)*
X247708307Y-63470910D03*
G04 #@! TD*
D17*
G04 #@! TO.P,JP5,1*
G04 #@! TO.N,Net-(JP4-Pad1)*
X245218307Y-69270910D03*
D18*
G04 #@! TO.P,JP5,2*
G04 #@! TO.N,Net-(JP5-Pad2)*
X247758307Y-69270910D03*
G04 #@! TD*
G04 #@! TO.P,J2,2*
G04 #@! TO.N,GND*
X212778307Y-110650910D03*
D17*
G04 #@! TO.P,J2,1*
G04 #@! TO.N,Net-(D1-Pad2)*
X212778307Y-113190910D03*
G04 #@! TD*
D18*
G04 #@! TO.P,J1,2*
G04 #@! TO.N,GND*
X215958307Y-66880910D03*
D17*
G04 #@! TO.P,J1,1*
G04 #@! TO.N,Net-(J1-Pad1)*
X213418307Y-66880910D03*
G04 #@! TD*
D18*
G04 #@! TO.P,JP1,2*
G04 #@! TO.N,Net-(C1-Pad2)*
X215958307Y-63510910D03*
D17*
G04 #@! TO.P,JP1,1*
G04 #@! TO.N,Net-(J1-Pad1)*
X213418307Y-63510910D03*
G04 #@! TD*
D18*
G04 #@! TO.P,JP2,2*
G04 #@! TO.N,Net-(C1-Pad2)*
X215948307Y-60270910D03*
D17*
G04 #@! TO.P,JP2,1*
G04 #@! TO.N,GND*
X213408307Y-60270910D03*
G04 #@! TD*
D19*
G04 #@! TO.P,J3,2*
G04 #@! TO.N,GND*
X262078307Y-62110910D03*
X262078307Y-53610910D03*
G04 #@! TD*
D20*
G04 #@! TO.N,GND*
X219968307Y-104080910D03*
X223778307Y-74930910D03*
X236078307Y-46820910D03*
X218948307Y-52850910D03*
X243148307Y-77310910D03*
X261578307Y-43000910D03*
G04 #@! TD*
D21*
G04 #@! TO.N,GND*
G36*
X250683307Y-35045160D02*
X250842057Y-35203910D01*
X251941307Y-35203910D01*
X251941307Y-35183910D01*
X252195307Y-35183910D01*
X252195307Y-35203910D01*
X253294557Y-35203910D01*
X253453307Y-35045160D01*
X253453307Y-33290910D01*
X259183307Y-33290910D01*
X259183307Y-35045160D01*
X259342057Y-35203910D01*
X260441307Y-35203910D01*
X260441307Y-35183910D01*
X260695307Y-35183910D01*
X260695307Y-35203910D01*
X261794557Y-35203910D01*
X261953307Y-35045160D01*
X261953307Y-33290910D01*
X264128308Y-33290910D01*
X264128308Y-52225910D01*
X262364057Y-52225910D01*
X262205307Y-52384660D01*
X262205307Y-53483910D01*
X262225307Y-53483910D01*
X262225307Y-53737910D01*
X262205307Y-53737910D01*
X262205307Y-54837160D01*
X262364057Y-54995910D01*
X264128308Y-54995910D01*
X264128308Y-60725910D01*
X262364057Y-60725910D01*
X262205307Y-60884660D01*
X262205307Y-61983910D01*
X262225307Y-61983910D01*
X262225307Y-62237910D01*
X262205307Y-62237910D01*
X262205307Y-63337160D01*
X262364057Y-63495910D01*
X264128308Y-63495910D01*
X264128307Y-120770910D01*
X206112307Y-120770910D01*
X206112307Y-110936660D01*
X211393307Y-110936660D01*
X211393307Y-111527219D01*
X211489980Y-111760608D01*
X211668608Y-111939237D01*
X211901997Y-112035910D01*
X211974620Y-112035910D01*
X211604160Y-112406370D01*
X211393307Y-112915416D01*
X211393307Y-113466404D01*
X211604160Y-113975450D01*
X211993767Y-114365057D01*
X212502813Y-114575910D01*
X213053801Y-114575910D01*
X213562847Y-114365057D01*
X213952454Y-113975450D01*
X214163307Y-113466404D01*
X214163307Y-113187217D01*
X215164407Y-113187217D01*
X215299063Y-113864180D01*
X215682532Y-114438082D01*
X216256434Y-114821551D01*
X216762517Y-114922217D01*
X217104277Y-114922217D01*
X217610360Y-114821551D01*
X218184262Y-114438082D01*
X218567731Y-113864180D01*
X218702387Y-113187217D01*
X218567731Y-112510254D01*
X218285067Y-112087217D01*
X225345957Y-112087217D01*
X225345957Y-114287217D01*
X225395240Y-114534982D01*
X225535588Y-114745026D01*
X225745632Y-114885374D01*
X225993397Y-114934657D01*
X228193397Y-114934657D01*
X228441162Y-114885374D01*
X228651206Y-114745026D01*
X228791554Y-114534982D01*
X228840837Y-114287217D01*
X228840837Y-112087217D01*
X228791554Y-111839452D01*
X228651206Y-111629408D01*
X228441162Y-111489060D01*
X228193397Y-111439777D01*
X225993397Y-111439777D01*
X225745632Y-111489060D01*
X225535588Y-111629408D01*
X225395240Y-111839452D01*
X225345957Y-112087217D01*
X218285067Y-112087217D01*
X218184262Y-111936352D01*
X217610360Y-111552883D01*
X217104277Y-111452217D01*
X216762517Y-111452217D01*
X216256434Y-111552883D01*
X215682532Y-111936352D01*
X215299063Y-112510254D01*
X215164407Y-113187217D01*
X214163307Y-113187217D01*
X214163307Y-112915416D01*
X213952454Y-112406370D01*
X213581994Y-112035910D01*
X213654617Y-112035910D01*
X213888006Y-111939237D01*
X214066634Y-111760608D01*
X214163307Y-111527219D01*
X214163307Y-110936660D01*
X214004557Y-110777910D01*
X212905307Y-110777910D01*
X212905307Y-110797910D01*
X212651307Y-110797910D01*
X212651307Y-110777910D01*
X211552057Y-110777910D01*
X211393307Y-110936660D01*
X206112307Y-110936660D01*
X206112307Y-109774601D01*
X211393307Y-109774601D01*
X211393307Y-110365160D01*
X211552057Y-110523910D01*
X212651307Y-110523910D01*
X212651307Y-109424660D01*
X212905307Y-109424660D01*
X212905307Y-110523910D01*
X214004557Y-110523910D01*
X214163307Y-110365160D01*
X214163307Y-109774601D01*
X214066634Y-109541212D01*
X213888006Y-109362583D01*
X213654617Y-109265910D01*
X213064057Y-109265910D01*
X212905307Y-109424660D01*
X212651307Y-109424660D01*
X212492557Y-109265910D01*
X211901997Y-109265910D01*
X211668608Y-109362583D01*
X211489980Y-109541212D01*
X211393307Y-109774601D01*
X206112307Y-109774601D01*
X206112307Y-107279213D01*
X231423951Y-107279213D01*
X231423951Y-109311213D01*
X231473234Y-109558978D01*
X231613582Y-109769022D01*
X231823626Y-109909370D01*
X232071391Y-109958653D01*
X234103391Y-109958653D01*
X234351156Y-109909370D01*
X234561200Y-109769022D01*
X234701548Y-109558978D01*
X234750831Y-109311213D01*
X234750831Y-107279213D01*
X234701548Y-107031448D01*
X234561200Y-106821404D01*
X234362004Y-106688304D01*
X234520013Y-106629093D01*
X234749207Y-106013571D01*
X234725405Y-105357194D01*
X234520013Y-104861333D01*
X234251498Y-104760711D01*
X233266996Y-105745213D01*
X233281139Y-105759356D01*
X233101534Y-105938961D01*
X233087391Y-105924818D01*
X233073249Y-105938961D01*
X232893644Y-105759356D01*
X232907786Y-105745213D01*
X231923284Y-104760711D01*
X231654769Y-104861333D01*
X231425575Y-105476855D01*
X231449377Y-106133232D01*
X231654769Y-106629093D01*
X231812778Y-106688304D01*
X231613582Y-106821404D01*
X231473234Y-107031448D01*
X231423951Y-107279213D01*
X206112307Y-107279213D01*
X206112307Y-102866809D01*
X231436391Y-102866809D01*
X231436391Y-103523617D01*
X231687741Y-104130429D01*
X232112574Y-104555262D01*
X232102889Y-104581106D01*
X233087391Y-105565608D01*
X234071893Y-104581106D01*
X234062208Y-104555262D01*
X234487041Y-104130429D01*
X234738391Y-103523617D01*
X234738391Y-102866809D01*
X234487041Y-102259997D01*
X234022607Y-101795563D01*
X233415795Y-101544213D01*
X232758987Y-101544213D01*
X232152175Y-101795563D01*
X231687741Y-102259997D01*
X231436391Y-102866809D01*
X206112307Y-102866809D01*
X206112307Y-90526963D01*
X223170391Y-90526963D01*
X223170391Y-91267523D01*
X223267064Y-91500912D01*
X223445693Y-91679540D01*
X223679082Y-91776213D01*
X224419641Y-91776213D01*
X224578391Y-91617463D01*
X224578391Y-90368213D01*
X223329141Y-90368213D01*
X223170391Y-90526963D01*
X206112307Y-90526963D01*
X206112307Y-89214903D01*
X223170391Y-89214903D01*
X223170391Y-89955463D01*
X223329141Y-90114213D01*
X224578391Y-90114213D01*
X224578391Y-88864963D01*
X224832391Y-88864963D01*
X224832391Y-90114213D01*
X224852391Y-90114213D01*
X224852391Y-90368213D01*
X224832391Y-90368213D01*
X224832391Y-91617463D01*
X224991141Y-91776213D01*
X225731700Y-91776213D01*
X225965089Y-91679540D01*
X226143718Y-91500912D01*
X226199530Y-91366169D01*
X226375884Y-91542523D01*
X226940061Y-91776213D01*
X227550721Y-91776213D01*
X228114898Y-91542523D01*
X228546701Y-91110720D01*
X228780391Y-90546543D01*
X228780391Y-89935883D01*
X228546701Y-89371706D01*
X228114898Y-88939903D01*
X227550721Y-88706213D01*
X226940061Y-88706213D01*
X226375884Y-88939903D01*
X226199530Y-89116257D01*
X226143718Y-88981514D01*
X225965089Y-88802886D01*
X225731700Y-88706213D01*
X224991141Y-88706213D01*
X224832391Y-88864963D01*
X224578391Y-88864963D01*
X224419641Y-88706213D01*
X223679082Y-88706213D01*
X223445693Y-88802886D01*
X223267064Y-88981514D01*
X223170391Y-89214903D01*
X206112307Y-89214903D01*
X206112307Y-68995416D01*
X243833307Y-68995416D01*
X243833307Y-69546404D01*
X244044160Y-70055450D01*
X244433767Y-70445057D01*
X244942813Y-70655910D01*
X245493801Y-70655910D01*
X246002847Y-70445057D01*
X246371838Y-70076066D01*
X246410150Y-70268675D01*
X246550498Y-70478719D01*
X246760542Y-70619067D01*
X247008307Y-70668350D01*
X248508307Y-70668350D01*
X248756072Y-70619067D01*
X248966116Y-70478719D01*
X249106464Y-70268675D01*
X249155747Y-70020910D01*
X249155747Y-68520910D01*
X249106464Y-68273145D01*
X248966116Y-68063101D01*
X248756072Y-67922753D01*
X248508307Y-67873470D01*
X247008307Y-67873470D01*
X246760542Y-67922753D01*
X246550498Y-68063101D01*
X246410150Y-68273145D01*
X246371838Y-68465754D01*
X246002847Y-68096763D01*
X245493801Y-67885910D01*
X244942813Y-67885910D01*
X244433767Y-68096763D01*
X244044160Y-68486370D01*
X243833307Y-68995416D01*
X206112307Y-68995416D01*
X206112307Y-66605416D01*
X212033307Y-66605416D01*
X212033307Y-67156404D01*
X212244160Y-67665450D01*
X212633767Y-68055057D01*
X213142813Y-68265910D01*
X213693801Y-68265910D01*
X214202847Y-68055057D01*
X214573307Y-67684597D01*
X214573307Y-67757220D01*
X214669980Y-67990609D01*
X214848609Y-68169237D01*
X215081998Y-68265910D01*
X215672557Y-68265910D01*
X215831307Y-68107160D01*
X215831307Y-67007910D01*
X216085307Y-67007910D01*
X216085307Y-68107160D01*
X216244057Y-68265910D01*
X216834616Y-68265910D01*
X217068005Y-68169237D01*
X217246634Y-67990609D01*
X217343307Y-67757220D01*
X217343307Y-67166660D01*
X217184557Y-67007910D01*
X216085307Y-67007910D01*
X215831307Y-67007910D01*
X215811307Y-67007910D01*
X215811307Y-66753910D01*
X215831307Y-66753910D01*
X215831307Y-65654660D01*
X216085307Y-65654660D01*
X216085307Y-66753910D01*
X217184557Y-66753910D01*
X217343307Y-66595160D01*
X217343307Y-66004600D01*
X217246634Y-65771211D01*
X217068005Y-65592583D01*
X216834616Y-65495910D01*
X216244057Y-65495910D01*
X216085307Y-65654660D01*
X215831307Y-65654660D01*
X215672557Y-65495910D01*
X215081998Y-65495910D01*
X214848609Y-65592583D01*
X214669980Y-65771211D01*
X214573307Y-66004600D01*
X214573307Y-66077223D01*
X214202847Y-65706763D01*
X213693801Y-65495910D01*
X213142813Y-65495910D01*
X212633767Y-65706763D01*
X212244160Y-66096370D01*
X212033307Y-66605416D01*
X206112307Y-66605416D01*
X206112307Y-63235416D01*
X212033307Y-63235416D01*
X212033307Y-63786404D01*
X212244160Y-64295450D01*
X212633767Y-64685057D01*
X213142813Y-64895910D01*
X213693801Y-64895910D01*
X214202847Y-64685057D01*
X214571838Y-64316066D01*
X214610150Y-64508675D01*
X214750498Y-64718719D01*
X214960542Y-64859067D01*
X215208307Y-64908350D01*
X216708307Y-64908350D01*
X216956072Y-64859067D01*
X217166116Y-64718719D01*
X217306464Y-64508675D01*
X217355747Y-64260910D01*
X217355747Y-63195416D01*
X243783307Y-63195416D01*
X243783307Y-63746404D01*
X243994160Y-64255450D01*
X244383767Y-64645057D01*
X244892813Y-64855910D01*
X245443801Y-64855910D01*
X245952847Y-64645057D01*
X246321838Y-64276066D01*
X246360150Y-64468675D01*
X246500498Y-64678719D01*
X246710542Y-64819067D01*
X246958307Y-64868350D01*
X248458307Y-64868350D01*
X248706072Y-64819067D01*
X248916116Y-64678719D01*
X249056464Y-64468675D01*
X249105747Y-64220910D01*
X249105747Y-62720910D01*
X249056464Y-62473145D01*
X249005358Y-62396660D01*
X258903307Y-62396660D01*
X258903307Y-62987219D01*
X258999980Y-63220608D01*
X259178608Y-63399237D01*
X259411997Y-63495910D01*
X261792557Y-63495910D01*
X261951307Y-63337160D01*
X261951307Y-62237910D01*
X259062057Y-62237910D01*
X258903307Y-62396660D01*
X249005358Y-62396660D01*
X248916116Y-62263101D01*
X248706072Y-62122753D01*
X248458307Y-62073470D01*
X246958307Y-62073470D01*
X246710542Y-62122753D01*
X246500498Y-62263101D01*
X246360150Y-62473145D01*
X246321838Y-62665754D01*
X245952847Y-62296763D01*
X245443801Y-62085910D01*
X244892813Y-62085910D01*
X244383767Y-62296763D01*
X243994160Y-62686370D01*
X243783307Y-63195416D01*
X217355747Y-63195416D01*
X217355747Y-62760910D01*
X217306464Y-62513145D01*
X217166116Y-62303101D01*
X216956072Y-62162753D01*
X216708307Y-62113470D01*
X215208307Y-62113470D01*
X214960542Y-62162753D01*
X214750498Y-62303101D01*
X214610150Y-62513145D01*
X214571838Y-62705754D01*
X214202847Y-62336763D01*
X213693801Y-62125910D01*
X213142813Y-62125910D01*
X212633767Y-62336763D01*
X212244160Y-62726370D01*
X212033307Y-63235416D01*
X206112307Y-63235416D01*
X206112307Y-61242427D01*
X212616395Y-61242427D01*
X212684384Y-61483370D01*
X213203478Y-61668111D01*
X213753755Y-61640140D01*
X214132230Y-61483370D01*
X214200219Y-61242427D01*
X213408307Y-60450515D01*
X212616395Y-61242427D01*
X206112307Y-61242427D01*
X206112307Y-60066081D01*
X212011106Y-60066081D01*
X212039077Y-60616358D01*
X212195847Y-60994833D01*
X212436790Y-61062822D01*
X213228702Y-60270910D01*
X213587912Y-60270910D01*
X214379824Y-61062822D01*
X214550867Y-61014557D01*
X214550867Y-61020910D01*
X214600150Y-61268675D01*
X214740498Y-61478719D01*
X214950542Y-61619067D01*
X215198307Y-61668350D01*
X216698307Y-61668350D01*
X216946072Y-61619067D01*
X217156116Y-61478719D01*
X217296464Y-61268675D01*
X217303241Y-61234601D01*
X258903307Y-61234601D01*
X258903307Y-61825160D01*
X259062057Y-61983910D01*
X261951307Y-61983910D01*
X261951307Y-60884660D01*
X261792557Y-60725910D01*
X259411997Y-60725910D01*
X259178608Y-60822583D01*
X258999980Y-61001212D01*
X258903307Y-61234601D01*
X217303241Y-61234601D01*
X217345747Y-61020910D01*
X217345747Y-59520910D01*
X217296464Y-59273145D01*
X217156116Y-59063101D01*
X216946072Y-58922753D01*
X216698307Y-58873470D01*
X215198307Y-58873470D01*
X214950542Y-58922753D01*
X214740498Y-59063101D01*
X214600150Y-59273145D01*
X214550867Y-59520910D01*
X214550867Y-59527263D01*
X214379824Y-59478998D01*
X213587912Y-60270910D01*
X213228702Y-60270910D01*
X212436790Y-59478998D01*
X212195847Y-59546987D01*
X212011106Y-60066081D01*
X206112307Y-60066081D01*
X206112307Y-59299393D01*
X212616395Y-59299393D01*
X213408307Y-60091305D01*
X214200219Y-59299393D01*
X214132230Y-59058450D01*
X213613136Y-58873709D01*
X213062859Y-58901680D01*
X212684384Y-59058450D01*
X212616395Y-59299393D01*
X206112307Y-59299393D01*
X206112307Y-57235416D01*
X243773307Y-57235416D01*
X243773307Y-57786404D01*
X243984160Y-58295450D01*
X244373767Y-58685057D01*
X244882813Y-58895910D01*
X245433801Y-58895910D01*
X245942847Y-58685057D01*
X246311838Y-58316066D01*
X246350150Y-58508675D01*
X246490498Y-58718719D01*
X246700542Y-58859067D01*
X246948307Y-58908350D01*
X248448307Y-58908350D01*
X248696072Y-58859067D01*
X248906116Y-58718719D01*
X249046464Y-58508675D01*
X249095747Y-58260910D01*
X249095747Y-56760910D01*
X249046464Y-56513145D01*
X248906116Y-56303101D01*
X248696072Y-56162753D01*
X248448307Y-56113470D01*
X246948307Y-56113470D01*
X246700542Y-56162753D01*
X246490498Y-56303101D01*
X246350150Y-56513145D01*
X246311838Y-56705754D01*
X245942847Y-56336763D01*
X245433801Y-56125910D01*
X244882813Y-56125910D01*
X244373767Y-56336763D01*
X243984160Y-56726370D01*
X243773307Y-57235416D01*
X206112307Y-57235416D01*
X206112307Y-53896660D01*
X258903307Y-53896660D01*
X258903307Y-54487219D01*
X258999980Y-54720608D01*
X259178608Y-54899237D01*
X259411997Y-54995910D01*
X261792557Y-54995910D01*
X261951307Y-54837160D01*
X261951307Y-53737910D01*
X259062057Y-53737910D01*
X258903307Y-53896660D01*
X206112307Y-53896660D01*
X206112307Y-52422427D01*
X244386395Y-52422427D01*
X244454384Y-52663370D01*
X244973478Y-52848111D01*
X245523755Y-52820140D01*
X245902230Y-52663370D01*
X245970219Y-52422427D01*
X245178307Y-51630515D01*
X244386395Y-52422427D01*
X206112307Y-52422427D01*
X206112307Y-51246081D01*
X243781106Y-51246081D01*
X243809077Y-51796358D01*
X243965847Y-52174833D01*
X244206790Y-52242822D01*
X244998702Y-51450910D01*
X245357912Y-51450910D01*
X246149824Y-52242822D01*
X246320867Y-52194557D01*
X246320867Y-52200910D01*
X246370150Y-52448675D01*
X246510498Y-52658719D01*
X246720542Y-52799067D01*
X246968307Y-52848350D01*
X248468307Y-52848350D01*
X248716072Y-52799067D01*
X248812551Y-52734601D01*
X258903307Y-52734601D01*
X258903307Y-53325160D01*
X259062057Y-53483910D01*
X261951307Y-53483910D01*
X261951307Y-52384660D01*
X261792557Y-52225910D01*
X259411997Y-52225910D01*
X259178608Y-52322583D01*
X258999980Y-52501212D01*
X258903307Y-52734601D01*
X248812551Y-52734601D01*
X248926116Y-52658719D01*
X249066464Y-52448675D01*
X249115747Y-52200910D01*
X249115747Y-50700910D01*
X249066464Y-50453145D01*
X248926116Y-50243101D01*
X248716072Y-50102753D01*
X248468307Y-50053470D01*
X246968307Y-50053470D01*
X246720542Y-50102753D01*
X246510498Y-50243101D01*
X246370150Y-50453145D01*
X246320867Y-50700910D01*
X246320867Y-50707263D01*
X246149824Y-50658998D01*
X245357912Y-51450910D01*
X244998702Y-51450910D01*
X244206790Y-50658998D01*
X243965847Y-50726987D01*
X243781106Y-51246081D01*
X206112307Y-51246081D01*
X206112307Y-50479393D01*
X244386395Y-50479393D01*
X245178307Y-51271305D01*
X245970219Y-50479393D01*
X245902230Y-50238450D01*
X245383136Y-50053709D01*
X244832859Y-50081680D01*
X244454384Y-50238450D01*
X244386395Y-50479393D01*
X206112307Y-50479393D01*
X206112307Y-35616660D01*
X250683307Y-35616660D01*
X250683307Y-37997220D01*
X250779980Y-38230609D01*
X250958609Y-38409237D01*
X251191998Y-38505910D01*
X251782557Y-38505910D01*
X251941307Y-38347160D01*
X251941307Y-35457910D01*
X252195307Y-35457910D01*
X252195307Y-38347160D01*
X252354057Y-38505910D01*
X252944616Y-38505910D01*
X253178005Y-38409237D01*
X253356634Y-38230609D01*
X253453307Y-37997220D01*
X253453307Y-35616660D01*
X259183307Y-35616660D01*
X259183307Y-37997220D01*
X259279980Y-38230609D01*
X259458609Y-38409237D01*
X259691998Y-38505910D01*
X260282557Y-38505910D01*
X260441307Y-38347160D01*
X260441307Y-35457910D01*
X260695307Y-35457910D01*
X260695307Y-38347160D01*
X260854057Y-38505910D01*
X261444616Y-38505910D01*
X261678005Y-38409237D01*
X261856634Y-38230609D01*
X261953307Y-37997220D01*
X261953307Y-35616660D01*
X261794557Y-35457910D01*
X260695307Y-35457910D01*
X260441307Y-35457910D01*
X259342057Y-35457910D01*
X259183307Y-35616660D01*
X253453307Y-35616660D01*
X253294557Y-35457910D01*
X252195307Y-35457910D01*
X251941307Y-35457910D01*
X250842057Y-35457910D01*
X250683307Y-35616660D01*
X206112307Y-35616660D01*
X206112307Y-33290910D01*
X250683307Y-33290910D01*
X250683307Y-35045160D01*
X250683307Y-35045160D01*
G37*
X250683307Y-35045160D02*
X250842057Y-35203910D01*
X251941307Y-35203910D01*
X251941307Y-35183910D01*
X252195307Y-35183910D01*
X252195307Y-35203910D01*
X253294557Y-35203910D01*
X253453307Y-35045160D01*
X253453307Y-33290910D01*
X259183307Y-33290910D01*
X259183307Y-35045160D01*
X259342057Y-35203910D01*
X260441307Y-35203910D01*
X260441307Y-35183910D01*
X260695307Y-35183910D01*
X260695307Y-35203910D01*
X261794557Y-35203910D01*
X261953307Y-35045160D01*
X261953307Y-33290910D01*
X264128308Y-33290910D01*
X264128308Y-52225910D01*
X262364057Y-52225910D01*
X262205307Y-52384660D01*
X262205307Y-53483910D01*
X262225307Y-53483910D01*
X262225307Y-53737910D01*
X262205307Y-53737910D01*
X262205307Y-54837160D01*
X262364057Y-54995910D01*
X264128308Y-54995910D01*
X264128308Y-60725910D01*
X262364057Y-60725910D01*
X262205307Y-60884660D01*
X262205307Y-61983910D01*
X262225307Y-61983910D01*
X262225307Y-62237910D01*
X262205307Y-62237910D01*
X262205307Y-63337160D01*
X262364057Y-63495910D01*
X264128308Y-63495910D01*
X264128307Y-120770910D01*
X206112307Y-120770910D01*
X206112307Y-110936660D01*
X211393307Y-110936660D01*
X211393307Y-111527219D01*
X211489980Y-111760608D01*
X211668608Y-111939237D01*
X211901997Y-112035910D01*
X211974620Y-112035910D01*
X211604160Y-112406370D01*
X211393307Y-112915416D01*
X211393307Y-113466404D01*
X211604160Y-113975450D01*
X211993767Y-114365057D01*
X212502813Y-114575910D01*
X213053801Y-114575910D01*
X213562847Y-114365057D01*
X213952454Y-113975450D01*
X214163307Y-113466404D01*
X214163307Y-113187217D01*
X215164407Y-113187217D01*
X215299063Y-113864180D01*
X215682532Y-114438082D01*
X216256434Y-114821551D01*
X216762517Y-114922217D01*
X217104277Y-114922217D01*
X217610360Y-114821551D01*
X218184262Y-114438082D01*
X218567731Y-113864180D01*
X218702387Y-113187217D01*
X218567731Y-112510254D01*
X218285067Y-112087217D01*
X225345957Y-112087217D01*
X225345957Y-114287217D01*
X225395240Y-114534982D01*
X225535588Y-114745026D01*
X225745632Y-114885374D01*
X225993397Y-114934657D01*
X228193397Y-114934657D01*
X228441162Y-114885374D01*
X228651206Y-114745026D01*
X228791554Y-114534982D01*
X228840837Y-114287217D01*
X228840837Y-112087217D01*
X228791554Y-111839452D01*
X228651206Y-111629408D01*
X228441162Y-111489060D01*
X228193397Y-111439777D01*
X225993397Y-111439777D01*
X225745632Y-111489060D01*
X225535588Y-111629408D01*
X225395240Y-111839452D01*
X225345957Y-112087217D01*
X218285067Y-112087217D01*
X218184262Y-111936352D01*
X217610360Y-111552883D01*
X217104277Y-111452217D01*
X216762517Y-111452217D01*
X216256434Y-111552883D01*
X215682532Y-111936352D01*
X215299063Y-112510254D01*
X215164407Y-113187217D01*
X214163307Y-113187217D01*
X214163307Y-112915416D01*
X213952454Y-112406370D01*
X213581994Y-112035910D01*
X213654617Y-112035910D01*
X213888006Y-111939237D01*
X214066634Y-111760608D01*
X214163307Y-111527219D01*
X214163307Y-110936660D01*
X214004557Y-110777910D01*
X212905307Y-110777910D01*
X212905307Y-110797910D01*
X212651307Y-110797910D01*
X212651307Y-110777910D01*
X211552057Y-110777910D01*
X211393307Y-110936660D01*
X206112307Y-110936660D01*
X206112307Y-109774601D01*
X211393307Y-109774601D01*
X211393307Y-110365160D01*
X211552057Y-110523910D01*
X212651307Y-110523910D01*
X212651307Y-109424660D01*
X212905307Y-109424660D01*
X212905307Y-110523910D01*
X214004557Y-110523910D01*
X214163307Y-110365160D01*
X214163307Y-109774601D01*
X214066634Y-109541212D01*
X213888006Y-109362583D01*
X213654617Y-109265910D01*
X213064057Y-109265910D01*
X212905307Y-109424660D01*
X212651307Y-109424660D01*
X212492557Y-109265910D01*
X211901997Y-109265910D01*
X211668608Y-109362583D01*
X211489980Y-109541212D01*
X211393307Y-109774601D01*
X206112307Y-109774601D01*
X206112307Y-107279213D01*
X231423951Y-107279213D01*
X231423951Y-109311213D01*
X231473234Y-109558978D01*
X231613582Y-109769022D01*
X231823626Y-109909370D01*
X232071391Y-109958653D01*
X234103391Y-109958653D01*
X234351156Y-109909370D01*
X234561200Y-109769022D01*
X234701548Y-109558978D01*
X234750831Y-109311213D01*
X234750831Y-107279213D01*
X234701548Y-107031448D01*
X234561200Y-106821404D01*
X234362004Y-106688304D01*
X234520013Y-106629093D01*
X234749207Y-106013571D01*
X234725405Y-105357194D01*
X234520013Y-104861333D01*
X234251498Y-104760711D01*
X233266996Y-105745213D01*
X233281139Y-105759356D01*
X233101534Y-105938961D01*
X233087391Y-105924818D01*
X233073249Y-105938961D01*
X232893644Y-105759356D01*
X232907786Y-105745213D01*
X231923284Y-104760711D01*
X231654769Y-104861333D01*
X231425575Y-105476855D01*
X231449377Y-106133232D01*
X231654769Y-106629093D01*
X231812778Y-106688304D01*
X231613582Y-106821404D01*
X231473234Y-107031448D01*
X231423951Y-107279213D01*
X206112307Y-107279213D01*
X206112307Y-102866809D01*
X231436391Y-102866809D01*
X231436391Y-103523617D01*
X231687741Y-104130429D01*
X232112574Y-104555262D01*
X232102889Y-104581106D01*
X233087391Y-105565608D01*
X234071893Y-104581106D01*
X234062208Y-104555262D01*
X234487041Y-104130429D01*
X234738391Y-103523617D01*
X234738391Y-102866809D01*
X234487041Y-102259997D01*
X234022607Y-101795563D01*
X233415795Y-101544213D01*
X232758987Y-101544213D01*
X232152175Y-101795563D01*
X231687741Y-102259997D01*
X231436391Y-102866809D01*
X206112307Y-102866809D01*
X206112307Y-90526963D01*
X223170391Y-90526963D01*
X223170391Y-91267523D01*
X223267064Y-91500912D01*
X223445693Y-91679540D01*
X223679082Y-91776213D01*
X224419641Y-91776213D01*
X224578391Y-91617463D01*
X224578391Y-90368213D01*
X223329141Y-90368213D01*
X223170391Y-90526963D01*
X206112307Y-90526963D01*
X206112307Y-89214903D01*
X223170391Y-89214903D01*
X223170391Y-89955463D01*
X223329141Y-90114213D01*
X224578391Y-90114213D01*
X224578391Y-88864963D01*
X224832391Y-88864963D01*
X224832391Y-90114213D01*
X224852391Y-90114213D01*
X224852391Y-90368213D01*
X224832391Y-90368213D01*
X224832391Y-91617463D01*
X224991141Y-91776213D01*
X225731700Y-91776213D01*
X225965089Y-91679540D01*
X226143718Y-91500912D01*
X226199530Y-91366169D01*
X226375884Y-91542523D01*
X226940061Y-91776213D01*
X227550721Y-91776213D01*
X228114898Y-91542523D01*
X228546701Y-91110720D01*
X228780391Y-90546543D01*
X228780391Y-89935883D01*
X228546701Y-89371706D01*
X228114898Y-88939903D01*
X227550721Y-88706213D01*
X226940061Y-88706213D01*
X226375884Y-88939903D01*
X226199530Y-89116257D01*
X226143718Y-88981514D01*
X225965089Y-88802886D01*
X225731700Y-88706213D01*
X224991141Y-88706213D01*
X224832391Y-88864963D01*
X224578391Y-88864963D01*
X224419641Y-88706213D01*
X223679082Y-88706213D01*
X223445693Y-88802886D01*
X223267064Y-88981514D01*
X223170391Y-89214903D01*
X206112307Y-89214903D01*
X206112307Y-68995416D01*
X243833307Y-68995416D01*
X243833307Y-69546404D01*
X244044160Y-70055450D01*
X244433767Y-70445057D01*
X244942813Y-70655910D01*
X245493801Y-70655910D01*
X246002847Y-70445057D01*
X246371838Y-70076066D01*
X246410150Y-70268675D01*
X246550498Y-70478719D01*
X246760542Y-70619067D01*
X247008307Y-70668350D01*
X248508307Y-70668350D01*
X248756072Y-70619067D01*
X248966116Y-70478719D01*
X249106464Y-70268675D01*
X249155747Y-70020910D01*
X249155747Y-68520910D01*
X249106464Y-68273145D01*
X248966116Y-68063101D01*
X248756072Y-67922753D01*
X248508307Y-67873470D01*
X247008307Y-67873470D01*
X246760542Y-67922753D01*
X246550498Y-68063101D01*
X246410150Y-68273145D01*
X246371838Y-68465754D01*
X246002847Y-68096763D01*
X245493801Y-67885910D01*
X244942813Y-67885910D01*
X244433767Y-68096763D01*
X244044160Y-68486370D01*
X243833307Y-68995416D01*
X206112307Y-68995416D01*
X206112307Y-66605416D01*
X212033307Y-66605416D01*
X212033307Y-67156404D01*
X212244160Y-67665450D01*
X212633767Y-68055057D01*
X213142813Y-68265910D01*
X213693801Y-68265910D01*
X214202847Y-68055057D01*
X214573307Y-67684597D01*
X214573307Y-67757220D01*
X214669980Y-67990609D01*
X214848609Y-68169237D01*
X215081998Y-68265910D01*
X215672557Y-68265910D01*
X215831307Y-68107160D01*
X215831307Y-67007910D01*
X216085307Y-67007910D01*
X216085307Y-68107160D01*
X216244057Y-68265910D01*
X216834616Y-68265910D01*
X217068005Y-68169237D01*
X217246634Y-67990609D01*
X217343307Y-67757220D01*
X217343307Y-67166660D01*
X217184557Y-67007910D01*
X216085307Y-67007910D01*
X215831307Y-67007910D01*
X215811307Y-67007910D01*
X215811307Y-66753910D01*
X215831307Y-66753910D01*
X215831307Y-65654660D01*
X216085307Y-65654660D01*
X216085307Y-66753910D01*
X217184557Y-66753910D01*
X217343307Y-66595160D01*
X217343307Y-66004600D01*
X217246634Y-65771211D01*
X217068005Y-65592583D01*
X216834616Y-65495910D01*
X216244057Y-65495910D01*
X216085307Y-65654660D01*
X215831307Y-65654660D01*
X215672557Y-65495910D01*
X215081998Y-65495910D01*
X214848609Y-65592583D01*
X214669980Y-65771211D01*
X214573307Y-66004600D01*
X214573307Y-66077223D01*
X214202847Y-65706763D01*
X213693801Y-65495910D01*
X213142813Y-65495910D01*
X212633767Y-65706763D01*
X212244160Y-66096370D01*
X212033307Y-66605416D01*
X206112307Y-66605416D01*
X206112307Y-63235416D01*
X212033307Y-63235416D01*
X212033307Y-63786404D01*
X212244160Y-64295450D01*
X212633767Y-64685057D01*
X213142813Y-64895910D01*
X213693801Y-64895910D01*
X214202847Y-64685057D01*
X214571838Y-64316066D01*
X214610150Y-64508675D01*
X214750498Y-64718719D01*
X214960542Y-64859067D01*
X215208307Y-64908350D01*
X216708307Y-64908350D01*
X216956072Y-64859067D01*
X217166116Y-64718719D01*
X217306464Y-64508675D01*
X217355747Y-64260910D01*
X217355747Y-63195416D01*
X243783307Y-63195416D01*
X243783307Y-63746404D01*
X243994160Y-64255450D01*
X244383767Y-64645057D01*
X244892813Y-64855910D01*
X245443801Y-64855910D01*
X245952847Y-64645057D01*
X246321838Y-64276066D01*
X246360150Y-64468675D01*
X246500498Y-64678719D01*
X246710542Y-64819067D01*
X246958307Y-64868350D01*
X248458307Y-64868350D01*
X248706072Y-64819067D01*
X248916116Y-64678719D01*
X249056464Y-64468675D01*
X249105747Y-64220910D01*
X249105747Y-62720910D01*
X249056464Y-62473145D01*
X249005358Y-62396660D01*
X258903307Y-62396660D01*
X258903307Y-62987219D01*
X258999980Y-63220608D01*
X259178608Y-63399237D01*
X259411997Y-63495910D01*
X261792557Y-63495910D01*
X261951307Y-63337160D01*
X261951307Y-62237910D01*
X259062057Y-62237910D01*
X258903307Y-62396660D01*
X249005358Y-62396660D01*
X248916116Y-62263101D01*
X248706072Y-62122753D01*
X248458307Y-62073470D01*
X246958307Y-62073470D01*
X246710542Y-62122753D01*
X246500498Y-62263101D01*
X246360150Y-62473145D01*
X246321838Y-62665754D01*
X245952847Y-62296763D01*
X245443801Y-62085910D01*
X244892813Y-62085910D01*
X244383767Y-62296763D01*
X243994160Y-62686370D01*
X243783307Y-63195416D01*
X217355747Y-63195416D01*
X217355747Y-62760910D01*
X217306464Y-62513145D01*
X217166116Y-62303101D01*
X216956072Y-62162753D01*
X216708307Y-62113470D01*
X215208307Y-62113470D01*
X214960542Y-62162753D01*
X214750498Y-62303101D01*
X214610150Y-62513145D01*
X214571838Y-62705754D01*
X214202847Y-62336763D01*
X213693801Y-62125910D01*
X213142813Y-62125910D01*
X212633767Y-62336763D01*
X212244160Y-62726370D01*
X212033307Y-63235416D01*
X206112307Y-63235416D01*
X206112307Y-61242427D01*
X212616395Y-61242427D01*
X212684384Y-61483370D01*
X213203478Y-61668111D01*
X213753755Y-61640140D01*
X214132230Y-61483370D01*
X214200219Y-61242427D01*
X213408307Y-60450515D01*
X212616395Y-61242427D01*
X206112307Y-61242427D01*
X206112307Y-60066081D01*
X212011106Y-60066081D01*
X212039077Y-60616358D01*
X212195847Y-60994833D01*
X212436790Y-61062822D01*
X213228702Y-60270910D01*
X213587912Y-60270910D01*
X214379824Y-61062822D01*
X214550867Y-61014557D01*
X214550867Y-61020910D01*
X214600150Y-61268675D01*
X214740498Y-61478719D01*
X214950542Y-61619067D01*
X215198307Y-61668350D01*
X216698307Y-61668350D01*
X216946072Y-61619067D01*
X217156116Y-61478719D01*
X217296464Y-61268675D01*
X217303241Y-61234601D01*
X258903307Y-61234601D01*
X258903307Y-61825160D01*
X259062057Y-61983910D01*
X261951307Y-61983910D01*
X261951307Y-60884660D01*
X261792557Y-60725910D01*
X259411997Y-60725910D01*
X259178608Y-60822583D01*
X258999980Y-61001212D01*
X258903307Y-61234601D01*
X217303241Y-61234601D01*
X217345747Y-61020910D01*
X217345747Y-59520910D01*
X217296464Y-59273145D01*
X217156116Y-59063101D01*
X216946072Y-58922753D01*
X216698307Y-58873470D01*
X215198307Y-58873470D01*
X214950542Y-58922753D01*
X214740498Y-59063101D01*
X214600150Y-59273145D01*
X214550867Y-59520910D01*
X214550867Y-59527263D01*
X214379824Y-59478998D01*
X213587912Y-60270910D01*
X213228702Y-60270910D01*
X212436790Y-59478998D01*
X212195847Y-59546987D01*
X212011106Y-60066081D01*
X206112307Y-60066081D01*
X206112307Y-59299393D01*
X212616395Y-59299393D01*
X213408307Y-60091305D01*
X214200219Y-59299393D01*
X214132230Y-59058450D01*
X213613136Y-58873709D01*
X213062859Y-58901680D01*
X212684384Y-59058450D01*
X212616395Y-59299393D01*
X206112307Y-59299393D01*
X206112307Y-57235416D01*
X243773307Y-57235416D01*
X243773307Y-57786404D01*
X243984160Y-58295450D01*
X244373767Y-58685057D01*
X244882813Y-58895910D01*
X245433801Y-58895910D01*
X245942847Y-58685057D01*
X246311838Y-58316066D01*
X246350150Y-58508675D01*
X246490498Y-58718719D01*
X246700542Y-58859067D01*
X246948307Y-58908350D01*
X248448307Y-58908350D01*
X248696072Y-58859067D01*
X248906116Y-58718719D01*
X249046464Y-58508675D01*
X249095747Y-58260910D01*
X249095747Y-56760910D01*
X249046464Y-56513145D01*
X248906116Y-56303101D01*
X248696072Y-56162753D01*
X248448307Y-56113470D01*
X246948307Y-56113470D01*
X246700542Y-56162753D01*
X246490498Y-56303101D01*
X246350150Y-56513145D01*
X246311838Y-56705754D01*
X245942847Y-56336763D01*
X245433801Y-56125910D01*
X244882813Y-56125910D01*
X244373767Y-56336763D01*
X243984160Y-56726370D01*
X243773307Y-57235416D01*
X206112307Y-57235416D01*
X206112307Y-53896660D01*
X258903307Y-53896660D01*
X258903307Y-54487219D01*
X258999980Y-54720608D01*
X259178608Y-54899237D01*
X259411997Y-54995910D01*
X261792557Y-54995910D01*
X261951307Y-54837160D01*
X261951307Y-53737910D01*
X259062057Y-53737910D01*
X258903307Y-53896660D01*
X206112307Y-53896660D01*
X206112307Y-52422427D01*
X244386395Y-52422427D01*
X244454384Y-52663370D01*
X244973478Y-52848111D01*
X245523755Y-52820140D01*
X245902230Y-52663370D01*
X245970219Y-52422427D01*
X245178307Y-51630515D01*
X244386395Y-52422427D01*
X206112307Y-52422427D01*
X206112307Y-51246081D01*
X243781106Y-51246081D01*
X243809077Y-51796358D01*
X243965847Y-52174833D01*
X244206790Y-52242822D01*
X244998702Y-51450910D01*
X245357912Y-51450910D01*
X246149824Y-52242822D01*
X246320867Y-52194557D01*
X246320867Y-52200910D01*
X246370150Y-52448675D01*
X246510498Y-52658719D01*
X246720542Y-52799067D01*
X246968307Y-52848350D01*
X248468307Y-52848350D01*
X248716072Y-52799067D01*
X248812551Y-52734601D01*
X258903307Y-52734601D01*
X258903307Y-53325160D01*
X259062057Y-53483910D01*
X261951307Y-53483910D01*
X261951307Y-52384660D01*
X261792557Y-52225910D01*
X259411997Y-52225910D01*
X259178608Y-52322583D01*
X258999980Y-52501212D01*
X258903307Y-52734601D01*
X248812551Y-52734601D01*
X248926116Y-52658719D01*
X249066464Y-52448675D01*
X249115747Y-52200910D01*
X249115747Y-50700910D01*
X249066464Y-50453145D01*
X248926116Y-50243101D01*
X248716072Y-50102753D01*
X248468307Y-50053470D01*
X246968307Y-50053470D01*
X246720542Y-50102753D01*
X246510498Y-50243101D01*
X246370150Y-50453145D01*
X246320867Y-50700910D01*
X246320867Y-50707263D01*
X246149824Y-50658998D01*
X245357912Y-51450910D01*
X244998702Y-51450910D01*
X244206790Y-50658998D01*
X243965847Y-50726987D01*
X243781106Y-51246081D01*
X206112307Y-51246081D01*
X206112307Y-50479393D01*
X244386395Y-50479393D01*
X245178307Y-51271305D01*
X245970219Y-50479393D01*
X245902230Y-50238450D01*
X245383136Y-50053709D01*
X244832859Y-50081680D01*
X244454384Y-50238450D01*
X244386395Y-50479393D01*
X206112307Y-50479393D01*
X206112307Y-35616660D01*
X250683307Y-35616660D01*
X250683307Y-37997220D01*
X250779980Y-38230609D01*
X250958609Y-38409237D01*
X251191998Y-38505910D01*
X251782557Y-38505910D01*
X251941307Y-38347160D01*
X251941307Y-35457910D01*
X252195307Y-35457910D01*
X252195307Y-38347160D01*
X252354057Y-38505910D01*
X252944616Y-38505910D01*
X253178005Y-38409237D01*
X253356634Y-38230609D01*
X253453307Y-37997220D01*
X253453307Y-35616660D01*
X259183307Y-35616660D01*
X259183307Y-37997220D01*
X259279980Y-38230609D01*
X259458609Y-38409237D01*
X259691998Y-38505910D01*
X260282557Y-38505910D01*
X260441307Y-38347160D01*
X260441307Y-35457910D01*
X260695307Y-35457910D01*
X260695307Y-38347160D01*
X260854057Y-38505910D01*
X261444616Y-38505910D01*
X261678005Y-38409237D01*
X261856634Y-38230609D01*
X261953307Y-37997220D01*
X261953307Y-35616660D01*
X261794557Y-35457910D01*
X260695307Y-35457910D01*
X260441307Y-35457910D01*
X259342057Y-35457910D01*
X259183307Y-35616660D01*
X253453307Y-35616660D01*
X253294557Y-35457910D01*
X252195307Y-35457910D01*
X251941307Y-35457910D01*
X250842057Y-35457910D01*
X250683307Y-35616660D01*
X206112307Y-35616660D01*
X206112307Y-33290910D01*
X250683307Y-33290910D01*
X250683307Y-35045160D01*
G04 #@! TD*
M02*
