G04 #@! TF.GenerationSoftware,KiCad,Pcbnew,(6.0.0-rc1-dev-305-gf0b8b21)*
G04 #@! TF.CreationDate,2018-11-29T17:33:20-08:00*
G04 #@! TF.ProjectId,EE173_Lab4,45453137335F4C6162342E6B69636164,rev?*
G04 #@! TF.SameCoordinates,Original*
G04 #@! TF.FileFunction,Copper,L1,Top,Signal*
G04 #@! TF.FilePolarity,Positive*
%FSLAX46Y46*%
G04 Gerber Fmt 4.6, Leading zero omitted, Abs format (unit mm)*
G04 Created by KiCad (PCBNEW (6.0.0-rc1-dev-305-gf0b8b21)) date Thursday, November 29, 2018 at 05:33:20 PM*
%MOMM*%
%LPD*%
G01*
G04 APERTURE LIST*
G04 #@! TA.AperFunction,NonConductor*
%ADD10C,0.300000*%
G04 #@! TD*
G04 #@! TA.AperFunction,SMDPad,CuDef*
%ADD11R,1.500000X5.080000*%
G04 #@! TD*
G04 #@! TA.AperFunction,Conductor*
%ADD12C,0.100000*%
G04 #@! TD*
G04 #@! TA.AperFunction,SMDPad,CuDef*
%ADD13C,0.975000*%
G04 #@! TD*
G04 #@! TA.AperFunction,ComponentPad*
%ADD14O,2.200000X2.200000*%
G04 #@! TD*
G04 #@! TA.AperFunction,ComponentPad*
%ADD15R,2.200000X2.200000*%
G04 #@! TD*
G04 #@! TA.AperFunction,ComponentPad*
%ADD16C,1.800000*%
G04 #@! TD*
G04 #@! TA.AperFunction,ComponentPad*
%ADD17R,1.800000X1.800000*%
G04 #@! TD*
G04 #@! TA.AperFunction,ComponentPad*
%ADD18R,2.032000X2.032000*%
G04 #@! TD*
G04 #@! TA.AperFunction,ComponentPad*
%ADD19C,2.032000*%
G04 #@! TD*
G04 #@! TA.AperFunction,SMDPad,CuDef*
%ADD20R,1.981200X0.558800*%
G04 #@! TD*
G04 #@! TA.AperFunction,ComponentPad*
%ADD21C,1.500000*%
G04 #@! TD*
G04 #@! TA.AperFunction,ComponentPad*
%ADD22R,1.500000X1.500000*%
G04 #@! TD*
G04 #@! TA.AperFunction,SMDPad,CuDef*
%ADD23R,5.080000X1.500000*%
G04 #@! TD*
G04 #@! TA.AperFunction,ViaPad*
%ADD24C,0.889000*%
G04 #@! TD*
G04 #@! TA.AperFunction,Conductor*
%ADD25C,0.254000*%
G04 #@! TD*
G04 #@! TA.AperFunction,Conductor*
%ADD26C,2.947873*%
G04 #@! TD*
G04 #@! TA.AperFunction,Conductor*
%ADD27C,1.270000*%
G04 #@! TD*
G04 APERTURE END LIST*
D10*
X257784021Y-115139481D02*
X257855449Y-115210910D01*
X257926878Y-115425195D01*
X257926878Y-115568052D01*
X257855449Y-115782338D01*
X257712592Y-115925195D01*
X257569735Y-115996624D01*
X257284021Y-116068052D01*
X257069735Y-116068052D01*
X256784021Y-115996624D01*
X256641164Y-115925195D01*
X256498307Y-115782338D01*
X256426878Y-115568052D01*
X256426878Y-115425195D01*
X256498307Y-115210910D01*
X256569735Y-115139481D01*
X257926878Y-114496624D02*
X256426878Y-114496624D01*
X257141164Y-114496624D02*
X257141164Y-113639481D01*
X257926878Y-113639481D02*
X256426878Y-113639481D01*
X257926878Y-110925195D02*
X257212592Y-111425195D01*
X257926878Y-111782338D02*
X256426878Y-111782338D01*
X256426878Y-111210910D01*
X256498307Y-111068052D01*
X256569735Y-110996624D01*
X256712592Y-110925195D01*
X256926878Y-110925195D01*
X257069735Y-110996624D01*
X257141164Y-111068052D01*
X257212592Y-111210910D01*
X257212592Y-111782338D01*
X257141164Y-110282338D02*
X257141164Y-109782338D01*
X257926878Y-109568052D02*
X257926878Y-110282338D01*
X256426878Y-110282338D01*
X256426878Y-109568052D01*
X256426878Y-109139481D02*
X257926878Y-108639481D01*
X256426878Y-108139481D01*
X256426878Y-107353767D02*
X256426878Y-107210910D01*
X256498307Y-107068052D01*
X256569735Y-106996624D01*
X256712592Y-106925195D01*
X256998307Y-106853767D01*
X257355449Y-106853767D01*
X257641164Y-106925195D01*
X257784021Y-106996624D01*
X257855449Y-107068052D01*
X257926878Y-107210910D01*
X257926878Y-107353767D01*
X257855449Y-107496624D01*
X257784021Y-107568052D01*
X257641164Y-107639481D01*
X257355449Y-107710910D01*
X256998307Y-107710910D01*
X256712592Y-107639481D01*
X256569735Y-107568052D01*
X256498307Y-107496624D01*
X256426878Y-107353767D01*
X214865449Y-77018052D02*
X214936878Y-76875195D01*
X214936878Y-76589481D01*
X214865449Y-76446624D01*
X214722592Y-76375195D01*
X214651164Y-76375195D01*
X214508307Y-76446624D01*
X214436878Y-76589481D01*
X214436878Y-76803767D01*
X214365449Y-76946624D01*
X214222592Y-77018052D01*
X214151164Y-77018052D01*
X214008307Y-76946624D01*
X213936878Y-76803767D01*
X213936878Y-76589481D01*
X214008307Y-76446624D01*
X214936878Y-75732338D02*
X213936878Y-75732338D01*
X213436878Y-75732338D02*
X213508307Y-75803767D01*
X213579735Y-75732338D01*
X213508307Y-75660910D01*
X213436878Y-75732338D01*
X213579735Y-75732338D01*
X213936878Y-74375195D02*
X215151164Y-74375195D01*
X215294021Y-74446624D01*
X215365449Y-74518052D01*
X215436878Y-74660910D01*
X215436878Y-74875195D01*
X215365449Y-75018052D01*
X214865449Y-74375195D02*
X214936878Y-74518052D01*
X214936878Y-74803767D01*
X214865449Y-74946624D01*
X214794021Y-75018052D01*
X214651164Y-75089481D01*
X214222592Y-75089481D01*
X214079735Y-75018052D01*
X214008307Y-74946624D01*
X213936878Y-74803767D01*
X213936878Y-74518052D01*
X214008307Y-74375195D01*
X212466878Y-71078052D02*
X213609735Y-71078052D01*
X213038307Y-71649481D02*
X213038307Y-70506624D01*
X215466878Y-71078052D02*
X216609735Y-71078052D01*
X259086878Y-84445195D02*
X259086878Y-83588052D01*
X260586878Y-84016624D02*
X259086878Y-84016624D01*
X260515449Y-82516624D02*
X260586878Y-82659481D01*
X260586878Y-82945195D01*
X260515449Y-83088052D01*
X260372592Y-83159481D01*
X259801164Y-83159481D01*
X259658307Y-83088052D01*
X259586878Y-82945195D01*
X259586878Y-82659481D01*
X259658307Y-82516624D01*
X259801164Y-82445195D01*
X259944021Y-82445195D01*
X260086878Y-83159481D01*
X260515449Y-81873767D02*
X260586878Y-81730910D01*
X260586878Y-81445195D01*
X260515449Y-81302338D01*
X260372592Y-81230910D01*
X260301164Y-81230910D01*
X260158307Y-81302338D01*
X260086878Y-81445195D01*
X260086878Y-81659481D01*
X260015449Y-81802338D01*
X259872592Y-81873767D01*
X259801164Y-81873767D01*
X259658307Y-81802338D01*
X259586878Y-81659481D01*
X259586878Y-81445195D01*
X259658307Y-81302338D01*
X259586878Y-80802338D02*
X259586878Y-80230910D01*
X259086878Y-80588052D02*
X260372592Y-80588052D01*
X260515449Y-80516624D01*
X260586878Y-80373767D01*
X260586878Y-80230910D01*
X260586878Y-77873767D02*
X260586878Y-78588052D01*
X259086878Y-78588052D01*
X260586878Y-77373767D02*
X259586878Y-77373767D01*
X259086878Y-77373767D02*
X259158307Y-77445195D01*
X259229735Y-77373767D01*
X259158307Y-77302338D01*
X259086878Y-77373767D01*
X259229735Y-77373767D01*
X259586878Y-76659481D02*
X260586878Y-76659481D01*
X259729735Y-76659481D02*
X259658307Y-76588052D01*
X259586878Y-76445195D01*
X259586878Y-76230910D01*
X259658307Y-76088052D01*
X259801164Y-76016624D01*
X260586878Y-76016624D01*
X260515449Y-74730910D02*
X260586878Y-74873767D01*
X260586878Y-75159481D01*
X260515449Y-75302338D01*
X260372592Y-75373767D01*
X259801164Y-75373767D01*
X259658307Y-75302338D01*
X259586878Y-75159481D01*
X259586878Y-74873767D01*
X259658307Y-74730910D01*
X259801164Y-74659481D01*
X259944021Y-74659481D01*
X260086878Y-75373767D01*
X244336878Y-37993767D02*
X244336878Y-37708052D01*
X244408307Y-37565195D01*
X244551164Y-37422338D01*
X244836878Y-37350910D01*
X245336878Y-37350910D01*
X245622592Y-37422338D01*
X245765449Y-37565195D01*
X245836878Y-37708052D01*
X245836878Y-37993767D01*
X245765449Y-38136624D01*
X245622592Y-38279481D01*
X245336878Y-38350910D01*
X244836878Y-38350910D01*
X244551164Y-38279481D01*
X244408307Y-38136624D01*
X244336878Y-37993767D01*
X245765449Y-36779481D02*
X245836878Y-36636624D01*
X245836878Y-36350910D01*
X245765449Y-36208052D01*
X245622592Y-36136624D01*
X245551164Y-36136624D01*
X245408307Y-36208052D01*
X245336878Y-36350910D01*
X245336878Y-36565195D01*
X245265449Y-36708052D01*
X245122592Y-36779481D01*
X245051164Y-36779481D01*
X244908307Y-36708052D01*
X244836878Y-36565195D01*
X244836878Y-36350910D01*
X244908307Y-36208052D01*
X245765449Y-34850910D02*
X245836878Y-34993767D01*
X245836878Y-35279481D01*
X245765449Y-35422338D01*
X245694021Y-35493767D01*
X245551164Y-35565195D01*
X245122592Y-35565195D01*
X244979735Y-35493767D01*
X244908307Y-35422338D01*
X244836878Y-35279481D01*
X244836878Y-34993767D01*
X244908307Y-34850910D01*
D11*
G04 #@! TO.P,J4,1*
G04 #@! TO.N,Net-(J4-Pad1)*
X256318307Y-35330910D03*
G04 #@! TO.P,J4,2*
G04 #@! TO.N,GND*
X252068307Y-35330910D03*
X260568307Y-35330910D03*
G04 #@! TD*
D12*
G04 #@! TO.N,Net-(C1-Pad2)*
G04 #@! TO.C,C1*
G36*
X219136039Y-62894891D02*
X219159700Y-62898401D01*
X219182904Y-62904213D01*
X219205426Y-62912271D01*
X219227050Y-62922499D01*
X219247567Y-62934796D01*
X219266780Y-62949046D01*
X219284504Y-62965110D01*
X219300568Y-62982834D01*
X219314818Y-63002047D01*
X219327115Y-63022564D01*
X219337343Y-63044188D01*
X219345401Y-63066710D01*
X219351213Y-63089914D01*
X219354723Y-63113575D01*
X219355897Y-63137467D01*
X219355897Y-64049967D01*
X219354723Y-64073859D01*
X219351213Y-64097520D01*
X219345401Y-64120724D01*
X219337343Y-64143246D01*
X219327115Y-64164870D01*
X219314818Y-64185387D01*
X219300568Y-64204600D01*
X219284504Y-64222324D01*
X219266780Y-64238388D01*
X219247567Y-64252638D01*
X219227050Y-64264935D01*
X219205426Y-64275163D01*
X219182904Y-64283221D01*
X219159700Y-64289033D01*
X219136039Y-64292543D01*
X219112147Y-64293717D01*
X218624647Y-64293717D01*
X218600755Y-64292543D01*
X218577094Y-64289033D01*
X218553890Y-64283221D01*
X218531368Y-64275163D01*
X218509744Y-64264935D01*
X218489227Y-64252638D01*
X218470014Y-64238388D01*
X218452290Y-64222324D01*
X218436226Y-64204600D01*
X218421976Y-64185387D01*
X218409679Y-64164870D01*
X218399451Y-64143246D01*
X218391393Y-64120724D01*
X218385581Y-64097520D01*
X218382071Y-64073859D01*
X218380897Y-64049967D01*
X218380897Y-63137467D01*
X218382071Y-63113575D01*
X218385581Y-63089914D01*
X218391393Y-63066710D01*
X218399451Y-63044188D01*
X218409679Y-63022564D01*
X218421976Y-63002047D01*
X218436226Y-62982834D01*
X218452290Y-62965110D01*
X218470014Y-62949046D01*
X218489227Y-62934796D01*
X218509744Y-62922499D01*
X218531368Y-62912271D01*
X218553890Y-62904213D01*
X218577094Y-62898401D01*
X218600755Y-62894891D01*
X218624647Y-62893717D01*
X219112147Y-62893717D01*
X219136039Y-62894891D01*
X219136039Y-62894891D01*
G37*
D13*
G04 #@! TD*
G04 #@! TO.P,C1,2*
G04 #@! TO.N,Net-(C1-Pad2)*
X218868397Y-63593717D03*
D12*
G04 #@! TO.N,Net-(C1-Pad1)*
G04 #@! TO.C,C1*
G36*
X221011039Y-62894891D02*
X221034700Y-62898401D01*
X221057904Y-62904213D01*
X221080426Y-62912271D01*
X221102050Y-62922499D01*
X221122567Y-62934796D01*
X221141780Y-62949046D01*
X221159504Y-62965110D01*
X221175568Y-62982834D01*
X221189818Y-63002047D01*
X221202115Y-63022564D01*
X221212343Y-63044188D01*
X221220401Y-63066710D01*
X221226213Y-63089914D01*
X221229723Y-63113575D01*
X221230897Y-63137467D01*
X221230897Y-64049967D01*
X221229723Y-64073859D01*
X221226213Y-64097520D01*
X221220401Y-64120724D01*
X221212343Y-64143246D01*
X221202115Y-64164870D01*
X221189818Y-64185387D01*
X221175568Y-64204600D01*
X221159504Y-64222324D01*
X221141780Y-64238388D01*
X221122567Y-64252638D01*
X221102050Y-64264935D01*
X221080426Y-64275163D01*
X221057904Y-64283221D01*
X221034700Y-64289033D01*
X221011039Y-64292543D01*
X220987147Y-64293717D01*
X220499647Y-64293717D01*
X220475755Y-64292543D01*
X220452094Y-64289033D01*
X220428890Y-64283221D01*
X220406368Y-64275163D01*
X220384744Y-64264935D01*
X220364227Y-64252638D01*
X220345014Y-64238388D01*
X220327290Y-64222324D01*
X220311226Y-64204600D01*
X220296976Y-64185387D01*
X220284679Y-64164870D01*
X220274451Y-64143246D01*
X220266393Y-64120724D01*
X220260581Y-64097520D01*
X220257071Y-64073859D01*
X220255897Y-64049967D01*
X220255897Y-63137467D01*
X220257071Y-63113575D01*
X220260581Y-63089914D01*
X220266393Y-63066710D01*
X220274451Y-63044188D01*
X220284679Y-63022564D01*
X220296976Y-63002047D01*
X220311226Y-62982834D01*
X220327290Y-62965110D01*
X220345014Y-62949046D01*
X220364227Y-62934796D01*
X220384744Y-62922499D01*
X220406368Y-62912271D01*
X220428890Y-62904213D01*
X220452094Y-62898401D01*
X220475755Y-62894891D01*
X220499647Y-62893717D01*
X220987147Y-62893717D01*
X221011039Y-62894891D01*
X221011039Y-62894891D01*
G37*
D13*
G04 #@! TD*
G04 #@! TO.P,C1,1*
G04 #@! TO.N,Net-(C1-Pad1)*
X220743397Y-63593717D03*
D12*
G04 #@! TO.N,GND*
G04 #@! TO.C,C2*
G36*
X235283539Y-112488391D02*
X235307200Y-112491901D01*
X235330404Y-112497713D01*
X235352926Y-112505771D01*
X235374550Y-112515999D01*
X235395067Y-112528296D01*
X235414280Y-112542546D01*
X235432004Y-112558610D01*
X235448068Y-112576334D01*
X235462318Y-112595547D01*
X235474615Y-112616064D01*
X235484843Y-112637688D01*
X235492901Y-112660210D01*
X235498713Y-112683414D01*
X235502223Y-112707075D01*
X235503397Y-112730967D01*
X235503397Y-113643467D01*
X235502223Y-113667359D01*
X235498713Y-113691020D01*
X235492901Y-113714224D01*
X235484843Y-113736746D01*
X235474615Y-113758370D01*
X235462318Y-113778887D01*
X235448068Y-113798100D01*
X235432004Y-113815824D01*
X235414280Y-113831888D01*
X235395067Y-113846138D01*
X235374550Y-113858435D01*
X235352926Y-113868663D01*
X235330404Y-113876721D01*
X235307200Y-113882533D01*
X235283539Y-113886043D01*
X235259647Y-113887217D01*
X234772147Y-113887217D01*
X234748255Y-113886043D01*
X234724594Y-113882533D01*
X234701390Y-113876721D01*
X234678868Y-113868663D01*
X234657244Y-113858435D01*
X234636727Y-113846138D01*
X234617514Y-113831888D01*
X234599790Y-113815824D01*
X234583726Y-113798100D01*
X234569476Y-113778887D01*
X234557179Y-113758370D01*
X234546951Y-113736746D01*
X234538893Y-113714224D01*
X234533081Y-113691020D01*
X234529571Y-113667359D01*
X234528397Y-113643467D01*
X234528397Y-112730967D01*
X234529571Y-112707075D01*
X234533081Y-112683414D01*
X234538893Y-112660210D01*
X234546951Y-112637688D01*
X234557179Y-112616064D01*
X234569476Y-112595547D01*
X234583726Y-112576334D01*
X234599790Y-112558610D01*
X234617514Y-112542546D01*
X234636727Y-112528296D01*
X234657244Y-112515999D01*
X234678868Y-112505771D01*
X234701390Y-112497713D01*
X234724594Y-112491901D01*
X234748255Y-112488391D01*
X234772147Y-112487217D01*
X235259647Y-112487217D01*
X235283539Y-112488391D01*
X235283539Y-112488391D01*
G37*
D13*
G04 #@! TD*
G04 #@! TO.P,C2,1*
G04 #@! TO.N,GND*
X235015897Y-113187217D03*
D12*
G04 #@! TO.N,Net-(C2-Pad2)*
G04 #@! TO.C,C2*
G36*
X233408539Y-112488391D02*
X233432200Y-112491901D01*
X233455404Y-112497713D01*
X233477926Y-112505771D01*
X233499550Y-112515999D01*
X233520067Y-112528296D01*
X233539280Y-112542546D01*
X233557004Y-112558610D01*
X233573068Y-112576334D01*
X233587318Y-112595547D01*
X233599615Y-112616064D01*
X233609843Y-112637688D01*
X233617901Y-112660210D01*
X233623713Y-112683414D01*
X233627223Y-112707075D01*
X233628397Y-112730967D01*
X233628397Y-113643467D01*
X233627223Y-113667359D01*
X233623713Y-113691020D01*
X233617901Y-113714224D01*
X233609843Y-113736746D01*
X233599615Y-113758370D01*
X233587318Y-113778887D01*
X233573068Y-113798100D01*
X233557004Y-113815824D01*
X233539280Y-113831888D01*
X233520067Y-113846138D01*
X233499550Y-113858435D01*
X233477926Y-113868663D01*
X233455404Y-113876721D01*
X233432200Y-113882533D01*
X233408539Y-113886043D01*
X233384647Y-113887217D01*
X232897147Y-113887217D01*
X232873255Y-113886043D01*
X232849594Y-113882533D01*
X232826390Y-113876721D01*
X232803868Y-113868663D01*
X232782244Y-113858435D01*
X232761727Y-113846138D01*
X232742514Y-113831888D01*
X232724790Y-113815824D01*
X232708726Y-113798100D01*
X232694476Y-113778887D01*
X232682179Y-113758370D01*
X232671951Y-113736746D01*
X232663893Y-113714224D01*
X232658081Y-113691020D01*
X232654571Y-113667359D01*
X232653397Y-113643467D01*
X232653397Y-112730967D01*
X232654571Y-112707075D01*
X232658081Y-112683414D01*
X232663893Y-112660210D01*
X232671951Y-112637688D01*
X232682179Y-112616064D01*
X232694476Y-112595547D01*
X232708726Y-112576334D01*
X232724790Y-112558610D01*
X232742514Y-112542546D01*
X232761727Y-112528296D01*
X232782244Y-112515999D01*
X232803868Y-112505771D01*
X232826390Y-112497713D01*
X232849594Y-112491901D01*
X232873255Y-112488391D01*
X232897147Y-112487217D01*
X233384647Y-112487217D01*
X233408539Y-112488391D01*
X233408539Y-112488391D01*
G37*
D13*
G04 #@! TD*
G04 #@! TO.P,C2,2*
G04 #@! TO.N,Net-(C2-Pad2)*
X233140897Y-113187217D03*
D12*
G04 #@! TO.N,+6V*
G04 #@! TO.C,C3*
G36*
X233179533Y-97924387D02*
X233203194Y-97927897D01*
X233226398Y-97933709D01*
X233248920Y-97941767D01*
X233270544Y-97951995D01*
X233291061Y-97964292D01*
X233310274Y-97978542D01*
X233327998Y-97994606D01*
X233344062Y-98012330D01*
X233358312Y-98031543D01*
X233370609Y-98052060D01*
X233380837Y-98073684D01*
X233388895Y-98096206D01*
X233394707Y-98119410D01*
X233398217Y-98143071D01*
X233399391Y-98166963D01*
X233399391Y-99079463D01*
X233398217Y-99103355D01*
X233394707Y-99127016D01*
X233388895Y-99150220D01*
X233380837Y-99172742D01*
X233370609Y-99194366D01*
X233358312Y-99214883D01*
X233344062Y-99234096D01*
X233327998Y-99251820D01*
X233310274Y-99267884D01*
X233291061Y-99282134D01*
X233270544Y-99294431D01*
X233248920Y-99304659D01*
X233226398Y-99312717D01*
X233203194Y-99318529D01*
X233179533Y-99322039D01*
X233155641Y-99323213D01*
X232668141Y-99323213D01*
X232644249Y-99322039D01*
X232620588Y-99318529D01*
X232597384Y-99312717D01*
X232574862Y-99304659D01*
X232553238Y-99294431D01*
X232532721Y-99282134D01*
X232513508Y-99267884D01*
X232495784Y-99251820D01*
X232479720Y-99234096D01*
X232465470Y-99214883D01*
X232453173Y-99194366D01*
X232442945Y-99172742D01*
X232434887Y-99150220D01*
X232429075Y-99127016D01*
X232425565Y-99103355D01*
X232424391Y-99079463D01*
X232424391Y-98166963D01*
X232425565Y-98143071D01*
X232429075Y-98119410D01*
X232434887Y-98096206D01*
X232442945Y-98073684D01*
X232453173Y-98052060D01*
X232465470Y-98031543D01*
X232479720Y-98012330D01*
X232495784Y-97994606D01*
X232513508Y-97978542D01*
X232532721Y-97964292D01*
X232553238Y-97951995D01*
X232574862Y-97941767D01*
X232597384Y-97933709D01*
X232620588Y-97927897D01*
X232644249Y-97924387D01*
X232668141Y-97923213D01*
X233155641Y-97923213D01*
X233179533Y-97924387D01*
X233179533Y-97924387D01*
G37*
D13*
G04 #@! TD*
G04 #@! TO.P,C3,2*
G04 #@! TO.N,+6V*
X232911891Y-98623213D03*
D12*
G04 #@! TO.N,GND*
G04 #@! TO.C,C3*
G36*
X235054533Y-97924387D02*
X235078194Y-97927897D01*
X235101398Y-97933709D01*
X235123920Y-97941767D01*
X235145544Y-97951995D01*
X235166061Y-97964292D01*
X235185274Y-97978542D01*
X235202998Y-97994606D01*
X235219062Y-98012330D01*
X235233312Y-98031543D01*
X235245609Y-98052060D01*
X235255837Y-98073684D01*
X235263895Y-98096206D01*
X235269707Y-98119410D01*
X235273217Y-98143071D01*
X235274391Y-98166963D01*
X235274391Y-99079463D01*
X235273217Y-99103355D01*
X235269707Y-99127016D01*
X235263895Y-99150220D01*
X235255837Y-99172742D01*
X235245609Y-99194366D01*
X235233312Y-99214883D01*
X235219062Y-99234096D01*
X235202998Y-99251820D01*
X235185274Y-99267884D01*
X235166061Y-99282134D01*
X235145544Y-99294431D01*
X235123920Y-99304659D01*
X235101398Y-99312717D01*
X235078194Y-99318529D01*
X235054533Y-99322039D01*
X235030641Y-99323213D01*
X234543141Y-99323213D01*
X234519249Y-99322039D01*
X234495588Y-99318529D01*
X234472384Y-99312717D01*
X234449862Y-99304659D01*
X234428238Y-99294431D01*
X234407721Y-99282134D01*
X234388508Y-99267884D01*
X234370784Y-99251820D01*
X234354720Y-99234096D01*
X234340470Y-99214883D01*
X234328173Y-99194366D01*
X234317945Y-99172742D01*
X234309887Y-99150220D01*
X234304075Y-99127016D01*
X234300565Y-99103355D01*
X234299391Y-99079463D01*
X234299391Y-98166963D01*
X234300565Y-98143071D01*
X234304075Y-98119410D01*
X234309887Y-98096206D01*
X234317945Y-98073684D01*
X234328173Y-98052060D01*
X234340470Y-98031543D01*
X234354720Y-98012330D01*
X234370784Y-97994606D01*
X234388508Y-97978542D01*
X234407721Y-97964292D01*
X234428238Y-97951995D01*
X234449862Y-97941767D01*
X234472384Y-97933709D01*
X234495588Y-97927897D01*
X234519249Y-97924387D01*
X234543141Y-97923213D01*
X235030641Y-97923213D01*
X235054533Y-97924387D01*
X235054533Y-97924387D01*
G37*
D13*
G04 #@! TD*
G04 #@! TO.P,C3,1*
G04 #@! TO.N,GND*
X234786891Y-98623213D03*
D12*
G04 #@! TO.N,GND*
G04 #@! TO.C,C4*
G36*
X235156539Y-68800391D02*
X235180200Y-68803901D01*
X235203404Y-68809713D01*
X235225926Y-68817771D01*
X235247550Y-68827999D01*
X235268067Y-68840296D01*
X235287280Y-68854546D01*
X235305004Y-68870610D01*
X235321068Y-68888334D01*
X235335318Y-68907547D01*
X235347615Y-68928064D01*
X235357843Y-68949688D01*
X235365901Y-68972210D01*
X235371713Y-68995414D01*
X235375223Y-69019075D01*
X235376397Y-69042967D01*
X235376397Y-69955467D01*
X235375223Y-69979359D01*
X235371713Y-70003020D01*
X235365901Y-70026224D01*
X235357843Y-70048746D01*
X235347615Y-70070370D01*
X235335318Y-70090887D01*
X235321068Y-70110100D01*
X235305004Y-70127824D01*
X235287280Y-70143888D01*
X235268067Y-70158138D01*
X235247550Y-70170435D01*
X235225926Y-70180663D01*
X235203404Y-70188721D01*
X235180200Y-70194533D01*
X235156539Y-70198043D01*
X235132647Y-70199217D01*
X234645147Y-70199217D01*
X234621255Y-70198043D01*
X234597594Y-70194533D01*
X234574390Y-70188721D01*
X234551868Y-70180663D01*
X234530244Y-70170435D01*
X234509727Y-70158138D01*
X234490514Y-70143888D01*
X234472790Y-70127824D01*
X234456726Y-70110100D01*
X234442476Y-70090887D01*
X234430179Y-70070370D01*
X234419951Y-70048746D01*
X234411893Y-70026224D01*
X234406081Y-70003020D01*
X234402571Y-69979359D01*
X234401397Y-69955467D01*
X234401397Y-69042967D01*
X234402571Y-69019075D01*
X234406081Y-68995414D01*
X234411893Y-68972210D01*
X234419951Y-68949688D01*
X234430179Y-68928064D01*
X234442476Y-68907547D01*
X234456726Y-68888334D01*
X234472790Y-68870610D01*
X234490514Y-68854546D01*
X234509727Y-68840296D01*
X234530244Y-68827999D01*
X234551868Y-68817771D01*
X234574390Y-68809713D01*
X234597594Y-68803901D01*
X234621255Y-68800391D01*
X234645147Y-68799217D01*
X235132647Y-68799217D01*
X235156539Y-68800391D01*
X235156539Y-68800391D01*
G37*
D13*
G04 #@! TD*
G04 #@! TO.P,C4,1*
G04 #@! TO.N,GND*
X234888897Y-69499217D03*
D12*
G04 #@! TO.N,+6V*
G04 #@! TO.C,C4*
G36*
X233281539Y-68800391D02*
X233305200Y-68803901D01*
X233328404Y-68809713D01*
X233350926Y-68817771D01*
X233372550Y-68827999D01*
X233393067Y-68840296D01*
X233412280Y-68854546D01*
X233430004Y-68870610D01*
X233446068Y-68888334D01*
X233460318Y-68907547D01*
X233472615Y-68928064D01*
X233482843Y-68949688D01*
X233490901Y-68972210D01*
X233496713Y-68995414D01*
X233500223Y-69019075D01*
X233501397Y-69042967D01*
X233501397Y-69955467D01*
X233500223Y-69979359D01*
X233496713Y-70003020D01*
X233490901Y-70026224D01*
X233482843Y-70048746D01*
X233472615Y-70070370D01*
X233460318Y-70090887D01*
X233446068Y-70110100D01*
X233430004Y-70127824D01*
X233412280Y-70143888D01*
X233393067Y-70158138D01*
X233372550Y-70170435D01*
X233350926Y-70180663D01*
X233328404Y-70188721D01*
X233305200Y-70194533D01*
X233281539Y-70198043D01*
X233257647Y-70199217D01*
X232770147Y-70199217D01*
X232746255Y-70198043D01*
X232722594Y-70194533D01*
X232699390Y-70188721D01*
X232676868Y-70180663D01*
X232655244Y-70170435D01*
X232634727Y-70158138D01*
X232615514Y-70143888D01*
X232597790Y-70127824D01*
X232581726Y-70110100D01*
X232567476Y-70090887D01*
X232555179Y-70070370D01*
X232544951Y-70048746D01*
X232536893Y-70026224D01*
X232531081Y-70003020D01*
X232527571Y-69979359D01*
X232526397Y-69955467D01*
X232526397Y-69042967D01*
X232527571Y-69019075D01*
X232531081Y-68995414D01*
X232536893Y-68972210D01*
X232544951Y-68949688D01*
X232555179Y-68928064D01*
X232567476Y-68907547D01*
X232581726Y-68888334D01*
X232597790Y-68870610D01*
X232615514Y-68854546D01*
X232634727Y-68840296D01*
X232655244Y-68827999D01*
X232676868Y-68817771D01*
X232699390Y-68809713D01*
X232722594Y-68803901D01*
X232746255Y-68800391D01*
X232770147Y-68799217D01*
X233257647Y-68799217D01*
X233281539Y-68800391D01*
X233281539Y-68800391D01*
G37*
D13*
G04 #@! TD*
G04 #@! TO.P,C4,2*
G04 #@! TO.N,+6V*
X233013897Y-69499217D03*
D14*
G04 #@! TO.P,D1,2*
G04 #@! TO.N,Net-(D1-Pad2)*
X216933397Y-113187217D03*
D15*
G04 #@! TO.P,D1,1*
G04 #@! TO.N,Net-(C2-Pad2)*
X227093397Y-113187217D03*
G04 #@! TD*
D16*
G04 #@! TO.P,D2,2*
G04 #@! TO.N,Net-(D2-Pad2)*
X227245391Y-90241213D03*
D17*
G04 #@! TO.P,D2,1*
G04 #@! TO.N,GND*
X224705391Y-90241213D03*
G04 #@! TD*
D12*
G04 #@! TO.N,+6V*
G04 #@! TO.C,R1*
G36*
X228780039Y-64982391D02*
X228803700Y-64985901D01*
X228826904Y-64991713D01*
X228849426Y-64999771D01*
X228871050Y-65009999D01*
X228891567Y-65022296D01*
X228910780Y-65036546D01*
X228928504Y-65052610D01*
X228944568Y-65070334D01*
X228958818Y-65089547D01*
X228971115Y-65110064D01*
X228981343Y-65131688D01*
X228989401Y-65154210D01*
X228995213Y-65177414D01*
X228998723Y-65201075D01*
X228999897Y-65224967D01*
X228999897Y-65712467D01*
X228998723Y-65736359D01*
X228995213Y-65760020D01*
X228989401Y-65783224D01*
X228981343Y-65805746D01*
X228971115Y-65827370D01*
X228958818Y-65847887D01*
X228944568Y-65867100D01*
X228928504Y-65884824D01*
X228910780Y-65900888D01*
X228891567Y-65915138D01*
X228871050Y-65927435D01*
X228849426Y-65937663D01*
X228826904Y-65945721D01*
X228803700Y-65951533D01*
X228780039Y-65955043D01*
X228756147Y-65956217D01*
X227843647Y-65956217D01*
X227819755Y-65955043D01*
X227796094Y-65951533D01*
X227772890Y-65945721D01*
X227750368Y-65937663D01*
X227728744Y-65927435D01*
X227708227Y-65915138D01*
X227689014Y-65900888D01*
X227671290Y-65884824D01*
X227655226Y-65867100D01*
X227640976Y-65847887D01*
X227628679Y-65827370D01*
X227618451Y-65805746D01*
X227610393Y-65783224D01*
X227604581Y-65760020D01*
X227601071Y-65736359D01*
X227599897Y-65712467D01*
X227599897Y-65224967D01*
X227601071Y-65201075D01*
X227604581Y-65177414D01*
X227610393Y-65154210D01*
X227618451Y-65131688D01*
X227628679Y-65110064D01*
X227640976Y-65089547D01*
X227655226Y-65070334D01*
X227671290Y-65052610D01*
X227689014Y-65036546D01*
X227708227Y-65022296D01*
X227728744Y-65009999D01*
X227750368Y-64999771D01*
X227772890Y-64991713D01*
X227796094Y-64985901D01*
X227819755Y-64982391D01*
X227843647Y-64981217D01*
X228756147Y-64981217D01*
X228780039Y-64982391D01*
X228780039Y-64982391D01*
G37*
D13*
G04 #@! TD*
G04 #@! TO.P,R1,1*
G04 #@! TO.N,+6V*
X228299897Y-65468717D03*
D12*
G04 #@! TO.N,Net-(C1-Pad1)*
G04 #@! TO.C,R1*
G36*
X228780039Y-63107391D02*
X228803700Y-63110901D01*
X228826904Y-63116713D01*
X228849426Y-63124771D01*
X228871050Y-63134999D01*
X228891567Y-63147296D01*
X228910780Y-63161546D01*
X228928504Y-63177610D01*
X228944568Y-63195334D01*
X228958818Y-63214547D01*
X228971115Y-63235064D01*
X228981343Y-63256688D01*
X228989401Y-63279210D01*
X228995213Y-63302414D01*
X228998723Y-63326075D01*
X228999897Y-63349967D01*
X228999897Y-63837467D01*
X228998723Y-63861359D01*
X228995213Y-63885020D01*
X228989401Y-63908224D01*
X228981343Y-63930746D01*
X228971115Y-63952370D01*
X228958818Y-63972887D01*
X228944568Y-63992100D01*
X228928504Y-64009824D01*
X228910780Y-64025888D01*
X228891567Y-64040138D01*
X228871050Y-64052435D01*
X228849426Y-64062663D01*
X228826904Y-64070721D01*
X228803700Y-64076533D01*
X228780039Y-64080043D01*
X228756147Y-64081217D01*
X227843647Y-64081217D01*
X227819755Y-64080043D01*
X227796094Y-64076533D01*
X227772890Y-64070721D01*
X227750368Y-64062663D01*
X227728744Y-64052435D01*
X227708227Y-64040138D01*
X227689014Y-64025888D01*
X227671290Y-64009824D01*
X227655226Y-63992100D01*
X227640976Y-63972887D01*
X227628679Y-63952370D01*
X227618451Y-63930746D01*
X227610393Y-63908224D01*
X227604581Y-63885020D01*
X227601071Y-63861359D01*
X227599897Y-63837467D01*
X227599897Y-63349967D01*
X227601071Y-63326075D01*
X227604581Y-63302414D01*
X227610393Y-63279210D01*
X227618451Y-63256688D01*
X227628679Y-63235064D01*
X227640976Y-63214547D01*
X227655226Y-63195334D01*
X227671290Y-63177610D01*
X227689014Y-63161546D01*
X227708227Y-63147296D01*
X227728744Y-63134999D01*
X227750368Y-63124771D01*
X227772890Y-63116713D01*
X227796094Y-63110901D01*
X227819755Y-63107391D01*
X227843647Y-63106217D01*
X228756147Y-63106217D01*
X228780039Y-63107391D01*
X228780039Y-63107391D01*
G37*
D13*
G04 #@! TD*
G04 #@! TO.P,R1,2*
G04 #@! TO.N,Net-(C1-Pad1)*
X228299897Y-63593717D03*
D12*
G04 #@! TO.N,GND*
G04 #@! TO.C,R2*
G36*
X228818139Y-53417291D02*
X228841800Y-53420801D01*
X228865004Y-53426613D01*
X228887526Y-53434671D01*
X228909150Y-53444899D01*
X228929667Y-53457196D01*
X228948880Y-53471446D01*
X228966604Y-53487510D01*
X228982668Y-53505234D01*
X228996918Y-53524447D01*
X229009215Y-53544964D01*
X229019443Y-53566588D01*
X229027501Y-53589110D01*
X229033313Y-53612314D01*
X229036823Y-53635975D01*
X229037997Y-53659867D01*
X229037997Y-54147367D01*
X229036823Y-54171259D01*
X229033313Y-54194920D01*
X229027501Y-54218124D01*
X229019443Y-54240646D01*
X229009215Y-54262270D01*
X228996918Y-54282787D01*
X228982668Y-54302000D01*
X228966604Y-54319724D01*
X228948880Y-54335788D01*
X228929667Y-54350038D01*
X228909150Y-54362335D01*
X228887526Y-54372563D01*
X228865004Y-54380621D01*
X228841800Y-54386433D01*
X228818139Y-54389943D01*
X228794247Y-54391117D01*
X227881747Y-54391117D01*
X227857855Y-54389943D01*
X227834194Y-54386433D01*
X227810990Y-54380621D01*
X227788468Y-54372563D01*
X227766844Y-54362335D01*
X227746327Y-54350038D01*
X227727114Y-54335788D01*
X227709390Y-54319724D01*
X227693326Y-54302000D01*
X227679076Y-54282787D01*
X227666779Y-54262270D01*
X227656551Y-54240646D01*
X227648493Y-54218124D01*
X227642681Y-54194920D01*
X227639171Y-54171259D01*
X227637997Y-54147367D01*
X227637997Y-53659867D01*
X227639171Y-53635975D01*
X227642681Y-53612314D01*
X227648493Y-53589110D01*
X227656551Y-53566588D01*
X227666779Y-53544964D01*
X227679076Y-53524447D01*
X227693326Y-53505234D01*
X227709390Y-53487510D01*
X227727114Y-53471446D01*
X227746327Y-53457196D01*
X227766844Y-53444899D01*
X227788468Y-53434671D01*
X227810990Y-53426613D01*
X227834194Y-53420801D01*
X227857855Y-53417291D01*
X227881747Y-53416117D01*
X228794247Y-53416117D01*
X228818139Y-53417291D01*
X228818139Y-53417291D01*
G37*
D13*
G04 #@! TD*
G04 #@! TO.P,R2,2*
G04 #@! TO.N,GND*
X228337997Y-53903617D03*
D12*
G04 #@! TO.N,Net-(C1-Pad1)*
G04 #@! TO.C,R2*
G36*
X228818139Y-55292291D02*
X228841800Y-55295801D01*
X228865004Y-55301613D01*
X228887526Y-55309671D01*
X228909150Y-55319899D01*
X228929667Y-55332196D01*
X228948880Y-55346446D01*
X228966604Y-55362510D01*
X228982668Y-55380234D01*
X228996918Y-55399447D01*
X229009215Y-55419964D01*
X229019443Y-55441588D01*
X229027501Y-55464110D01*
X229033313Y-55487314D01*
X229036823Y-55510975D01*
X229037997Y-55534867D01*
X229037997Y-56022367D01*
X229036823Y-56046259D01*
X229033313Y-56069920D01*
X229027501Y-56093124D01*
X229019443Y-56115646D01*
X229009215Y-56137270D01*
X228996918Y-56157787D01*
X228982668Y-56177000D01*
X228966604Y-56194724D01*
X228948880Y-56210788D01*
X228929667Y-56225038D01*
X228909150Y-56237335D01*
X228887526Y-56247563D01*
X228865004Y-56255621D01*
X228841800Y-56261433D01*
X228818139Y-56264943D01*
X228794247Y-56266117D01*
X227881747Y-56266117D01*
X227857855Y-56264943D01*
X227834194Y-56261433D01*
X227810990Y-56255621D01*
X227788468Y-56247563D01*
X227766844Y-56237335D01*
X227746327Y-56225038D01*
X227727114Y-56210788D01*
X227709390Y-56194724D01*
X227693326Y-56177000D01*
X227679076Y-56157787D01*
X227666779Y-56137270D01*
X227656551Y-56115646D01*
X227648493Y-56093124D01*
X227642681Y-56069920D01*
X227639171Y-56046259D01*
X227637997Y-56022367D01*
X227637997Y-55534867D01*
X227639171Y-55510975D01*
X227642681Y-55487314D01*
X227648493Y-55464110D01*
X227656551Y-55441588D01*
X227666779Y-55419964D01*
X227679076Y-55399447D01*
X227693326Y-55380234D01*
X227709390Y-55362510D01*
X227727114Y-55346446D01*
X227746327Y-55332196D01*
X227766844Y-55319899D01*
X227788468Y-55309671D01*
X227810990Y-55301613D01*
X227834194Y-55295801D01*
X227857855Y-55292291D01*
X227881747Y-55291117D01*
X228794247Y-55291117D01*
X228818139Y-55292291D01*
X228818139Y-55292291D01*
G37*
D13*
G04 #@! TD*
G04 #@! TO.P,R2,1*
G04 #@! TO.N,Net-(C1-Pad1)*
X228337997Y-55778617D03*
D12*
G04 #@! TO.N,Net-(D2-Pad2)*
G04 #@! TO.C,R3*
G36*
X231323033Y-89542387D02*
X231346694Y-89545897D01*
X231369898Y-89551709D01*
X231392420Y-89559767D01*
X231414044Y-89569995D01*
X231434561Y-89582292D01*
X231453774Y-89596542D01*
X231471498Y-89612606D01*
X231487562Y-89630330D01*
X231501812Y-89649543D01*
X231514109Y-89670060D01*
X231524337Y-89691684D01*
X231532395Y-89714206D01*
X231538207Y-89737410D01*
X231541717Y-89761071D01*
X231542891Y-89784963D01*
X231542891Y-90697463D01*
X231541717Y-90721355D01*
X231538207Y-90745016D01*
X231532395Y-90768220D01*
X231524337Y-90790742D01*
X231514109Y-90812366D01*
X231501812Y-90832883D01*
X231487562Y-90852096D01*
X231471498Y-90869820D01*
X231453774Y-90885884D01*
X231434561Y-90900134D01*
X231414044Y-90912431D01*
X231392420Y-90922659D01*
X231369898Y-90930717D01*
X231346694Y-90936529D01*
X231323033Y-90940039D01*
X231299141Y-90941213D01*
X230811641Y-90941213D01*
X230787749Y-90940039D01*
X230764088Y-90936529D01*
X230740884Y-90930717D01*
X230718362Y-90922659D01*
X230696738Y-90912431D01*
X230676221Y-90900134D01*
X230657008Y-90885884D01*
X230639284Y-90869820D01*
X230623220Y-90852096D01*
X230608970Y-90832883D01*
X230596673Y-90812366D01*
X230586445Y-90790742D01*
X230578387Y-90768220D01*
X230572575Y-90745016D01*
X230569065Y-90721355D01*
X230567891Y-90697463D01*
X230567891Y-89784963D01*
X230569065Y-89761071D01*
X230572575Y-89737410D01*
X230578387Y-89714206D01*
X230586445Y-89691684D01*
X230596673Y-89670060D01*
X230608970Y-89649543D01*
X230623220Y-89630330D01*
X230639284Y-89612606D01*
X230657008Y-89596542D01*
X230676221Y-89582292D01*
X230696738Y-89569995D01*
X230718362Y-89559767D01*
X230740884Y-89551709D01*
X230764088Y-89545897D01*
X230787749Y-89542387D01*
X230811641Y-89541213D01*
X231299141Y-89541213D01*
X231323033Y-89542387D01*
X231323033Y-89542387D01*
G37*
D13*
G04 #@! TD*
G04 #@! TO.P,R3,1*
G04 #@! TO.N,Net-(D2-Pad2)*
X231055391Y-90241213D03*
D12*
G04 #@! TO.N,+6V*
G04 #@! TO.C,R3*
G36*
X233198033Y-89542387D02*
X233221694Y-89545897D01*
X233244898Y-89551709D01*
X233267420Y-89559767D01*
X233289044Y-89569995D01*
X233309561Y-89582292D01*
X233328774Y-89596542D01*
X233346498Y-89612606D01*
X233362562Y-89630330D01*
X233376812Y-89649543D01*
X233389109Y-89670060D01*
X233399337Y-89691684D01*
X233407395Y-89714206D01*
X233413207Y-89737410D01*
X233416717Y-89761071D01*
X233417891Y-89784963D01*
X233417891Y-90697463D01*
X233416717Y-90721355D01*
X233413207Y-90745016D01*
X233407395Y-90768220D01*
X233399337Y-90790742D01*
X233389109Y-90812366D01*
X233376812Y-90832883D01*
X233362562Y-90852096D01*
X233346498Y-90869820D01*
X233328774Y-90885884D01*
X233309561Y-90900134D01*
X233289044Y-90912431D01*
X233267420Y-90922659D01*
X233244898Y-90930717D01*
X233221694Y-90936529D01*
X233198033Y-90940039D01*
X233174141Y-90941213D01*
X232686641Y-90941213D01*
X232662749Y-90940039D01*
X232639088Y-90936529D01*
X232615884Y-90930717D01*
X232593362Y-90922659D01*
X232571738Y-90912431D01*
X232551221Y-90900134D01*
X232532008Y-90885884D01*
X232514284Y-90869820D01*
X232498220Y-90852096D01*
X232483970Y-90832883D01*
X232471673Y-90812366D01*
X232461445Y-90790742D01*
X232453387Y-90768220D01*
X232447575Y-90745016D01*
X232444065Y-90721355D01*
X232442891Y-90697463D01*
X232442891Y-89784963D01*
X232444065Y-89761071D01*
X232447575Y-89737410D01*
X232453387Y-89714206D01*
X232461445Y-89691684D01*
X232471673Y-89670060D01*
X232483970Y-89649543D01*
X232498220Y-89630330D01*
X232514284Y-89612606D01*
X232532008Y-89596542D01*
X232551221Y-89582292D01*
X232571738Y-89569995D01*
X232593362Y-89559767D01*
X232615884Y-89551709D01*
X232639088Y-89545897D01*
X232662749Y-89542387D01*
X232686641Y-89541213D01*
X233174141Y-89541213D01*
X233198033Y-89542387D01*
X233198033Y-89542387D01*
G37*
D13*
G04 #@! TD*
G04 #@! TO.P,R3,2*
G04 #@! TO.N,+6V*
X232930391Y-90241213D03*
D12*
G04 #@! TO.N,Net-(J3-Pad1)*
G04 #@! TO.C,R5*
G36*
X253857642Y-62912174D02*
X253881303Y-62915684D01*
X253904507Y-62921496D01*
X253927029Y-62929554D01*
X253948653Y-62939782D01*
X253969170Y-62952079D01*
X253988383Y-62966329D01*
X254006107Y-62982393D01*
X254022171Y-63000117D01*
X254036421Y-63019330D01*
X254048718Y-63039847D01*
X254058946Y-63061471D01*
X254067004Y-63083993D01*
X254072816Y-63107197D01*
X254076326Y-63130858D01*
X254077500Y-63154750D01*
X254077500Y-64067250D01*
X254076326Y-64091142D01*
X254072816Y-64114803D01*
X254067004Y-64138007D01*
X254058946Y-64160529D01*
X254048718Y-64182153D01*
X254036421Y-64202670D01*
X254022171Y-64221883D01*
X254006107Y-64239607D01*
X253988383Y-64255671D01*
X253969170Y-64269921D01*
X253948653Y-64282218D01*
X253927029Y-64292446D01*
X253904507Y-64300504D01*
X253881303Y-64306316D01*
X253857642Y-64309826D01*
X253833750Y-64311000D01*
X253346250Y-64311000D01*
X253322358Y-64309826D01*
X253298697Y-64306316D01*
X253275493Y-64300504D01*
X253252971Y-64292446D01*
X253231347Y-64282218D01*
X253210830Y-64269921D01*
X253191617Y-64255671D01*
X253173893Y-64239607D01*
X253157829Y-64221883D01*
X253143579Y-64202670D01*
X253131282Y-64182153D01*
X253121054Y-64160529D01*
X253112996Y-64138007D01*
X253107184Y-64114803D01*
X253103674Y-64091142D01*
X253102500Y-64067250D01*
X253102500Y-63154750D01*
X253103674Y-63130858D01*
X253107184Y-63107197D01*
X253112996Y-63083993D01*
X253121054Y-63061471D01*
X253131282Y-63039847D01*
X253143579Y-63019330D01*
X253157829Y-63000117D01*
X253173893Y-62982393D01*
X253191617Y-62966329D01*
X253210830Y-62952079D01*
X253231347Y-62939782D01*
X253252971Y-62929554D01*
X253275493Y-62921496D01*
X253298697Y-62915684D01*
X253322358Y-62912174D01*
X253346250Y-62911000D01*
X253833750Y-62911000D01*
X253857642Y-62912174D01*
X253857642Y-62912174D01*
G37*
D13*
G04 #@! TD*
G04 #@! TO.P,R5,1*
G04 #@! TO.N,Net-(J3-Pad1)*
X253590000Y-63611000D03*
D12*
G04 #@! TO.N,Net-(JP4-Pad2)*
G04 #@! TO.C,R5*
G36*
X251982642Y-62912174D02*
X252006303Y-62915684D01*
X252029507Y-62921496D01*
X252052029Y-62929554D01*
X252073653Y-62939782D01*
X252094170Y-62952079D01*
X252113383Y-62966329D01*
X252131107Y-62982393D01*
X252147171Y-63000117D01*
X252161421Y-63019330D01*
X252173718Y-63039847D01*
X252183946Y-63061471D01*
X252192004Y-63083993D01*
X252197816Y-63107197D01*
X252201326Y-63130858D01*
X252202500Y-63154750D01*
X252202500Y-64067250D01*
X252201326Y-64091142D01*
X252197816Y-64114803D01*
X252192004Y-64138007D01*
X252183946Y-64160529D01*
X252173718Y-64182153D01*
X252161421Y-64202670D01*
X252147171Y-64221883D01*
X252131107Y-64239607D01*
X252113383Y-64255671D01*
X252094170Y-64269921D01*
X252073653Y-64282218D01*
X252052029Y-64292446D01*
X252029507Y-64300504D01*
X252006303Y-64306316D01*
X251982642Y-64309826D01*
X251958750Y-64311000D01*
X251471250Y-64311000D01*
X251447358Y-64309826D01*
X251423697Y-64306316D01*
X251400493Y-64300504D01*
X251377971Y-64292446D01*
X251356347Y-64282218D01*
X251335830Y-64269921D01*
X251316617Y-64255671D01*
X251298893Y-64239607D01*
X251282829Y-64221883D01*
X251268579Y-64202670D01*
X251256282Y-64182153D01*
X251246054Y-64160529D01*
X251237996Y-64138007D01*
X251232184Y-64114803D01*
X251228674Y-64091142D01*
X251227500Y-64067250D01*
X251227500Y-63154750D01*
X251228674Y-63130858D01*
X251232184Y-63107197D01*
X251237996Y-63083993D01*
X251246054Y-63061471D01*
X251256282Y-63039847D01*
X251268579Y-63019330D01*
X251282829Y-63000117D01*
X251298893Y-62982393D01*
X251316617Y-62966329D01*
X251335830Y-62952079D01*
X251356347Y-62939782D01*
X251377971Y-62929554D01*
X251400493Y-62921496D01*
X251423697Y-62915684D01*
X251447358Y-62912174D01*
X251471250Y-62911000D01*
X251958750Y-62911000D01*
X251982642Y-62912174D01*
X251982642Y-62912174D01*
G37*
D13*
G04 #@! TD*
G04 #@! TO.P,R5,2*
G04 #@! TO.N,Net-(JP4-Pad2)*
X251715000Y-63611000D03*
D12*
G04 #@! TO.N,Net-(JP5-Pad2)*
G04 #@! TO.C,R6*
G36*
X252026642Y-68638174D02*
X252050303Y-68641684D01*
X252073507Y-68647496D01*
X252096029Y-68655554D01*
X252117653Y-68665782D01*
X252138170Y-68678079D01*
X252157383Y-68692329D01*
X252175107Y-68708393D01*
X252191171Y-68726117D01*
X252205421Y-68745330D01*
X252217718Y-68765847D01*
X252227946Y-68787471D01*
X252236004Y-68809993D01*
X252241816Y-68833197D01*
X252245326Y-68856858D01*
X252246500Y-68880750D01*
X252246500Y-69793250D01*
X252245326Y-69817142D01*
X252241816Y-69840803D01*
X252236004Y-69864007D01*
X252227946Y-69886529D01*
X252217718Y-69908153D01*
X252205421Y-69928670D01*
X252191171Y-69947883D01*
X252175107Y-69965607D01*
X252157383Y-69981671D01*
X252138170Y-69995921D01*
X252117653Y-70008218D01*
X252096029Y-70018446D01*
X252073507Y-70026504D01*
X252050303Y-70032316D01*
X252026642Y-70035826D01*
X252002750Y-70037000D01*
X251515250Y-70037000D01*
X251491358Y-70035826D01*
X251467697Y-70032316D01*
X251444493Y-70026504D01*
X251421971Y-70018446D01*
X251400347Y-70008218D01*
X251379830Y-69995921D01*
X251360617Y-69981671D01*
X251342893Y-69965607D01*
X251326829Y-69947883D01*
X251312579Y-69928670D01*
X251300282Y-69908153D01*
X251290054Y-69886529D01*
X251281996Y-69864007D01*
X251276184Y-69840803D01*
X251272674Y-69817142D01*
X251271500Y-69793250D01*
X251271500Y-68880750D01*
X251272674Y-68856858D01*
X251276184Y-68833197D01*
X251281996Y-68809993D01*
X251290054Y-68787471D01*
X251300282Y-68765847D01*
X251312579Y-68745330D01*
X251326829Y-68726117D01*
X251342893Y-68708393D01*
X251360617Y-68692329D01*
X251379830Y-68678079D01*
X251400347Y-68665782D01*
X251421971Y-68655554D01*
X251444493Y-68647496D01*
X251467697Y-68641684D01*
X251491358Y-68638174D01*
X251515250Y-68637000D01*
X252002750Y-68637000D01*
X252026642Y-68638174D01*
X252026642Y-68638174D01*
G37*
D13*
G04 #@! TD*
G04 #@! TO.P,R6,2*
G04 #@! TO.N,Net-(JP5-Pad2)*
X251759000Y-69337000D03*
D12*
G04 #@! TO.N,Net-(J3-Pad1)*
G04 #@! TO.C,R6*
G36*
X253901642Y-68638174D02*
X253925303Y-68641684D01*
X253948507Y-68647496D01*
X253971029Y-68655554D01*
X253992653Y-68665782D01*
X254013170Y-68678079D01*
X254032383Y-68692329D01*
X254050107Y-68708393D01*
X254066171Y-68726117D01*
X254080421Y-68745330D01*
X254092718Y-68765847D01*
X254102946Y-68787471D01*
X254111004Y-68809993D01*
X254116816Y-68833197D01*
X254120326Y-68856858D01*
X254121500Y-68880750D01*
X254121500Y-69793250D01*
X254120326Y-69817142D01*
X254116816Y-69840803D01*
X254111004Y-69864007D01*
X254102946Y-69886529D01*
X254092718Y-69908153D01*
X254080421Y-69928670D01*
X254066171Y-69947883D01*
X254050107Y-69965607D01*
X254032383Y-69981671D01*
X254013170Y-69995921D01*
X253992653Y-70008218D01*
X253971029Y-70018446D01*
X253948507Y-70026504D01*
X253925303Y-70032316D01*
X253901642Y-70035826D01*
X253877750Y-70037000D01*
X253390250Y-70037000D01*
X253366358Y-70035826D01*
X253342697Y-70032316D01*
X253319493Y-70026504D01*
X253296971Y-70018446D01*
X253275347Y-70008218D01*
X253254830Y-69995921D01*
X253235617Y-69981671D01*
X253217893Y-69965607D01*
X253201829Y-69947883D01*
X253187579Y-69928670D01*
X253175282Y-69908153D01*
X253165054Y-69886529D01*
X253156996Y-69864007D01*
X253151184Y-69840803D01*
X253147674Y-69817142D01*
X253146500Y-69793250D01*
X253146500Y-68880750D01*
X253147674Y-68856858D01*
X253151184Y-68833197D01*
X253156996Y-68809993D01*
X253165054Y-68787471D01*
X253175282Y-68765847D01*
X253187579Y-68745330D01*
X253201829Y-68726117D01*
X253217893Y-68708393D01*
X253235617Y-68692329D01*
X253254830Y-68678079D01*
X253275347Y-68665782D01*
X253296971Y-68655554D01*
X253319493Y-68647496D01*
X253342697Y-68641684D01*
X253366358Y-68638174D01*
X253390250Y-68637000D01*
X253877750Y-68637000D01*
X253901642Y-68638174D01*
X253901642Y-68638174D01*
G37*
D13*
G04 #@! TD*
G04 #@! TO.P,R6,1*
G04 #@! TO.N,Net-(J3-Pad1)*
X253634000Y-69337000D03*
D12*
G04 #@! TO.N,Net-(J3-Pad1)*
G04 #@! TO.C,R7*
G36*
X256849804Y-57366824D02*
X256873465Y-57370334D01*
X256896669Y-57376146D01*
X256919191Y-57384204D01*
X256940815Y-57394432D01*
X256961332Y-57406729D01*
X256980545Y-57420979D01*
X256998269Y-57437043D01*
X257014333Y-57454767D01*
X257028583Y-57473980D01*
X257040880Y-57494497D01*
X257051108Y-57516121D01*
X257059166Y-57538643D01*
X257064978Y-57561847D01*
X257068488Y-57585508D01*
X257069662Y-57609400D01*
X257069662Y-58096900D01*
X257068488Y-58120792D01*
X257064978Y-58144453D01*
X257059166Y-58167657D01*
X257051108Y-58190179D01*
X257040880Y-58211803D01*
X257028583Y-58232320D01*
X257014333Y-58251533D01*
X256998269Y-58269257D01*
X256980545Y-58285321D01*
X256961332Y-58299571D01*
X256940815Y-58311868D01*
X256919191Y-58322096D01*
X256896669Y-58330154D01*
X256873465Y-58335966D01*
X256849804Y-58339476D01*
X256825912Y-58340650D01*
X255913412Y-58340650D01*
X255889520Y-58339476D01*
X255865859Y-58335966D01*
X255842655Y-58330154D01*
X255820133Y-58322096D01*
X255798509Y-58311868D01*
X255777992Y-58299571D01*
X255758779Y-58285321D01*
X255741055Y-58269257D01*
X255724991Y-58251533D01*
X255710741Y-58232320D01*
X255698444Y-58211803D01*
X255688216Y-58190179D01*
X255680158Y-58167657D01*
X255674346Y-58144453D01*
X255670836Y-58120792D01*
X255669662Y-58096900D01*
X255669662Y-57609400D01*
X255670836Y-57585508D01*
X255674346Y-57561847D01*
X255680158Y-57538643D01*
X255688216Y-57516121D01*
X255698444Y-57494497D01*
X255710741Y-57473980D01*
X255724991Y-57454767D01*
X255741055Y-57437043D01*
X255758779Y-57420979D01*
X255777992Y-57406729D01*
X255798509Y-57394432D01*
X255820133Y-57384204D01*
X255842655Y-57376146D01*
X255865859Y-57370334D01*
X255889520Y-57366824D01*
X255913412Y-57365650D01*
X256825912Y-57365650D01*
X256849804Y-57366824D01*
X256849804Y-57366824D01*
G37*
D13*
G04 #@! TD*
G04 #@! TO.P,R7,1*
G04 #@! TO.N,Net-(J3-Pad1)*
X256369662Y-57853150D03*
D12*
G04 #@! TO.N,Net-(J4-Pad1)*
G04 #@! TO.C,R7*
G36*
X256849804Y-55491824D02*
X256873465Y-55495334D01*
X256896669Y-55501146D01*
X256919191Y-55509204D01*
X256940815Y-55519432D01*
X256961332Y-55531729D01*
X256980545Y-55545979D01*
X256998269Y-55562043D01*
X257014333Y-55579767D01*
X257028583Y-55598980D01*
X257040880Y-55619497D01*
X257051108Y-55641121D01*
X257059166Y-55663643D01*
X257064978Y-55686847D01*
X257068488Y-55710508D01*
X257069662Y-55734400D01*
X257069662Y-56221900D01*
X257068488Y-56245792D01*
X257064978Y-56269453D01*
X257059166Y-56292657D01*
X257051108Y-56315179D01*
X257040880Y-56336803D01*
X257028583Y-56357320D01*
X257014333Y-56376533D01*
X256998269Y-56394257D01*
X256980545Y-56410321D01*
X256961332Y-56424571D01*
X256940815Y-56436868D01*
X256919191Y-56447096D01*
X256896669Y-56455154D01*
X256873465Y-56460966D01*
X256849804Y-56464476D01*
X256825912Y-56465650D01*
X255913412Y-56465650D01*
X255889520Y-56464476D01*
X255865859Y-56460966D01*
X255842655Y-56455154D01*
X255820133Y-56447096D01*
X255798509Y-56436868D01*
X255777992Y-56424571D01*
X255758779Y-56410321D01*
X255741055Y-56394257D01*
X255724991Y-56376533D01*
X255710741Y-56357320D01*
X255698444Y-56336803D01*
X255688216Y-56315179D01*
X255680158Y-56292657D01*
X255674346Y-56269453D01*
X255670836Y-56245792D01*
X255669662Y-56221900D01*
X255669662Y-55734400D01*
X255670836Y-55710508D01*
X255674346Y-55686847D01*
X255680158Y-55663643D01*
X255688216Y-55641121D01*
X255698444Y-55619497D01*
X255710741Y-55598980D01*
X255724991Y-55579767D01*
X255741055Y-55562043D01*
X255758779Y-55545979D01*
X255777992Y-55531729D01*
X255798509Y-55519432D01*
X255820133Y-55509204D01*
X255842655Y-55501146D01*
X255865859Y-55495334D01*
X255889520Y-55491824D01*
X255913412Y-55490650D01*
X256825912Y-55490650D01*
X256849804Y-55491824D01*
X256849804Y-55491824D01*
G37*
D13*
G04 #@! TD*
G04 #@! TO.P,R7,2*
G04 #@! TO.N,Net-(J4-Pad1)*
X256369662Y-55978150D03*
D18*
G04 #@! TO.P,U2,1*
G04 #@! TO.N,Net-(C2-Pad2)*
X233087391Y-108295213D03*
D19*
G04 #@! TO.P,U2,2*
G04 #@! TO.N,GND*
X233087391Y-105745213D03*
G04 #@! TO.P,U2,3*
G04 #@! TO.N,+6V*
X233087391Y-103195213D03*
G04 #@! TD*
D20*
G04 #@! TO.P,U1,14*
G04 #@! TO.N,+6V*
X232904507Y-65460910D03*
G04 #@! TO.P,U1,13*
X232904507Y-64190910D03*
G04 #@! TO.P,U1,12*
G04 #@! TO.N,Net-(U1-Pad1)*
X232904507Y-62920910D03*
G04 #@! TO.P,U1,11*
G04 #@! TO.N,Net-(U1-Pad11)*
X232904507Y-61650910D03*
G04 #@! TO.P,U1,10*
G04 #@! TO.N,Net-(C1-Pad1)*
X232904507Y-60380910D03*
G04 #@! TO.P,U1,9*
X232904507Y-59110910D03*
G04 #@! TO.P,U1,8*
G04 #@! TO.N,Net-(U1-Pad1)*
X232904507Y-57840910D03*
G04 #@! TO.P,U1,7*
G04 #@! TO.N,GND*
X237832107Y-57840910D03*
G04 #@! TO.P,U1,6*
G04 #@! TO.N,Net-(JP4-Pad1)*
X237832107Y-59110910D03*
G04 #@! TO.P,U1,5*
G04 #@! TO.N,Net-(U1-Pad3)*
X237832107Y-60380910D03*
G04 #@! TO.P,U1,4*
X237832107Y-61650910D03*
G04 #@! TO.P,U1,3*
X237832107Y-62920910D03*
G04 #@! TO.P,U1,2*
G04 #@! TO.N,Net-(U1-Pad11)*
X237832107Y-64190910D03*
G04 #@! TO.P,U1,1*
G04 #@! TO.N,Net-(U1-Pad1)*
X237832107Y-65460910D03*
G04 #@! TD*
D21*
G04 #@! TO.P,JP3,1*
G04 #@! TO.N,GND*
X245178307Y-51450910D03*
D22*
G04 #@! TO.P,JP3,2*
G04 #@! TO.N,Net-(J3-Pad1)*
X247718307Y-51450910D03*
G04 #@! TD*
D21*
G04 #@! TO.P,JP6,1*
G04 #@! TO.N,Net-(JP4-Pad1)*
X245158307Y-57510910D03*
D22*
G04 #@! TO.P,JP6,2*
G04 #@! TO.N,Net-(J3-Pad1)*
X247698307Y-57510910D03*
G04 #@! TD*
D21*
G04 #@! TO.P,JP4,1*
G04 #@! TO.N,Net-(JP4-Pad1)*
X245168307Y-63470910D03*
D22*
G04 #@! TO.P,JP4,2*
G04 #@! TO.N,Net-(JP4-Pad2)*
X247708307Y-63470910D03*
G04 #@! TD*
D21*
G04 #@! TO.P,JP5,1*
G04 #@! TO.N,Net-(JP4-Pad1)*
X245218307Y-69270910D03*
D22*
G04 #@! TO.P,JP5,2*
G04 #@! TO.N,Net-(JP5-Pad2)*
X247758307Y-69270910D03*
G04 #@! TD*
G04 #@! TO.P,J2,2*
G04 #@! TO.N,GND*
X212778307Y-110650910D03*
D21*
G04 #@! TO.P,J2,1*
G04 #@! TO.N,Net-(D1-Pad2)*
X212778307Y-113190910D03*
G04 #@! TD*
D22*
G04 #@! TO.P,J1,2*
G04 #@! TO.N,GND*
X215958307Y-66880910D03*
D21*
G04 #@! TO.P,J1,1*
G04 #@! TO.N,Net-(J1-Pad1)*
X213418307Y-66880910D03*
G04 #@! TD*
D22*
G04 #@! TO.P,JP1,2*
G04 #@! TO.N,Net-(C1-Pad2)*
X215958307Y-63510910D03*
D21*
G04 #@! TO.P,JP1,1*
G04 #@! TO.N,Net-(J1-Pad1)*
X213418307Y-63510910D03*
G04 #@! TD*
D22*
G04 #@! TO.P,JP2,2*
G04 #@! TO.N,Net-(C1-Pad2)*
X215948307Y-60270910D03*
D21*
G04 #@! TO.P,JP2,1*
G04 #@! TO.N,GND*
X213408307Y-60270910D03*
G04 #@! TD*
D23*
G04 #@! TO.P,J3,2*
G04 #@! TO.N,GND*
X262078307Y-62110910D03*
X262078307Y-53610910D03*
G04 #@! TO.P,J3,1*
G04 #@! TO.N,Net-(J3-Pad1)*
X262078307Y-57860910D03*
G04 #@! TD*
D24*
G04 #@! TO.N,GND*
X219968307Y-104080910D03*
X223778307Y-74930910D03*
X236078307Y-46820910D03*
X218948307Y-52850910D03*
X243148307Y-77310910D03*
X261578307Y-43000910D03*
G04 #@! TD*
D25*
G04 #@! TO.N,Net-(C1-Pad2)*
X215930097Y-63593717D02*
X215930097Y-60291717D01*
X215930097Y-63593717D02*
X218868397Y-63593717D01*
G04 #@! TO.N,Net-(C1-Pad1)*
X232995087Y-59110617D02*
X232995087Y-60380617D01*
X228299897Y-63593717D02*
X220743397Y-63593717D01*
X228299897Y-55816717D02*
X228337997Y-55778617D01*
X228299897Y-63593717D02*
X228299897Y-55816717D01*
X228337997Y-55778617D02*
X234124597Y-55778617D01*
X234124597Y-55778617D02*
X235170597Y-56824617D01*
X235170597Y-56824617D02*
X235170597Y-58501017D01*
X234560997Y-59110617D02*
X232995087Y-59110617D01*
X235170597Y-58501017D02*
X234560997Y-59110617D01*
G04 #@! TO.N,GND*
X238788307Y-57840910D02*
X237832107Y-57840910D01*
G04 #@! TO.N,Net-(C2-Pad2)*
X233087391Y-113133711D02*
X233140897Y-113187217D01*
X233087391Y-108295213D02*
X233087391Y-113133711D01*
X227093397Y-113187217D02*
X233140897Y-113187217D01*
G04 #@! TO.N,Net-(D1-Pad2)*
X213123397Y-113187217D02*
X216933397Y-113187217D01*
G04 #@! TO.N,Net-(D2-Pad2)*
X231055391Y-90241213D02*
X227245391Y-90241213D01*
G04 #@! TO.N,Net-(J1-Pad1)*
X213402797Y-66629017D02*
X213402797Y-63606417D01*
G04 #@! TO.N,Net-(J3-Pad1)*
X256360000Y-57862812D02*
X256369662Y-57853150D01*
X262070547Y-57853150D02*
X262078307Y-57860910D01*
X256369662Y-57853150D02*
X262070547Y-57853150D01*
X253634000Y-69337000D02*
X256002217Y-69337000D01*
X256002217Y-69337000D02*
X256369662Y-68969555D01*
X256369662Y-61930910D02*
X256369662Y-62629555D01*
X256369662Y-68969555D02*
X256369662Y-61930910D01*
X256369662Y-61930910D02*
X256369662Y-57853150D01*
X254571445Y-62629555D02*
X253590000Y-63611000D01*
X256369662Y-62629555D02*
X254571445Y-62629555D01*
X256027422Y-57510910D02*
X256369662Y-57853150D01*
X252778307Y-57510910D02*
X254168307Y-57510910D01*
X247718307Y-51450910D02*
X247718307Y-52450910D01*
X254168307Y-57510910D02*
X256027422Y-57510910D01*
X247718307Y-52450910D02*
X252778307Y-57510910D01*
X247698307Y-57510910D02*
X254168307Y-57510910D01*
G04 #@! TO.N,Net-(J4-Pad1)*
X256360004Y-55968492D02*
X256369662Y-55978150D01*
X256360360Y-55968848D02*
X256369662Y-55978150D01*
D26*
X256360360Y-35140900D02*
X256360360Y-54698848D01*
D25*
G04 #@! TO.N,Net-(JP4-Pad2)*
X251574910Y-63470910D02*
X251715000Y-63611000D01*
X247708307Y-63470910D02*
X251574910Y-63470910D01*
G04 #@! TO.N,Net-(JP5-Pad2)*
X251692910Y-69270910D02*
X251759000Y-69337000D01*
X247758307Y-69270910D02*
X251692910Y-69270910D01*
G04 #@! TO.N,Net-(U1-Pad11)*
X236591507Y-64190910D02*
X237832107Y-64190910D01*
X236155707Y-64190910D02*
X236591507Y-64190910D01*
X233615707Y-61650910D02*
X236155707Y-64190910D01*
X232904507Y-61650910D02*
X233615707Y-61650910D01*
G04 #@! TO.N,Net-(JP4-Pad1)*
X245158307Y-57510910D02*
X243558307Y-59110910D01*
X245168307Y-63470910D02*
X245168307Y-61430910D01*
X245168307Y-61430910D02*
X242848307Y-59110910D01*
X243558307Y-59110910D02*
X242848307Y-59110910D01*
X245218307Y-69270910D02*
X242558307Y-69270910D01*
X240578307Y-67290910D02*
X240578307Y-59110910D01*
X242558307Y-69270910D02*
X240578307Y-67290910D01*
X240578307Y-59110910D02*
X237832107Y-59110910D01*
X242848307Y-59110910D02*
X240578307Y-59110910D01*
D27*
G04 #@! TO.N,+6V*
X233007397Y-90164207D02*
X232930391Y-90241213D01*
X232930391Y-97969713D02*
X232911891Y-97988213D01*
X232930391Y-98604713D02*
X232911891Y-98623213D01*
X232930391Y-90241213D02*
X232930391Y-98604713D01*
X233673891Y-102608713D02*
X233087391Y-103195213D01*
X232930391Y-69582723D02*
X233013897Y-69499217D01*
X232930391Y-90241213D02*
X232930391Y-69582723D01*
X233087391Y-98798713D02*
X232911891Y-98623213D01*
X232911891Y-103019713D02*
X233087391Y-103195213D01*
X232911891Y-98623213D02*
X232911891Y-103019713D01*
X228300397Y-65469217D02*
X228299897Y-65468717D01*
X232995087Y-65460617D02*
X232995087Y-64190617D01*
X228307997Y-65460617D02*
X228299897Y-65468717D01*
X232995087Y-65460617D02*
X228307997Y-65460617D01*
X233013897Y-65479427D02*
X232995087Y-65460617D01*
X233013897Y-69499217D02*
X233013897Y-65479427D01*
D25*
G04 #@! TO.N,Net-(U1-Pad1)*
X231436797Y-62920617D02*
X232995087Y-62920617D01*
X230712897Y-62196717D02*
X231436797Y-62920617D01*
X230712897Y-58564517D02*
X230712897Y-62196717D01*
X231436797Y-57840617D02*
X230712897Y-58564517D01*
X232995087Y-57840617D02*
X231436797Y-57840617D01*
X236155707Y-65460910D02*
X233615707Y-62920910D01*
X233615707Y-62920910D02*
X232904507Y-62920910D01*
X237832107Y-65460910D02*
X236155707Y-65460910D01*
G04 #@! TO.N,Net-(U1-Pad3)*
X237832107Y-60380910D02*
X237832107Y-61650910D01*
X237832107Y-61650910D02*
X237832107Y-62920910D01*
G04 #@! TD*
G04 #@! TO.N,GND*
G36*
X250683307Y-35045160D02*
X250842057Y-35203910D01*
X251941307Y-35203910D01*
X251941307Y-35183910D01*
X252195307Y-35183910D01*
X252195307Y-35203910D01*
X253294557Y-35203910D01*
X253453307Y-35045160D01*
X253453307Y-33290910D01*
X254920867Y-33290910D01*
X254920867Y-33566343D01*
X254839902Y-33620442D01*
X254373786Y-34318035D01*
X254251424Y-34933191D01*
X254251425Y-54906558D01*
X254373787Y-55521714D01*
X254839903Y-56219306D01*
X255049573Y-56359403D01*
X255090060Y-56562944D01*
X255214319Y-56748910D01*
X253093938Y-56748910D01*
X248957210Y-52612183D01*
X249066464Y-52448675D01*
X249115747Y-52200910D01*
X249115747Y-50700910D01*
X249066464Y-50453145D01*
X248926116Y-50243101D01*
X248716072Y-50102753D01*
X248468307Y-50053470D01*
X246968307Y-50053470D01*
X246720542Y-50102753D01*
X246510498Y-50243101D01*
X246370150Y-50453145D01*
X246320867Y-50700910D01*
X246320867Y-50707263D01*
X246149824Y-50658998D01*
X245357912Y-51450910D01*
X246149824Y-52242822D01*
X246320867Y-52194557D01*
X246320867Y-52200910D01*
X246370150Y-52448675D01*
X246510498Y-52658719D01*
X246720542Y-52799067D01*
X246968307Y-52848350D01*
X247067420Y-52848350D01*
X247168937Y-53000281D01*
X247232558Y-53042791D01*
X250938676Y-56748910D01*
X249093360Y-56748910D01*
X249046464Y-56513145D01*
X248906116Y-56303101D01*
X248696072Y-56162753D01*
X248448307Y-56113470D01*
X246948307Y-56113470D01*
X246700542Y-56162753D01*
X246490498Y-56303101D01*
X246350150Y-56513145D01*
X246311838Y-56705754D01*
X245942847Y-56336763D01*
X245433801Y-56125910D01*
X244882813Y-56125910D01*
X244373767Y-56336763D01*
X243984160Y-56726370D01*
X243773307Y-57235416D01*
X243773307Y-57786404D01*
X243782643Y-57808943D01*
X243242677Y-58348910D01*
X242923350Y-58348910D01*
X242848307Y-58333983D01*
X242773264Y-58348910D01*
X240653355Y-58348910D01*
X240578307Y-58333982D01*
X240503259Y-58348910D01*
X239415337Y-58348910D01*
X239457707Y-58246620D01*
X239457707Y-58126660D01*
X239298957Y-57967910D01*
X237959107Y-57967910D01*
X237959107Y-57987910D01*
X237705107Y-57987910D01*
X237705107Y-57967910D01*
X236365257Y-57967910D01*
X236206507Y-58126660D01*
X236206507Y-58246620D01*
X236303180Y-58480009D01*
X236308866Y-58485695D01*
X236243350Y-58583745D01*
X236194067Y-58831510D01*
X236194067Y-59390310D01*
X236243350Y-59638075D01*
X236315404Y-59745910D01*
X236243350Y-59853745D01*
X236194067Y-60101510D01*
X236194067Y-60660310D01*
X236243350Y-60908075D01*
X236315404Y-61015910D01*
X236243350Y-61123745D01*
X236194067Y-61371510D01*
X236194067Y-61930310D01*
X236243350Y-62178075D01*
X236315404Y-62285910D01*
X236243350Y-62393745D01*
X236194067Y-62641510D01*
X236194067Y-63151640D01*
X234542547Y-61500120D01*
X234542547Y-61371510D01*
X234493264Y-61123745D01*
X234421210Y-61015910D01*
X234493264Y-60908075D01*
X234542547Y-60660310D01*
X234542547Y-60101510D01*
X234497474Y-59874908D01*
X234560997Y-59887544D01*
X234636040Y-59872617D01*
X234636045Y-59872617D01*
X234858314Y-59828405D01*
X235110368Y-59659988D01*
X235152880Y-59596364D01*
X235656346Y-59092899D01*
X235719968Y-59050388D01*
X235888385Y-58798334D01*
X235932597Y-58576065D01*
X235932597Y-58576064D01*
X235947525Y-58501017D01*
X235932597Y-58425970D01*
X235932597Y-57435200D01*
X236206507Y-57435200D01*
X236206507Y-57555160D01*
X236365257Y-57713910D01*
X237705107Y-57713910D01*
X237705107Y-57085260D01*
X237959107Y-57085260D01*
X237959107Y-57713910D01*
X239298957Y-57713910D01*
X239457707Y-57555160D01*
X239457707Y-57435200D01*
X239361034Y-57201811D01*
X239182405Y-57023183D01*
X238949016Y-56926510D01*
X238117857Y-56926510D01*
X237959107Y-57085260D01*
X237705107Y-57085260D01*
X237546357Y-56926510D01*
X236715198Y-56926510D01*
X236481809Y-57023183D01*
X236303180Y-57201811D01*
X236206507Y-57435200D01*
X235932597Y-57435200D01*
X235932597Y-56899659D01*
X235947524Y-56824616D01*
X235932597Y-56749573D01*
X235932597Y-56749569D01*
X235888385Y-56527300D01*
X235719968Y-56275246D01*
X235656347Y-56232736D01*
X234716480Y-55292870D01*
X234673968Y-55229246D01*
X234421914Y-55060829D01*
X234199645Y-55016617D01*
X234199640Y-55016617D01*
X234124597Y-55001690D01*
X234049554Y-55016617D01*
X229499193Y-55016617D01*
X229424413Y-54904701D01*
X229423230Y-54903910D01*
X229576324Y-54750815D01*
X229672997Y-54517426D01*
X229672997Y-54189367D01*
X229514247Y-54030617D01*
X228464997Y-54030617D01*
X228464997Y-54050617D01*
X228210997Y-54050617D01*
X228210997Y-54030617D01*
X227161747Y-54030617D01*
X227002997Y-54189367D01*
X227002997Y-54517426D01*
X227099670Y-54750815D01*
X227252764Y-54903910D01*
X227251581Y-54904701D01*
X227058395Y-55193823D01*
X226990557Y-55534867D01*
X226990557Y-56022367D01*
X227058395Y-56363411D01*
X227251581Y-56652533D01*
X227537898Y-56843845D01*
X227537897Y-62519595D01*
X227502603Y-62526615D01*
X227213481Y-62719801D01*
X227138701Y-62831717D01*
X221817519Y-62831717D01*
X221810499Y-62796423D01*
X221617313Y-62507301D01*
X221328191Y-62314115D01*
X220987147Y-62246277D01*
X220499647Y-62246277D01*
X220158603Y-62314115D01*
X219869481Y-62507301D01*
X219805897Y-62602461D01*
X219742313Y-62507301D01*
X219453191Y-62314115D01*
X219112147Y-62246277D01*
X218624647Y-62246277D01*
X218283603Y-62314115D01*
X217994481Y-62507301D01*
X217801295Y-62796423D01*
X217794275Y-62831717D01*
X217355747Y-62831717D01*
X217355747Y-62760910D01*
X217306464Y-62513145D01*
X217166116Y-62303101D01*
X216956072Y-62162753D01*
X216708307Y-62113470D01*
X216692097Y-62113470D01*
X216692097Y-61668350D01*
X216698307Y-61668350D01*
X216946072Y-61619067D01*
X217156116Y-61478719D01*
X217296464Y-61268675D01*
X217345747Y-61020910D01*
X217345747Y-59520910D01*
X217296464Y-59273145D01*
X217156116Y-59063101D01*
X216946072Y-58922753D01*
X216698307Y-58873470D01*
X215198307Y-58873470D01*
X214950542Y-58922753D01*
X214740498Y-59063101D01*
X214600150Y-59273145D01*
X214550867Y-59520910D01*
X214550867Y-59527263D01*
X214379824Y-59478998D01*
X213587912Y-60270910D01*
X214379824Y-61062822D01*
X214550867Y-61014557D01*
X214550867Y-61020910D01*
X214600150Y-61268675D01*
X214740498Y-61478719D01*
X214950542Y-61619067D01*
X215168098Y-61662341D01*
X215168097Y-62121468D01*
X214960542Y-62162753D01*
X214750498Y-62303101D01*
X214610150Y-62513145D01*
X214571838Y-62705754D01*
X214202847Y-62336763D01*
X213693801Y-62125910D01*
X213142813Y-62125910D01*
X212633767Y-62336763D01*
X212244160Y-62726370D01*
X212033307Y-63235416D01*
X212033307Y-63786404D01*
X212244160Y-64295450D01*
X212633767Y-64685057D01*
X212640798Y-64687969D01*
X212640797Y-65703851D01*
X212633767Y-65706763D01*
X212244160Y-66096370D01*
X212033307Y-66605416D01*
X212033307Y-67156404D01*
X212244160Y-67665450D01*
X212633767Y-68055057D01*
X213142813Y-68265910D01*
X213693801Y-68265910D01*
X214202847Y-68055057D01*
X214573307Y-67684597D01*
X214573307Y-67757220D01*
X214669980Y-67990609D01*
X214848609Y-68169237D01*
X215081998Y-68265910D01*
X215672557Y-68265910D01*
X215831307Y-68107160D01*
X215831307Y-67007910D01*
X216085307Y-67007910D01*
X216085307Y-68107160D01*
X216244057Y-68265910D01*
X216834616Y-68265910D01*
X217068005Y-68169237D01*
X217246634Y-67990609D01*
X217343307Y-67757220D01*
X217343307Y-67166660D01*
X217184557Y-67007910D01*
X216085307Y-67007910D01*
X215831307Y-67007910D01*
X215811307Y-67007910D01*
X215811307Y-66753910D01*
X215831307Y-66753910D01*
X215831307Y-65654660D01*
X216085307Y-65654660D01*
X216085307Y-66753910D01*
X217184557Y-66753910D01*
X217343307Y-66595160D01*
X217343307Y-66004600D01*
X217246634Y-65771211D01*
X217068005Y-65592583D01*
X216834616Y-65495910D01*
X216244057Y-65495910D01*
X216085307Y-65654660D01*
X215831307Y-65654660D01*
X215672557Y-65495910D01*
X215081998Y-65495910D01*
X214848609Y-65592583D01*
X214669980Y-65771211D01*
X214573307Y-66004600D01*
X214573307Y-66077223D01*
X214202847Y-65706763D01*
X214164797Y-65691002D01*
X214164797Y-64700818D01*
X214202847Y-64685057D01*
X214571838Y-64316066D01*
X214610150Y-64508675D01*
X214750498Y-64718719D01*
X214960542Y-64859067D01*
X215208307Y-64908350D01*
X216708307Y-64908350D01*
X216956072Y-64859067D01*
X217166116Y-64718719D01*
X217306464Y-64508675D01*
X217336889Y-64355717D01*
X217794275Y-64355717D01*
X217801295Y-64391011D01*
X217994481Y-64680133D01*
X218283603Y-64873319D01*
X218624647Y-64941157D01*
X219112147Y-64941157D01*
X219453191Y-64873319D01*
X219742313Y-64680133D01*
X219805897Y-64584973D01*
X219869481Y-64680133D01*
X220158603Y-64873319D01*
X220499647Y-64941157D01*
X220987147Y-64941157D01*
X221328191Y-64873319D01*
X221617313Y-64680133D01*
X221810499Y-64391011D01*
X221817519Y-64355717D01*
X227138701Y-64355717D01*
X227213481Y-64467633D01*
X227308641Y-64531217D01*
X227213481Y-64594801D01*
X227020295Y-64883923D01*
X226952457Y-65224967D01*
X226952457Y-65712467D01*
X227020295Y-66053511D01*
X227213481Y-66342633D01*
X227502603Y-66535819D01*
X227656582Y-66566447D01*
X227804868Y-66665529D01*
X228300396Y-66764096D01*
X228468706Y-66730617D01*
X231743898Y-66730617D01*
X231743897Y-69072500D01*
X231734079Y-69087194D01*
X231635512Y-69582723D01*
X231660392Y-69707803D01*
X231660391Y-88975112D01*
X231640185Y-88961611D01*
X231299141Y-88893773D01*
X230811641Y-88893773D01*
X230470597Y-88961611D01*
X230181475Y-89154797D01*
X229988289Y-89443919D01*
X229981269Y-89479213D01*
X228591232Y-89479213D01*
X228546701Y-89371706D01*
X228114898Y-88939903D01*
X227550721Y-88706213D01*
X226940061Y-88706213D01*
X226375884Y-88939903D01*
X226199530Y-89116257D01*
X226143718Y-88981514D01*
X225965089Y-88802886D01*
X225731700Y-88706213D01*
X224991141Y-88706213D01*
X224832391Y-88864963D01*
X224832391Y-90114213D01*
X224852391Y-90114213D01*
X224852391Y-90368213D01*
X224832391Y-90368213D01*
X224832391Y-91617463D01*
X224991141Y-91776213D01*
X225731700Y-91776213D01*
X225965089Y-91679540D01*
X226143718Y-91500912D01*
X226199530Y-91366169D01*
X226375884Y-91542523D01*
X226940061Y-91776213D01*
X227550721Y-91776213D01*
X228114898Y-91542523D01*
X228546701Y-91110720D01*
X228591232Y-91003213D01*
X229981269Y-91003213D01*
X229988289Y-91038507D01*
X230181475Y-91327629D01*
X230470597Y-91520815D01*
X230811641Y-91588653D01*
X231299141Y-91588653D01*
X231640185Y-91520815D01*
X231660391Y-91507314D01*
X231660392Y-97770128D01*
X231617012Y-97988213D01*
X231660392Y-98206298D01*
X231660392Y-98405124D01*
X231641891Y-98498134D01*
X231641891Y-98498138D01*
X231617012Y-98623213D01*
X231641891Y-98748288D01*
X231641892Y-102370687D01*
X231436391Y-102866809D01*
X231436391Y-103523617D01*
X231687741Y-104130429D01*
X232112574Y-104555262D01*
X232102889Y-104581106D01*
X233087391Y-105565608D01*
X234071893Y-104581106D01*
X234062208Y-104555262D01*
X234487041Y-104130429D01*
X234738391Y-103523617D01*
X234738391Y-103301513D01*
X234870203Y-103104243D01*
X234968770Y-102608714D01*
X234870203Y-102113185D01*
X234589509Y-101693095D01*
X234181891Y-101420734D01*
X234181891Y-99958213D01*
X234501141Y-99958213D01*
X234659891Y-99799463D01*
X234659891Y-98750213D01*
X234913891Y-98750213D01*
X234913891Y-99799463D01*
X235072641Y-99958213D01*
X235400700Y-99958213D01*
X235634089Y-99861540D01*
X235812718Y-99682912D01*
X235909391Y-99449523D01*
X235909391Y-98908963D01*
X235750641Y-98750213D01*
X234913891Y-98750213D01*
X234659891Y-98750213D01*
X234639891Y-98750213D01*
X234639891Y-98496213D01*
X234659891Y-98496213D01*
X234659891Y-97446963D01*
X234913891Y-97446963D01*
X234913891Y-98496213D01*
X235750641Y-98496213D01*
X235909391Y-98337463D01*
X235909391Y-97796903D01*
X235812718Y-97563514D01*
X235634089Y-97384886D01*
X235400700Y-97288213D01*
X235072641Y-97288213D01*
X234913891Y-97446963D01*
X234659891Y-97446963D01*
X234501141Y-97288213D01*
X234200391Y-97288213D01*
X234200391Y-90664703D01*
X234203710Y-90659736D01*
X234302276Y-90164207D01*
X234203710Y-89668678D01*
X234200391Y-89663711D01*
X234200391Y-73588767D01*
X258118307Y-73588767D01*
X258118307Y-85373053D01*
X261938307Y-85373053D01*
X261938307Y-73588767D01*
X258118307Y-73588767D01*
X234200391Y-73588767D01*
X234200391Y-70803276D01*
X234275088Y-70834217D01*
X234603147Y-70834217D01*
X234761897Y-70675467D01*
X234761897Y-69626217D01*
X235015897Y-69626217D01*
X235015897Y-70675467D01*
X235174647Y-70834217D01*
X235502706Y-70834217D01*
X235736095Y-70737544D01*
X235914724Y-70558916D01*
X236011397Y-70325527D01*
X236011397Y-69784967D01*
X235852647Y-69626217D01*
X235015897Y-69626217D01*
X234761897Y-69626217D01*
X234741897Y-69626217D01*
X234741897Y-69372217D01*
X234761897Y-69372217D01*
X234761897Y-68322967D01*
X235015897Y-68322967D01*
X235015897Y-69372217D01*
X235852647Y-69372217D01*
X236011397Y-69213467D01*
X236011397Y-68672907D01*
X235914724Y-68439518D01*
X235736095Y-68260890D01*
X235502706Y-68164217D01*
X235174647Y-68164217D01*
X235015897Y-68322967D01*
X234761897Y-68322967D01*
X234603147Y-68164217D01*
X234283897Y-68164217D01*
X234283897Y-66244236D01*
X234352916Y-66198119D01*
X234493264Y-65988075D01*
X234542547Y-65740310D01*
X234542547Y-65181510D01*
X234493264Y-64933745D01*
X234421210Y-64825910D01*
X234429969Y-64812802D01*
X235563823Y-65946656D01*
X235606336Y-66010281D01*
X235804348Y-66142588D01*
X235858388Y-66178697D01*
X235858389Y-66178697D01*
X235858390Y-66178698D01*
X236080659Y-66222910D01*
X236080663Y-66222910D01*
X236155706Y-66237837D01*
X236230749Y-66222910D01*
X236420800Y-66222910D01*
X236593742Y-66338467D01*
X236841507Y-66387750D01*
X238822707Y-66387750D01*
X239070472Y-66338467D01*
X239280516Y-66198119D01*
X239420864Y-65988075D01*
X239470147Y-65740310D01*
X239470147Y-65181510D01*
X239420864Y-64933745D01*
X239348810Y-64825910D01*
X239420864Y-64718075D01*
X239470147Y-64470310D01*
X239470147Y-63911510D01*
X239420864Y-63663745D01*
X239348810Y-63555910D01*
X239420864Y-63448075D01*
X239470147Y-63200310D01*
X239470147Y-62641510D01*
X239420864Y-62393745D01*
X239348810Y-62285910D01*
X239420864Y-62178075D01*
X239470147Y-61930310D01*
X239470147Y-61371510D01*
X239420864Y-61123745D01*
X239348810Y-61015910D01*
X239420864Y-60908075D01*
X239470147Y-60660310D01*
X239470147Y-60101510D01*
X239424676Y-59872910D01*
X239816308Y-59872910D01*
X239816307Y-67215867D01*
X239801380Y-67290910D01*
X239816307Y-67365953D01*
X239816307Y-67365957D01*
X239860519Y-67588226D01*
X240028936Y-67840281D01*
X240092560Y-67882793D01*
X241966424Y-69756658D01*
X242008936Y-69820281D01*
X242260990Y-69988698D01*
X242483259Y-70032910D01*
X242483260Y-70032910D01*
X242558307Y-70047838D01*
X242633354Y-70032910D01*
X244034824Y-70032910D01*
X244044160Y-70055450D01*
X244433767Y-70445057D01*
X244942813Y-70655910D01*
X245493801Y-70655910D01*
X246002847Y-70445057D01*
X246371838Y-70076066D01*
X246410150Y-70268675D01*
X246550498Y-70478719D01*
X246760542Y-70619067D01*
X247008307Y-70668350D01*
X248508307Y-70668350D01*
X248756072Y-70619067D01*
X248966116Y-70478719D01*
X249106464Y-70268675D01*
X249153360Y-70032910D01*
X250671731Y-70032910D01*
X250691898Y-70134294D01*
X250885084Y-70423416D01*
X251174206Y-70616602D01*
X251515250Y-70684440D01*
X252002750Y-70684440D01*
X252343794Y-70616602D01*
X252632916Y-70423416D01*
X252696500Y-70328256D01*
X252760084Y-70423416D01*
X253049206Y-70616602D01*
X253390250Y-70684440D01*
X253877750Y-70684440D01*
X254218794Y-70616602D01*
X254507916Y-70423416D01*
X254701102Y-70134294D01*
X254708122Y-70099000D01*
X255927174Y-70099000D01*
X256002217Y-70113927D01*
X256077260Y-70099000D01*
X256077265Y-70099000D01*
X256299534Y-70054788D01*
X256551588Y-69886371D01*
X256594101Y-69822746D01*
X256855409Y-69561438D01*
X256919033Y-69518926D01*
X257087450Y-69266872D01*
X257131662Y-69044603D01*
X257131662Y-69044602D01*
X257146590Y-68969555D01*
X257131662Y-68894508D01*
X257131662Y-62704603D01*
X257146590Y-62629555D01*
X257131662Y-62554507D01*
X257131662Y-62396660D01*
X258903307Y-62396660D01*
X258903307Y-62987219D01*
X258999980Y-63220608D01*
X259178608Y-63399237D01*
X259411997Y-63495910D01*
X261792557Y-63495910D01*
X261951307Y-63337160D01*
X261951307Y-62237910D01*
X259062057Y-62237910D01*
X258903307Y-62396660D01*
X257131662Y-62396660D01*
X257131662Y-61234601D01*
X258903307Y-61234601D01*
X258903307Y-61825160D01*
X259062057Y-61983910D01*
X261951307Y-61983910D01*
X261951307Y-60884660D01*
X261792557Y-60725910D01*
X259411997Y-60725910D01*
X259178608Y-60822583D01*
X258999980Y-61001212D01*
X258903307Y-61234601D01*
X257131662Y-61234601D01*
X257131662Y-58927272D01*
X257166956Y-58920252D01*
X257456078Y-58727066D01*
X257530858Y-58615150D01*
X258891710Y-58615150D01*
X258940150Y-58858675D01*
X259080498Y-59068719D01*
X259290542Y-59209067D01*
X259538307Y-59258350D01*
X264128308Y-59258350D01*
X264128308Y-60725910D01*
X262364057Y-60725910D01*
X262205307Y-60884660D01*
X262205307Y-61983910D01*
X262225307Y-61983910D01*
X262225307Y-62237910D01*
X262205307Y-62237910D01*
X262205307Y-63337160D01*
X262364057Y-63495910D01*
X264128308Y-63495910D01*
X264128307Y-120770910D01*
X206112307Y-120770910D01*
X206112307Y-110936660D01*
X211393307Y-110936660D01*
X211393307Y-111527219D01*
X211489980Y-111760608D01*
X211668608Y-111939237D01*
X211901997Y-112035910D01*
X211974620Y-112035910D01*
X211604160Y-112406370D01*
X211393307Y-112915416D01*
X211393307Y-113466404D01*
X211604160Y-113975450D01*
X211993767Y-114365057D01*
X212502813Y-114575910D01*
X213053801Y-114575910D01*
X213562847Y-114365057D01*
X213952454Y-113975450D01*
X213963320Y-113949217D01*
X215355883Y-113949217D01*
X215682532Y-114438082D01*
X216256434Y-114821551D01*
X216762517Y-114922217D01*
X217104277Y-114922217D01*
X217610360Y-114821551D01*
X218184262Y-114438082D01*
X218567731Y-113864180D01*
X218702387Y-113187217D01*
X218567731Y-112510254D01*
X218285067Y-112087217D01*
X225345957Y-112087217D01*
X225345957Y-114287217D01*
X225395240Y-114534982D01*
X225535588Y-114745026D01*
X225745632Y-114885374D01*
X225993397Y-114934657D01*
X228193397Y-114934657D01*
X228441162Y-114885374D01*
X228651206Y-114745026D01*
X228791554Y-114534982D01*
X228840837Y-114287217D01*
X228840837Y-113949217D01*
X232066775Y-113949217D01*
X232073795Y-113984511D01*
X232266981Y-114273633D01*
X232556103Y-114466819D01*
X232897147Y-114534657D01*
X233384647Y-114534657D01*
X233725691Y-114466819D01*
X234014813Y-114273633D01*
X234015604Y-114272450D01*
X234168699Y-114425544D01*
X234402088Y-114522217D01*
X234730147Y-114522217D01*
X234888897Y-114363467D01*
X234888897Y-113314217D01*
X235142897Y-113314217D01*
X235142897Y-114363467D01*
X235301647Y-114522217D01*
X235629706Y-114522217D01*
X235863095Y-114425544D01*
X236041724Y-114246916D01*
X236138397Y-114013527D01*
X236138397Y-113472967D01*
X235979647Y-113314217D01*
X235142897Y-113314217D01*
X234888897Y-113314217D01*
X234868897Y-113314217D01*
X234868897Y-113060217D01*
X234888897Y-113060217D01*
X234888897Y-112010967D01*
X235142897Y-112010967D01*
X235142897Y-113060217D01*
X235979647Y-113060217D01*
X236138397Y-112901467D01*
X236138397Y-112360907D01*
X236041724Y-112127518D01*
X235863095Y-111948890D01*
X235629706Y-111852217D01*
X235301647Y-111852217D01*
X235142897Y-112010967D01*
X234888897Y-112010967D01*
X234730147Y-111852217D01*
X234402088Y-111852217D01*
X234168699Y-111948890D01*
X234015604Y-112101984D01*
X234014813Y-112100801D01*
X233849391Y-111990269D01*
X233849391Y-109958653D01*
X234103391Y-109958653D01*
X234351156Y-109909370D01*
X234561200Y-109769022D01*
X234701548Y-109558978D01*
X234750831Y-109311213D01*
X234750831Y-107279213D01*
X234701548Y-107031448D01*
X234561200Y-106821404D01*
X234362004Y-106688304D01*
X234520013Y-106629093D01*
X234749207Y-106013571D01*
X234740848Y-105783053D01*
X255458307Y-105783053D01*
X255458307Y-117138767D01*
X259278307Y-117138767D01*
X259278307Y-105783053D01*
X255458307Y-105783053D01*
X234740848Y-105783053D01*
X234725405Y-105357194D01*
X234520013Y-104861333D01*
X234251498Y-104760711D01*
X233266996Y-105745213D01*
X233281139Y-105759356D01*
X233101534Y-105938961D01*
X233087391Y-105924818D01*
X233073249Y-105938961D01*
X232893644Y-105759356D01*
X232907786Y-105745213D01*
X231923284Y-104760711D01*
X231654769Y-104861333D01*
X231425575Y-105476855D01*
X231449377Y-106133232D01*
X231654769Y-106629093D01*
X231812778Y-106688304D01*
X231613582Y-106821404D01*
X231473234Y-107031448D01*
X231423951Y-107279213D01*
X231423951Y-109311213D01*
X231473234Y-109558978D01*
X231613582Y-109769022D01*
X231823626Y-109909370D01*
X232071391Y-109958653D01*
X232325391Y-109958653D01*
X232325392Y-112061772D01*
X232266981Y-112100801D01*
X232073795Y-112389923D01*
X232066775Y-112425217D01*
X228840837Y-112425217D01*
X228840837Y-112087217D01*
X228791554Y-111839452D01*
X228651206Y-111629408D01*
X228441162Y-111489060D01*
X228193397Y-111439777D01*
X225993397Y-111439777D01*
X225745632Y-111489060D01*
X225535588Y-111629408D01*
X225395240Y-111839452D01*
X225345957Y-112087217D01*
X218285067Y-112087217D01*
X218184262Y-111936352D01*
X217610360Y-111552883D01*
X217104277Y-111452217D01*
X216762517Y-111452217D01*
X216256434Y-111552883D01*
X215682532Y-111936352D01*
X215355883Y-112425217D01*
X213960261Y-112425217D01*
X213952454Y-112406370D01*
X213581994Y-112035910D01*
X213654617Y-112035910D01*
X213888006Y-111939237D01*
X214066634Y-111760608D01*
X214163307Y-111527219D01*
X214163307Y-110936660D01*
X214004557Y-110777910D01*
X212905307Y-110777910D01*
X212905307Y-110797910D01*
X212651307Y-110797910D01*
X212651307Y-110777910D01*
X211552057Y-110777910D01*
X211393307Y-110936660D01*
X206112307Y-110936660D01*
X206112307Y-109774601D01*
X211393307Y-109774601D01*
X211393307Y-110365160D01*
X211552057Y-110523910D01*
X212651307Y-110523910D01*
X212651307Y-109424660D01*
X212905307Y-109424660D01*
X212905307Y-110523910D01*
X214004557Y-110523910D01*
X214163307Y-110365160D01*
X214163307Y-109774601D01*
X214066634Y-109541212D01*
X213888006Y-109362583D01*
X213654617Y-109265910D01*
X213064057Y-109265910D01*
X212905307Y-109424660D01*
X212651307Y-109424660D01*
X212492557Y-109265910D01*
X211901997Y-109265910D01*
X211668608Y-109362583D01*
X211489980Y-109541212D01*
X211393307Y-109774601D01*
X206112307Y-109774601D01*
X206112307Y-90526963D01*
X223170391Y-90526963D01*
X223170391Y-91267523D01*
X223267064Y-91500912D01*
X223445693Y-91679540D01*
X223679082Y-91776213D01*
X224419641Y-91776213D01*
X224578391Y-91617463D01*
X224578391Y-90368213D01*
X223329141Y-90368213D01*
X223170391Y-90526963D01*
X206112307Y-90526963D01*
X206112307Y-89214903D01*
X223170391Y-89214903D01*
X223170391Y-89955463D01*
X223329141Y-90114213D01*
X224578391Y-90114213D01*
X224578391Y-88864963D01*
X224419641Y-88706213D01*
X223679082Y-88706213D01*
X223445693Y-88802886D01*
X223267064Y-88981514D01*
X223170391Y-89214903D01*
X206112307Y-89214903D01*
X206112307Y-73233053D01*
X212468307Y-73233053D01*
X212468307Y-78088767D01*
X216288307Y-78088767D01*
X216288307Y-73233053D01*
X212468307Y-73233053D01*
X206112307Y-73233053D01*
X206112307Y-69180910D01*
X211324736Y-69180910D01*
X211324736Y-73000910D01*
X217751879Y-73000910D01*
X217751879Y-69180910D01*
X211324736Y-69180910D01*
X206112307Y-69180910D01*
X206112307Y-61242427D01*
X212616395Y-61242427D01*
X212684384Y-61483370D01*
X213203478Y-61668111D01*
X213753755Y-61640140D01*
X214132230Y-61483370D01*
X214200219Y-61242427D01*
X213408307Y-60450515D01*
X212616395Y-61242427D01*
X206112307Y-61242427D01*
X206112307Y-60066081D01*
X212011106Y-60066081D01*
X212039077Y-60616358D01*
X212195847Y-60994833D01*
X212436790Y-61062822D01*
X213228702Y-60270910D01*
X212436790Y-59478998D01*
X212195847Y-59546987D01*
X212011106Y-60066081D01*
X206112307Y-60066081D01*
X206112307Y-59299393D01*
X212616395Y-59299393D01*
X213408307Y-60091305D01*
X214200219Y-59299393D01*
X214132230Y-59058450D01*
X213613136Y-58873709D01*
X213062859Y-58901680D01*
X212684384Y-59058450D01*
X212616395Y-59299393D01*
X206112307Y-59299393D01*
X206112307Y-53289808D01*
X227002997Y-53289808D01*
X227002997Y-53617867D01*
X227161747Y-53776617D01*
X228210997Y-53776617D01*
X228210997Y-52939867D01*
X228464997Y-52939867D01*
X228464997Y-53776617D01*
X229514247Y-53776617D01*
X229672997Y-53617867D01*
X229672997Y-53289808D01*
X229576324Y-53056419D01*
X229397696Y-52877790D01*
X229164307Y-52781117D01*
X228623747Y-52781117D01*
X228464997Y-52939867D01*
X228210997Y-52939867D01*
X228052247Y-52781117D01*
X227511687Y-52781117D01*
X227278298Y-52877790D01*
X227099670Y-53056419D01*
X227002997Y-53289808D01*
X206112307Y-53289808D01*
X206112307Y-52422427D01*
X244386395Y-52422427D01*
X244454384Y-52663370D01*
X244973478Y-52848111D01*
X245523755Y-52820140D01*
X245902230Y-52663370D01*
X245970219Y-52422427D01*
X245178307Y-51630515D01*
X244386395Y-52422427D01*
X206112307Y-52422427D01*
X206112307Y-51246081D01*
X243781106Y-51246081D01*
X243809077Y-51796358D01*
X243965847Y-52174833D01*
X244206790Y-52242822D01*
X244998702Y-51450910D01*
X244206790Y-50658998D01*
X243965847Y-50726987D01*
X243781106Y-51246081D01*
X206112307Y-51246081D01*
X206112307Y-50479393D01*
X244386395Y-50479393D01*
X245178307Y-51271305D01*
X245970219Y-50479393D01*
X245902230Y-50238450D01*
X245383136Y-50053709D01*
X244832859Y-50081680D01*
X244454384Y-50238450D01*
X244386395Y-50479393D01*
X206112307Y-50479393D01*
X206112307Y-33780195D01*
X243368307Y-33780195D01*
X243368307Y-39421624D01*
X247188307Y-39421624D01*
X247188307Y-35616660D01*
X250683307Y-35616660D01*
X250683307Y-37997220D01*
X250779980Y-38230609D01*
X250958609Y-38409237D01*
X251191998Y-38505910D01*
X251782557Y-38505910D01*
X251941307Y-38347160D01*
X251941307Y-35457910D01*
X252195307Y-35457910D01*
X252195307Y-38347160D01*
X252354057Y-38505910D01*
X252944616Y-38505910D01*
X253178005Y-38409237D01*
X253356634Y-38230609D01*
X253453307Y-37997220D01*
X253453307Y-35616660D01*
X253294557Y-35457910D01*
X252195307Y-35457910D01*
X251941307Y-35457910D01*
X250842057Y-35457910D01*
X250683307Y-35616660D01*
X247188307Y-35616660D01*
X247188307Y-33780195D01*
X243368307Y-33780195D01*
X206112307Y-33780195D01*
X206112307Y-33290910D01*
X250683307Y-33290910D01*
X250683307Y-35045160D01*
X250683307Y-35045160D01*
G37*
X250683307Y-35045160D02*
X250842057Y-35203910D01*
X251941307Y-35203910D01*
X251941307Y-35183910D01*
X252195307Y-35183910D01*
X252195307Y-35203910D01*
X253294557Y-35203910D01*
X253453307Y-35045160D01*
X253453307Y-33290910D01*
X254920867Y-33290910D01*
X254920867Y-33566343D01*
X254839902Y-33620442D01*
X254373786Y-34318035D01*
X254251424Y-34933191D01*
X254251425Y-54906558D01*
X254373787Y-55521714D01*
X254839903Y-56219306D01*
X255049573Y-56359403D01*
X255090060Y-56562944D01*
X255214319Y-56748910D01*
X253093938Y-56748910D01*
X248957210Y-52612183D01*
X249066464Y-52448675D01*
X249115747Y-52200910D01*
X249115747Y-50700910D01*
X249066464Y-50453145D01*
X248926116Y-50243101D01*
X248716072Y-50102753D01*
X248468307Y-50053470D01*
X246968307Y-50053470D01*
X246720542Y-50102753D01*
X246510498Y-50243101D01*
X246370150Y-50453145D01*
X246320867Y-50700910D01*
X246320867Y-50707263D01*
X246149824Y-50658998D01*
X245357912Y-51450910D01*
X246149824Y-52242822D01*
X246320867Y-52194557D01*
X246320867Y-52200910D01*
X246370150Y-52448675D01*
X246510498Y-52658719D01*
X246720542Y-52799067D01*
X246968307Y-52848350D01*
X247067420Y-52848350D01*
X247168937Y-53000281D01*
X247232558Y-53042791D01*
X250938676Y-56748910D01*
X249093360Y-56748910D01*
X249046464Y-56513145D01*
X248906116Y-56303101D01*
X248696072Y-56162753D01*
X248448307Y-56113470D01*
X246948307Y-56113470D01*
X246700542Y-56162753D01*
X246490498Y-56303101D01*
X246350150Y-56513145D01*
X246311838Y-56705754D01*
X245942847Y-56336763D01*
X245433801Y-56125910D01*
X244882813Y-56125910D01*
X244373767Y-56336763D01*
X243984160Y-56726370D01*
X243773307Y-57235416D01*
X243773307Y-57786404D01*
X243782643Y-57808943D01*
X243242677Y-58348910D01*
X242923350Y-58348910D01*
X242848307Y-58333983D01*
X242773264Y-58348910D01*
X240653355Y-58348910D01*
X240578307Y-58333982D01*
X240503259Y-58348910D01*
X239415337Y-58348910D01*
X239457707Y-58246620D01*
X239457707Y-58126660D01*
X239298957Y-57967910D01*
X237959107Y-57967910D01*
X237959107Y-57987910D01*
X237705107Y-57987910D01*
X237705107Y-57967910D01*
X236365257Y-57967910D01*
X236206507Y-58126660D01*
X236206507Y-58246620D01*
X236303180Y-58480009D01*
X236308866Y-58485695D01*
X236243350Y-58583745D01*
X236194067Y-58831510D01*
X236194067Y-59390310D01*
X236243350Y-59638075D01*
X236315404Y-59745910D01*
X236243350Y-59853745D01*
X236194067Y-60101510D01*
X236194067Y-60660310D01*
X236243350Y-60908075D01*
X236315404Y-61015910D01*
X236243350Y-61123745D01*
X236194067Y-61371510D01*
X236194067Y-61930310D01*
X236243350Y-62178075D01*
X236315404Y-62285910D01*
X236243350Y-62393745D01*
X236194067Y-62641510D01*
X236194067Y-63151640D01*
X234542547Y-61500120D01*
X234542547Y-61371510D01*
X234493264Y-61123745D01*
X234421210Y-61015910D01*
X234493264Y-60908075D01*
X234542547Y-60660310D01*
X234542547Y-60101510D01*
X234497474Y-59874908D01*
X234560997Y-59887544D01*
X234636040Y-59872617D01*
X234636045Y-59872617D01*
X234858314Y-59828405D01*
X235110368Y-59659988D01*
X235152880Y-59596364D01*
X235656346Y-59092899D01*
X235719968Y-59050388D01*
X235888385Y-58798334D01*
X235932597Y-58576065D01*
X235932597Y-58576064D01*
X235947525Y-58501017D01*
X235932597Y-58425970D01*
X235932597Y-57435200D01*
X236206507Y-57435200D01*
X236206507Y-57555160D01*
X236365257Y-57713910D01*
X237705107Y-57713910D01*
X237705107Y-57085260D01*
X237959107Y-57085260D01*
X237959107Y-57713910D01*
X239298957Y-57713910D01*
X239457707Y-57555160D01*
X239457707Y-57435200D01*
X239361034Y-57201811D01*
X239182405Y-57023183D01*
X238949016Y-56926510D01*
X238117857Y-56926510D01*
X237959107Y-57085260D01*
X237705107Y-57085260D01*
X237546357Y-56926510D01*
X236715198Y-56926510D01*
X236481809Y-57023183D01*
X236303180Y-57201811D01*
X236206507Y-57435200D01*
X235932597Y-57435200D01*
X235932597Y-56899659D01*
X235947524Y-56824616D01*
X235932597Y-56749573D01*
X235932597Y-56749569D01*
X235888385Y-56527300D01*
X235719968Y-56275246D01*
X235656347Y-56232736D01*
X234716480Y-55292870D01*
X234673968Y-55229246D01*
X234421914Y-55060829D01*
X234199645Y-55016617D01*
X234199640Y-55016617D01*
X234124597Y-55001690D01*
X234049554Y-55016617D01*
X229499193Y-55016617D01*
X229424413Y-54904701D01*
X229423230Y-54903910D01*
X229576324Y-54750815D01*
X229672997Y-54517426D01*
X229672997Y-54189367D01*
X229514247Y-54030617D01*
X228464997Y-54030617D01*
X228464997Y-54050617D01*
X228210997Y-54050617D01*
X228210997Y-54030617D01*
X227161747Y-54030617D01*
X227002997Y-54189367D01*
X227002997Y-54517426D01*
X227099670Y-54750815D01*
X227252764Y-54903910D01*
X227251581Y-54904701D01*
X227058395Y-55193823D01*
X226990557Y-55534867D01*
X226990557Y-56022367D01*
X227058395Y-56363411D01*
X227251581Y-56652533D01*
X227537898Y-56843845D01*
X227537897Y-62519595D01*
X227502603Y-62526615D01*
X227213481Y-62719801D01*
X227138701Y-62831717D01*
X221817519Y-62831717D01*
X221810499Y-62796423D01*
X221617313Y-62507301D01*
X221328191Y-62314115D01*
X220987147Y-62246277D01*
X220499647Y-62246277D01*
X220158603Y-62314115D01*
X219869481Y-62507301D01*
X219805897Y-62602461D01*
X219742313Y-62507301D01*
X219453191Y-62314115D01*
X219112147Y-62246277D01*
X218624647Y-62246277D01*
X218283603Y-62314115D01*
X217994481Y-62507301D01*
X217801295Y-62796423D01*
X217794275Y-62831717D01*
X217355747Y-62831717D01*
X217355747Y-62760910D01*
X217306464Y-62513145D01*
X217166116Y-62303101D01*
X216956072Y-62162753D01*
X216708307Y-62113470D01*
X216692097Y-62113470D01*
X216692097Y-61668350D01*
X216698307Y-61668350D01*
X216946072Y-61619067D01*
X217156116Y-61478719D01*
X217296464Y-61268675D01*
X217345747Y-61020910D01*
X217345747Y-59520910D01*
X217296464Y-59273145D01*
X217156116Y-59063101D01*
X216946072Y-58922753D01*
X216698307Y-58873470D01*
X215198307Y-58873470D01*
X214950542Y-58922753D01*
X214740498Y-59063101D01*
X214600150Y-59273145D01*
X214550867Y-59520910D01*
X214550867Y-59527263D01*
X214379824Y-59478998D01*
X213587912Y-60270910D01*
X214379824Y-61062822D01*
X214550867Y-61014557D01*
X214550867Y-61020910D01*
X214600150Y-61268675D01*
X214740498Y-61478719D01*
X214950542Y-61619067D01*
X215168098Y-61662341D01*
X215168097Y-62121468D01*
X214960542Y-62162753D01*
X214750498Y-62303101D01*
X214610150Y-62513145D01*
X214571838Y-62705754D01*
X214202847Y-62336763D01*
X213693801Y-62125910D01*
X213142813Y-62125910D01*
X212633767Y-62336763D01*
X212244160Y-62726370D01*
X212033307Y-63235416D01*
X212033307Y-63786404D01*
X212244160Y-64295450D01*
X212633767Y-64685057D01*
X212640798Y-64687969D01*
X212640797Y-65703851D01*
X212633767Y-65706763D01*
X212244160Y-66096370D01*
X212033307Y-66605416D01*
X212033307Y-67156404D01*
X212244160Y-67665450D01*
X212633767Y-68055057D01*
X213142813Y-68265910D01*
X213693801Y-68265910D01*
X214202847Y-68055057D01*
X214573307Y-67684597D01*
X214573307Y-67757220D01*
X214669980Y-67990609D01*
X214848609Y-68169237D01*
X215081998Y-68265910D01*
X215672557Y-68265910D01*
X215831307Y-68107160D01*
X215831307Y-67007910D01*
X216085307Y-67007910D01*
X216085307Y-68107160D01*
X216244057Y-68265910D01*
X216834616Y-68265910D01*
X217068005Y-68169237D01*
X217246634Y-67990609D01*
X217343307Y-67757220D01*
X217343307Y-67166660D01*
X217184557Y-67007910D01*
X216085307Y-67007910D01*
X215831307Y-67007910D01*
X215811307Y-67007910D01*
X215811307Y-66753910D01*
X215831307Y-66753910D01*
X215831307Y-65654660D01*
X216085307Y-65654660D01*
X216085307Y-66753910D01*
X217184557Y-66753910D01*
X217343307Y-66595160D01*
X217343307Y-66004600D01*
X217246634Y-65771211D01*
X217068005Y-65592583D01*
X216834616Y-65495910D01*
X216244057Y-65495910D01*
X216085307Y-65654660D01*
X215831307Y-65654660D01*
X215672557Y-65495910D01*
X215081998Y-65495910D01*
X214848609Y-65592583D01*
X214669980Y-65771211D01*
X214573307Y-66004600D01*
X214573307Y-66077223D01*
X214202847Y-65706763D01*
X214164797Y-65691002D01*
X214164797Y-64700818D01*
X214202847Y-64685057D01*
X214571838Y-64316066D01*
X214610150Y-64508675D01*
X214750498Y-64718719D01*
X214960542Y-64859067D01*
X215208307Y-64908350D01*
X216708307Y-64908350D01*
X216956072Y-64859067D01*
X217166116Y-64718719D01*
X217306464Y-64508675D01*
X217336889Y-64355717D01*
X217794275Y-64355717D01*
X217801295Y-64391011D01*
X217994481Y-64680133D01*
X218283603Y-64873319D01*
X218624647Y-64941157D01*
X219112147Y-64941157D01*
X219453191Y-64873319D01*
X219742313Y-64680133D01*
X219805897Y-64584973D01*
X219869481Y-64680133D01*
X220158603Y-64873319D01*
X220499647Y-64941157D01*
X220987147Y-64941157D01*
X221328191Y-64873319D01*
X221617313Y-64680133D01*
X221810499Y-64391011D01*
X221817519Y-64355717D01*
X227138701Y-64355717D01*
X227213481Y-64467633D01*
X227308641Y-64531217D01*
X227213481Y-64594801D01*
X227020295Y-64883923D01*
X226952457Y-65224967D01*
X226952457Y-65712467D01*
X227020295Y-66053511D01*
X227213481Y-66342633D01*
X227502603Y-66535819D01*
X227656582Y-66566447D01*
X227804868Y-66665529D01*
X228300396Y-66764096D01*
X228468706Y-66730617D01*
X231743898Y-66730617D01*
X231743897Y-69072500D01*
X231734079Y-69087194D01*
X231635512Y-69582723D01*
X231660392Y-69707803D01*
X231660391Y-88975112D01*
X231640185Y-88961611D01*
X231299141Y-88893773D01*
X230811641Y-88893773D01*
X230470597Y-88961611D01*
X230181475Y-89154797D01*
X229988289Y-89443919D01*
X229981269Y-89479213D01*
X228591232Y-89479213D01*
X228546701Y-89371706D01*
X228114898Y-88939903D01*
X227550721Y-88706213D01*
X226940061Y-88706213D01*
X226375884Y-88939903D01*
X226199530Y-89116257D01*
X226143718Y-88981514D01*
X225965089Y-88802886D01*
X225731700Y-88706213D01*
X224991141Y-88706213D01*
X224832391Y-88864963D01*
X224832391Y-90114213D01*
X224852391Y-90114213D01*
X224852391Y-90368213D01*
X224832391Y-90368213D01*
X224832391Y-91617463D01*
X224991141Y-91776213D01*
X225731700Y-91776213D01*
X225965089Y-91679540D01*
X226143718Y-91500912D01*
X226199530Y-91366169D01*
X226375884Y-91542523D01*
X226940061Y-91776213D01*
X227550721Y-91776213D01*
X228114898Y-91542523D01*
X228546701Y-91110720D01*
X228591232Y-91003213D01*
X229981269Y-91003213D01*
X229988289Y-91038507D01*
X230181475Y-91327629D01*
X230470597Y-91520815D01*
X230811641Y-91588653D01*
X231299141Y-91588653D01*
X231640185Y-91520815D01*
X231660391Y-91507314D01*
X231660392Y-97770128D01*
X231617012Y-97988213D01*
X231660392Y-98206298D01*
X231660392Y-98405124D01*
X231641891Y-98498134D01*
X231641891Y-98498138D01*
X231617012Y-98623213D01*
X231641891Y-98748288D01*
X231641892Y-102370687D01*
X231436391Y-102866809D01*
X231436391Y-103523617D01*
X231687741Y-104130429D01*
X232112574Y-104555262D01*
X232102889Y-104581106D01*
X233087391Y-105565608D01*
X234071893Y-104581106D01*
X234062208Y-104555262D01*
X234487041Y-104130429D01*
X234738391Y-103523617D01*
X234738391Y-103301513D01*
X234870203Y-103104243D01*
X234968770Y-102608714D01*
X234870203Y-102113185D01*
X234589509Y-101693095D01*
X234181891Y-101420734D01*
X234181891Y-99958213D01*
X234501141Y-99958213D01*
X234659891Y-99799463D01*
X234659891Y-98750213D01*
X234913891Y-98750213D01*
X234913891Y-99799463D01*
X235072641Y-99958213D01*
X235400700Y-99958213D01*
X235634089Y-99861540D01*
X235812718Y-99682912D01*
X235909391Y-99449523D01*
X235909391Y-98908963D01*
X235750641Y-98750213D01*
X234913891Y-98750213D01*
X234659891Y-98750213D01*
X234639891Y-98750213D01*
X234639891Y-98496213D01*
X234659891Y-98496213D01*
X234659891Y-97446963D01*
X234913891Y-97446963D01*
X234913891Y-98496213D01*
X235750641Y-98496213D01*
X235909391Y-98337463D01*
X235909391Y-97796903D01*
X235812718Y-97563514D01*
X235634089Y-97384886D01*
X235400700Y-97288213D01*
X235072641Y-97288213D01*
X234913891Y-97446963D01*
X234659891Y-97446963D01*
X234501141Y-97288213D01*
X234200391Y-97288213D01*
X234200391Y-90664703D01*
X234203710Y-90659736D01*
X234302276Y-90164207D01*
X234203710Y-89668678D01*
X234200391Y-89663711D01*
X234200391Y-73588767D01*
X258118307Y-73588767D01*
X258118307Y-85373053D01*
X261938307Y-85373053D01*
X261938307Y-73588767D01*
X258118307Y-73588767D01*
X234200391Y-73588767D01*
X234200391Y-70803276D01*
X234275088Y-70834217D01*
X234603147Y-70834217D01*
X234761897Y-70675467D01*
X234761897Y-69626217D01*
X235015897Y-69626217D01*
X235015897Y-70675467D01*
X235174647Y-70834217D01*
X235502706Y-70834217D01*
X235736095Y-70737544D01*
X235914724Y-70558916D01*
X236011397Y-70325527D01*
X236011397Y-69784967D01*
X235852647Y-69626217D01*
X235015897Y-69626217D01*
X234761897Y-69626217D01*
X234741897Y-69626217D01*
X234741897Y-69372217D01*
X234761897Y-69372217D01*
X234761897Y-68322967D01*
X235015897Y-68322967D01*
X235015897Y-69372217D01*
X235852647Y-69372217D01*
X236011397Y-69213467D01*
X236011397Y-68672907D01*
X235914724Y-68439518D01*
X235736095Y-68260890D01*
X235502706Y-68164217D01*
X235174647Y-68164217D01*
X235015897Y-68322967D01*
X234761897Y-68322967D01*
X234603147Y-68164217D01*
X234283897Y-68164217D01*
X234283897Y-66244236D01*
X234352916Y-66198119D01*
X234493264Y-65988075D01*
X234542547Y-65740310D01*
X234542547Y-65181510D01*
X234493264Y-64933745D01*
X234421210Y-64825910D01*
X234429969Y-64812802D01*
X235563823Y-65946656D01*
X235606336Y-66010281D01*
X235804348Y-66142588D01*
X235858388Y-66178697D01*
X235858389Y-66178697D01*
X235858390Y-66178698D01*
X236080659Y-66222910D01*
X236080663Y-66222910D01*
X236155706Y-66237837D01*
X236230749Y-66222910D01*
X236420800Y-66222910D01*
X236593742Y-66338467D01*
X236841507Y-66387750D01*
X238822707Y-66387750D01*
X239070472Y-66338467D01*
X239280516Y-66198119D01*
X239420864Y-65988075D01*
X239470147Y-65740310D01*
X239470147Y-65181510D01*
X239420864Y-64933745D01*
X239348810Y-64825910D01*
X239420864Y-64718075D01*
X239470147Y-64470310D01*
X239470147Y-63911510D01*
X239420864Y-63663745D01*
X239348810Y-63555910D01*
X239420864Y-63448075D01*
X239470147Y-63200310D01*
X239470147Y-62641510D01*
X239420864Y-62393745D01*
X239348810Y-62285910D01*
X239420864Y-62178075D01*
X239470147Y-61930310D01*
X239470147Y-61371510D01*
X239420864Y-61123745D01*
X239348810Y-61015910D01*
X239420864Y-60908075D01*
X239470147Y-60660310D01*
X239470147Y-60101510D01*
X239424676Y-59872910D01*
X239816308Y-59872910D01*
X239816307Y-67215867D01*
X239801380Y-67290910D01*
X239816307Y-67365953D01*
X239816307Y-67365957D01*
X239860519Y-67588226D01*
X240028936Y-67840281D01*
X240092560Y-67882793D01*
X241966424Y-69756658D01*
X242008936Y-69820281D01*
X242260990Y-69988698D01*
X242483259Y-70032910D01*
X242483260Y-70032910D01*
X242558307Y-70047838D01*
X242633354Y-70032910D01*
X244034824Y-70032910D01*
X244044160Y-70055450D01*
X244433767Y-70445057D01*
X244942813Y-70655910D01*
X245493801Y-70655910D01*
X246002847Y-70445057D01*
X246371838Y-70076066D01*
X246410150Y-70268675D01*
X246550498Y-70478719D01*
X246760542Y-70619067D01*
X247008307Y-70668350D01*
X248508307Y-70668350D01*
X248756072Y-70619067D01*
X248966116Y-70478719D01*
X249106464Y-70268675D01*
X249153360Y-70032910D01*
X250671731Y-70032910D01*
X250691898Y-70134294D01*
X250885084Y-70423416D01*
X251174206Y-70616602D01*
X251515250Y-70684440D01*
X252002750Y-70684440D01*
X252343794Y-70616602D01*
X252632916Y-70423416D01*
X252696500Y-70328256D01*
X252760084Y-70423416D01*
X253049206Y-70616602D01*
X253390250Y-70684440D01*
X253877750Y-70684440D01*
X254218794Y-70616602D01*
X254507916Y-70423416D01*
X254701102Y-70134294D01*
X254708122Y-70099000D01*
X255927174Y-70099000D01*
X256002217Y-70113927D01*
X256077260Y-70099000D01*
X256077265Y-70099000D01*
X256299534Y-70054788D01*
X256551588Y-69886371D01*
X256594101Y-69822746D01*
X256855409Y-69561438D01*
X256919033Y-69518926D01*
X257087450Y-69266872D01*
X257131662Y-69044603D01*
X257131662Y-69044602D01*
X257146590Y-68969555D01*
X257131662Y-68894508D01*
X257131662Y-62704603D01*
X257146590Y-62629555D01*
X257131662Y-62554507D01*
X257131662Y-62396660D01*
X258903307Y-62396660D01*
X258903307Y-62987219D01*
X258999980Y-63220608D01*
X259178608Y-63399237D01*
X259411997Y-63495910D01*
X261792557Y-63495910D01*
X261951307Y-63337160D01*
X261951307Y-62237910D01*
X259062057Y-62237910D01*
X258903307Y-62396660D01*
X257131662Y-62396660D01*
X257131662Y-61234601D01*
X258903307Y-61234601D01*
X258903307Y-61825160D01*
X259062057Y-61983910D01*
X261951307Y-61983910D01*
X261951307Y-60884660D01*
X261792557Y-60725910D01*
X259411997Y-60725910D01*
X259178608Y-60822583D01*
X258999980Y-61001212D01*
X258903307Y-61234601D01*
X257131662Y-61234601D01*
X257131662Y-58927272D01*
X257166956Y-58920252D01*
X257456078Y-58727066D01*
X257530858Y-58615150D01*
X258891710Y-58615150D01*
X258940150Y-58858675D01*
X259080498Y-59068719D01*
X259290542Y-59209067D01*
X259538307Y-59258350D01*
X264128308Y-59258350D01*
X264128308Y-60725910D01*
X262364057Y-60725910D01*
X262205307Y-60884660D01*
X262205307Y-61983910D01*
X262225307Y-61983910D01*
X262225307Y-62237910D01*
X262205307Y-62237910D01*
X262205307Y-63337160D01*
X262364057Y-63495910D01*
X264128308Y-63495910D01*
X264128307Y-120770910D01*
X206112307Y-120770910D01*
X206112307Y-110936660D01*
X211393307Y-110936660D01*
X211393307Y-111527219D01*
X211489980Y-111760608D01*
X211668608Y-111939237D01*
X211901997Y-112035910D01*
X211974620Y-112035910D01*
X211604160Y-112406370D01*
X211393307Y-112915416D01*
X211393307Y-113466404D01*
X211604160Y-113975450D01*
X211993767Y-114365057D01*
X212502813Y-114575910D01*
X213053801Y-114575910D01*
X213562847Y-114365057D01*
X213952454Y-113975450D01*
X213963320Y-113949217D01*
X215355883Y-113949217D01*
X215682532Y-114438082D01*
X216256434Y-114821551D01*
X216762517Y-114922217D01*
X217104277Y-114922217D01*
X217610360Y-114821551D01*
X218184262Y-114438082D01*
X218567731Y-113864180D01*
X218702387Y-113187217D01*
X218567731Y-112510254D01*
X218285067Y-112087217D01*
X225345957Y-112087217D01*
X225345957Y-114287217D01*
X225395240Y-114534982D01*
X225535588Y-114745026D01*
X225745632Y-114885374D01*
X225993397Y-114934657D01*
X228193397Y-114934657D01*
X228441162Y-114885374D01*
X228651206Y-114745026D01*
X228791554Y-114534982D01*
X228840837Y-114287217D01*
X228840837Y-113949217D01*
X232066775Y-113949217D01*
X232073795Y-113984511D01*
X232266981Y-114273633D01*
X232556103Y-114466819D01*
X232897147Y-114534657D01*
X233384647Y-114534657D01*
X233725691Y-114466819D01*
X234014813Y-114273633D01*
X234015604Y-114272450D01*
X234168699Y-114425544D01*
X234402088Y-114522217D01*
X234730147Y-114522217D01*
X234888897Y-114363467D01*
X234888897Y-113314217D01*
X235142897Y-113314217D01*
X235142897Y-114363467D01*
X235301647Y-114522217D01*
X235629706Y-114522217D01*
X235863095Y-114425544D01*
X236041724Y-114246916D01*
X236138397Y-114013527D01*
X236138397Y-113472967D01*
X235979647Y-113314217D01*
X235142897Y-113314217D01*
X234888897Y-113314217D01*
X234868897Y-113314217D01*
X234868897Y-113060217D01*
X234888897Y-113060217D01*
X234888897Y-112010967D01*
X235142897Y-112010967D01*
X235142897Y-113060217D01*
X235979647Y-113060217D01*
X236138397Y-112901467D01*
X236138397Y-112360907D01*
X236041724Y-112127518D01*
X235863095Y-111948890D01*
X235629706Y-111852217D01*
X235301647Y-111852217D01*
X235142897Y-112010967D01*
X234888897Y-112010967D01*
X234730147Y-111852217D01*
X234402088Y-111852217D01*
X234168699Y-111948890D01*
X234015604Y-112101984D01*
X234014813Y-112100801D01*
X233849391Y-111990269D01*
X233849391Y-109958653D01*
X234103391Y-109958653D01*
X234351156Y-109909370D01*
X234561200Y-109769022D01*
X234701548Y-109558978D01*
X234750831Y-109311213D01*
X234750831Y-107279213D01*
X234701548Y-107031448D01*
X234561200Y-106821404D01*
X234362004Y-106688304D01*
X234520013Y-106629093D01*
X234749207Y-106013571D01*
X234740848Y-105783053D01*
X255458307Y-105783053D01*
X255458307Y-117138767D01*
X259278307Y-117138767D01*
X259278307Y-105783053D01*
X255458307Y-105783053D01*
X234740848Y-105783053D01*
X234725405Y-105357194D01*
X234520013Y-104861333D01*
X234251498Y-104760711D01*
X233266996Y-105745213D01*
X233281139Y-105759356D01*
X233101534Y-105938961D01*
X233087391Y-105924818D01*
X233073249Y-105938961D01*
X232893644Y-105759356D01*
X232907786Y-105745213D01*
X231923284Y-104760711D01*
X231654769Y-104861333D01*
X231425575Y-105476855D01*
X231449377Y-106133232D01*
X231654769Y-106629093D01*
X231812778Y-106688304D01*
X231613582Y-106821404D01*
X231473234Y-107031448D01*
X231423951Y-107279213D01*
X231423951Y-109311213D01*
X231473234Y-109558978D01*
X231613582Y-109769022D01*
X231823626Y-109909370D01*
X232071391Y-109958653D01*
X232325391Y-109958653D01*
X232325392Y-112061772D01*
X232266981Y-112100801D01*
X232073795Y-112389923D01*
X232066775Y-112425217D01*
X228840837Y-112425217D01*
X228840837Y-112087217D01*
X228791554Y-111839452D01*
X228651206Y-111629408D01*
X228441162Y-111489060D01*
X228193397Y-111439777D01*
X225993397Y-111439777D01*
X225745632Y-111489060D01*
X225535588Y-111629408D01*
X225395240Y-111839452D01*
X225345957Y-112087217D01*
X218285067Y-112087217D01*
X218184262Y-111936352D01*
X217610360Y-111552883D01*
X217104277Y-111452217D01*
X216762517Y-111452217D01*
X216256434Y-111552883D01*
X215682532Y-111936352D01*
X215355883Y-112425217D01*
X213960261Y-112425217D01*
X213952454Y-112406370D01*
X213581994Y-112035910D01*
X213654617Y-112035910D01*
X213888006Y-111939237D01*
X214066634Y-111760608D01*
X214163307Y-111527219D01*
X214163307Y-110936660D01*
X214004557Y-110777910D01*
X212905307Y-110777910D01*
X212905307Y-110797910D01*
X212651307Y-110797910D01*
X212651307Y-110777910D01*
X211552057Y-110777910D01*
X211393307Y-110936660D01*
X206112307Y-110936660D01*
X206112307Y-109774601D01*
X211393307Y-109774601D01*
X211393307Y-110365160D01*
X211552057Y-110523910D01*
X212651307Y-110523910D01*
X212651307Y-109424660D01*
X212905307Y-109424660D01*
X212905307Y-110523910D01*
X214004557Y-110523910D01*
X214163307Y-110365160D01*
X214163307Y-109774601D01*
X214066634Y-109541212D01*
X213888006Y-109362583D01*
X213654617Y-109265910D01*
X213064057Y-109265910D01*
X212905307Y-109424660D01*
X212651307Y-109424660D01*
X212492557Y-109265910D01*
X211901997Y-109265910D01*
X211668608Y-109362583D01*
X211489980Y-109541212D01*
X211393307Y-109774601D01*
X206112307Y-109774601D01*
X206112307Y-90526963D01*
X223170391Y-90526963D01*
X223170391Y-91267523D01*
X223267064Y-91500912D01*
X223445693Y-91679540D01*
X223679082Y-91776213D01*
X224419641Y-91776213D01*
X224578391Y-91617463D01*
X224578391Y-90368213D01*
X223329141Y-90368213D01*
X223170391Y-90526963D01*
X206112307Y-90526963D01*
X206112307Y-89214903D01*
X223170391Y-89214903D01*
X223170391Y-89955463D01*
X223329141Y-90114213D01*
X224578391Y-90114213D01*
X224578391Y-88864963D01*
X224419641Y-88706213D01*
X223679082Y-88706213D01*
X223445693Y-88802886D01*
X223267064Y-88981514D01*
X223170391Y-89214903D01*
X206112307Y-89214903D01*
X206112307Y-73233053D01*
X212468307Y-73233053D01*
X212468307Y-78088767D01*
X216288307Y-78088767D01*
X216288307Y-73233053D01*
X212468307Y-73233053D01*
X206112307Y-73233053D01*
X206112307Y-69180910D01*
X211324736Y-69180910D01*
X211324736Y-73000910D01*
X217751879Y-73000910D01*
X217751879Y-69180910D01*
X211324736Y-69180910D01*
X206112307Y-69180910D01*
X206112307Y-61242427D01*
X212616395Y-61242427D01*
X212684384Y-61483370D01*
X213203478Y-61668111D01*
X213753755Y-61640140D01*
X214132230Y-61483370D01*
X214200219Y-61242427D01*
X213408307Y-60450515D01*
X212616395Y-61242427D01*
X206112307Y-61242427D01*
X206112307Y-60066081D01*
X212011106Y-60066081D01*
X212039077Y-60616358D01*
X212195847Y-60994833D01*
X212436790Y-61062822D01*
X213228702Y-60270910D01*
X212436790Y-59478998D01*
X212195847Y-59546987D01*
X212011106Y-60066081D01*
X206112307Y-60066081D01*
X206112307Y-59299393D01*
X212616395Y-59299393D01*
X213408307Y-60091305D01*
X214200219Y-59299393D01*
X214132230Y-59058450D01*
X213613136Y-58873709D01*
X213062859Y-58901680D01*
X212684384Y-59058450D01*
X212616395Y-59299393D01*
X206112307Y-59299393D01*
X206112307Y-53289808D01*
X227002997Y-53289808D01*
X227002997Y-53617867D01*
X227161747Y-53776617D01*
X228210997Y-53776617D01*
X228210997Y-52939867D01*
X228464997Y-52939867D01*
X228464997Y-53776617D01*
X229514247Y-53776617D01*
X229672997Y-53617867D01*
X229672997Y-53289808D01*
X229576324Y-53056419D01*
X229397696Y-52877790D01*
X229164307Y-52781117D01*
X228623747Y-52781117D01*
X228464997Y-52939867D01*
X228210997Y-52939867D01*
X228052247Y-52781117D01*
X227511687Y-52781117D01*
X227278298Y-52877790D01*
X227099670Y-53056419D01*
X227002997Y-53289808D01*
X206112307Y-53289808D01*
X206112307Y-52422427D01*
X244386395Y-52422427D01*
X244454384Y-52663370D01*
X244973478Y-52848111D01*
X245523755Y-52820140D01*
X245902230Y-52663370D01*
X245970219Y-52422427D01*
X245178307Y-51630515D01*
X244386395Y-52422427D01*
X206112307Y-52422427D01*
X206112307Y-51246081D01*
X243781106Y-51246081D01*
X243809077Y-51796358D01*
X243965847Y-52174833D01*
X244206790Y-52242822D01*
X244998702Y-51450910D01*
X244206790Y-50658998D01*
X243965847Y-50726987D01*
X243781106Y-51246081D01*
X206112307Y-51246081D01*
X206112307Y-50479393D01*
X244386395Y-50479393D01*
X245178307Y-51271305D01*
X245970219Y-50479393D01*
X245902230Y-50238450D01*
X245383136Y-50053709D01*
X244832859Y-50081680D01*
X244454384Y-50238450D01*
X244386395Y-50479393D01*
X206112307Y-50479393D01*
X206112307Y-33780195D01*
X243368307Y-33780195D01*
X243368307Y-39421624D01*
X247188307Y-39421624D01*
X247188307Y-35616660D01*
X250683307Y-35616660D01*
X250683307Y-37997220D01*
X250779980Y-38230609D01*
X250958609Y-38409237D01*
X251191998Y-38505910D01*
X251782557Y-38505910D01*
X251941307Y-38347160D01*
X251941307Y-35457910D01*
X252195307Y-35457910D01*
X252195307Y-38347160D01*
X252354057Y-38505910D01*
X252944616Y-38505910D01*
X253178005Y-38409237D01*
X253356634Y-38230609D01*
X253453307Y-37997220D01*
X253453307Y-35616660D01*
X253294557Y-35457910D01*
X252195307Y-35457910D01*
X251941307Y-35457910D01*
X250842057Y-35457910D01*
X250683307Y-35616660D01*
X247188307Y-35616660D01*
X247188307Y-33780195D01*
X243368307Y-33780195D01*
X206112307Y-33780195D01*
X206112307Y-33290910D01*
X250683307Y-33290910D01*
X250683307Y-35045160D01*
G36*
X259183307Y-35045160D02*
X259342057Y-35203910D01*
X260441307Y-35203910D01*
X260441307Y-35183910D01*
X260695307Y-35183910D01*
X260695307Y-35203910D01*
X261794557Y-35203910D01*
X261953307Y-35045160D01*
X261953307Y-33290910D01*
X264128308Y-33290910D01*
X264128308Y-52225910D01*
X262364057Y-52225910D01*
X262205307Y-52384660D01*
X262205307Y-53483910D01*
X262225307Y-53483910D01*
X262225307Y-53737910D01*
X262205307Y-53737910D01*
X262205307Y-54837160D01*
X262364057Y-54995910D01*
X264128308Y-54995910D01*
X264128308Y-56463470D01*
X259538307Y-56463470D01*
X259290542Y-56512753D01*
X259080498Y-56653101D01*
X258940150Y-56863145D01*
X258894797Y-57091150D01*
X257530858Y-57091150D01*
X257456078Y-56979234D01*
X257360918Y-56915650D01*
X257456078Y-56852066D01*
X257649264Y-56562944D01*
X257692602Y-56345068D01*
X257880818Y-56219306D01*
X258346934Y-55521714D01*
X258469296Y-54906558D01*
X258469296Y-53896660D01*
X258903307Y-53896660D01*
X258903307Y-54487219D01*
X258999980Y-54720608D01*
X259178608Y-54899237D01*
X259411997Y-54995910D01*
X261792557Y-54995910D01*
X261951307Y-54837160D01*
X261951307Y-53737910D01*
X259062057Y-53737910D01*
X258903307Y-53896660D01*
X258469296Y-53896660D01*
X258469296Y-52734601D01*
X258903307Y-52734601D01*
X258903307Y-53325160D01*
X259062057Y-53483910D01*
X261951307Y-53483910D01*
X261951307Y-52384660D01*
X261792557Y-52225910D01*
X259411997Y-52225910D01*
X259178608Y-52322583D01*
X258999980Y-52501212D01*
X258903307Y-52734601D01*
X258469296Y-52734601D01*
X258469296Y-35616660D01*
X259183307Y-35616660D01*
X259183307Y-37997220D01*
X259279980Y-38230609D01*
X259458609Y-38409237D01*
X259691998Y-38505910D01*
X260282557Y-38505910D01*
X260441307Y-38347160D01*
X260441307Y-35457910D01*
X260695307Y-35457910D01*
X260695307Y-38347160D01*
X260854057Y-38505910D01*
X261444616Y-38505910D01*
X261678005Y-38409237D01*
X261856634Y-38230609D01*
X261953307Y-37997220D01*
X261953307Y-35616660D01*
X261794557Y-35457910D01*
X260695307Y-35457910D01*
X260441307Y-35457910D01*
X259342057Y-35457910D01*
X259183307Y-35616660D01*
X258469296Y-35616660D01*
X258469296Y-34933190D01*
X258346934Y-34318034D01*
X257880818Y-33620442D01*
X257715747Y-33510145D01*
X257715747Y-33290910D01*
X259183307Y-33290910D01*
X259183307Y-35045160D01*
X259183307Y-35045160D01*
G37*
X259183307Y-35045160D02*
X259342057Y-35203910D01*
X260441307Y-35203910D01*
X260441307Y-35183910D01*
X260695307Y-35183910D01*
X260695307Y-35203910D01*
X261794557Y-35203910D01*
X261953307Y-35045160D01*
X261953307Y-33290910D01*
X264128308Y-33290910D01*
X264128308Y-52225910D01*
X262364057Y-52225910D01*
X262205307Y-52384660D01*
X262205307Y-53483910D01*
X262225307Y-53483910D01*
X262225307Y-53737910D01*
X262205307Y-53737910D01*
X262205307Y-54837160D01*
X262364057Y-54995910D01*
X264128308Y-54995910D01*
X264128308Y-56463470D01*
X259538307Y-56463470D01*
X259290542Y-56512753D01*
X259080498Y-56653101D01*
X258940150Y-56863145D01*
X258894797Y-57091150D01*
X257530858Y-57091150D01*
X257456078Y-56979234D01*
X257360918Y-56915650D01*
X257456078Y-56852066D01*
X257649264Y-56562944D01*
X257692602Y-56345068D01*
X257880818Y-56219306D01*
X258346934Y-55521714D01*
X258469296Y-54906558D01*
X258469296Y-53896660D01*
X258903307Y-53896660D01*
X258903307Y-54487219D01*
X258999980Y-54720608D01*
X259178608Y-54899237D01*
X259411997Y-54995910D01*
X261792557Y-54995910D01*
X261951307Y-54837160D01*
X261951307Y-53737910D01*
X259062057Y-53737910D01*
X258903307Y-53896660D01*
X258469296Y-53896660D01*
X258469296Y-52734601D01*
X258903307Y-52734601D01*
X258903307Y-53325160D01*
X259062057Y-53483910D01*
X261951307Y-53483910D01*
X261951307Y-52384660D01*
X261792557Y-52225910D01*
X259411997Y-52225910D01*
X259178608Y-52322583D01*
X258999980Y-52501212D01*
X258903307Y-52734601D01*
X258469296Y-52734601D01*
X258469296Y-35616660D01*
X259183307Y-35616660D01*
X259183307Y-37997220D01*
X259279980Y-38230609D01*
X259458609Y-38409237D01*
X259691998Y-38505910D01*
X260282557Y-38505910D01*
X260441307Y-38347160D01*
X260441307Y-35457910D01*
X260695307Y-35457910D01*
X260695307Y-38347160D01*
X260854057Y-38505910D01*
X261444616Y-38505910D01*
X261678005Y-38409237D01*
X261856634Y-38230609D01*
X261953307Y-37997220D01*
X261953307Y-35616660D01*
X261794557Y-35457910D01*
X260695307Y-35457910D01*
X260441307Y-35457910D01*
X259342057Y-35457910D01*
X259183307Y-35616660D01*
X258469296Y-35616660D01*
X258469296Y-34933190D01*
X258346934Y-34318034D01*
X257880818Y-33620442D01*
X257715747Y-33510145D01*
X257715747Y-33290910D01*
X259183307Y-33290910D01*
X259183307Y-35045160D01*
G04 #@! TD*
M02*
