M48
;DRILL file {KiCad (6.0.0-rc1-dev-305-gf0b8b21)} date Thursday, November 29, 2018 at 05:33:36 PM
;FORMAT={2:4/ absolute / inch / suppress leading zeros}
FMAT,2
INCH,TZ
T1C0.0200
T2C0.0354
T3C0.0354
T4C0.0433
T5C0.0600
%
G90
G05
M72
T1
X86200Y-20807
X86602Y-40977
X88102Y-29500
X92944Y-18433
X95728Y-30437
X102984Y-16929
T2
X96519Y-22642
X97519Y-22642
X96543Y-27272
X97543Y-27272
X84023Y-25004
X85023Y-25004
X96527Y-20256
X97527Y-20256
X96523Y-24989
X97523Y-24989
X84023Y-26331
X85023Y-26331
X83771Y-43563
X83771Y-44563
X84019Y-23729
X85019Y-23729
T3
X88467Y-35528
X89467Y-35528
T4
X85407Y-44562
X89407Y-44562
T5
X91767Y-40628
X91767Y-41632
X91767Y-42636
T0
M30
