G04 #@! TF.GenerationSoftware,KiCad,Pcbnew,(6.0.0-rc1-dev-305-gf0b8b21)*
G04 #@! TF.CreationDate,2018-11-28T21:02:02-08:00*
G04 #@! TF.ProjectId,EE173_Lab4,45453137335F4C6162342E6B69636164,rev?*
G04 #@! TF.SameCoordinates,Original*
G04 #@! TF.FileFunction,Soldermask,Top*
G04 #@! TF.FilePolarity,Negative*
%FSLAX46Y46*%
G04 Gerber Fmt 4.6, Leading zero omitted, Abs format (unit mm)*
G04 Created by KiCad (PCBNEW (6.0.0-rc1-dev-305-gf0b8b21)) date Wednesday, November 28, 2018 at 09:02:02 PM*
%MOMM*%
%LPD*%
G01*
G04 APERTURE LIST*
%ADD10C,0.100000*%
G04 APERTURE END LIST*
D10*
G36*
X251811000Y-83461000D02*
X250209000Y-83461000D01*
X250209000Y-81859000D01*
X251811000Y-81859000D01*
X251811000Y-83461000D01*
X251811000Y-83461000D01*
G37*
G36*
X248703643Y-81889781D02*
X248849415Y-81950162D01*
X248980611Y-82037824D01*
X249092176Y-82149389D01*
X249179838Y-82280585D01*
X249240219Y-82426357D01*
X249271000Y-82581107D01*
X249271000Y-82738893D01*
X249240219Y-82893643D01*
X249179838Y-83039415D01*
X249092176Y-83170611D01*
X248980611Y-83282176D01*
X248849415Y-83369838D01*
X248703643Y-83430219D01*
X248548893Y-83461000D01*
X248391107Y-83461000D01*
X248236357Y-83430219D01*
X248090585Y-83369838D01*
X247959389Y-83282176D01*
X247847824Y-83170611D01*
X247760162Y-83039415D01*
X247699781Y-82893643D01*
X247669000Y-82738893D01*
X247669000Y-82581107D01*
X247699781Y-82426357D01*
X247760162Y-82280585D01*
X247847824Y-82149389D01*
X247959389Y-82037824D01*
X248090585Y-81950162D01*
X248236357Y-81889781D01*
X248391107Y-81859000D01*
X248548893Y-81859000D01*
X248703643Y-81889781D01*
X248703643Y-81889781D01*
G37*
G36*
X257165966Y-81930565D02*
X257204637Y-81942296D01*
X257240279Y-81961348D01*
X257271517Y-81986983D01*
X257297152Y-82018221D01*
X257316204Y-82053863D01*
X257327935Y-82092534D01*
X257332500Y-82138888D01*
X257332500Y-83215112D01*
X257327935Y-83261466D01*
X257316204Y-83300137D01*
X257297152Y-83335779D01*
X257271517Y-83367017D01*
X257240279Y-83392652D01*
X257204637Y-83411704D01*
X257165966Y-83423435D01*
X257119612Y-83428000D01*
X256468388Y-83428000D01*
X256422034Y-83423435D01*
X256383363Y-83411704D01*
X256347721Y-83392652D01*
X256316483Y-83367017D01*
X256290848Y-83335779D01*
X256271796Y-83300137D01*
X256260065Y-83261466D01*
X256255500Y-83215112D01*
X256255500Y-82138888D01*
X256260065Y-82092534D01*
X256271796Y-82053863D01*
X256290848Y-82018221D01*
X256316483Y-81986983D01*
X256347721Y-81961348D01*
X256383363Y-81942296D01*
X256422034Y-81930565D01*
X256468388Y-81926000D01*
X257119612Y-81926000D01*
X257165966Y-81930565D01*
X257165966Y-81930565D01*
G37*
G36*
X255290966Y-81930565D02*
X255329637Y-81942296D01*
X255365279Y-81961348D01*
X255396517Y-81986983D01*
X255422152Y-82018221D01*
X255441204Y-82053863D01*
X255452935Y-82092534D01*
X255457500Y-82138888D01*
X255457500Y-83215112D01*
X255452935Y-83261466D01*
X255441204Y-83300137D01*
X255422152Y-83335779D01*
X255396517Y-83367017D01*
X255365279Y-83392652D01*
X255329637Y-83411704D01*
X255290966Y-83423435D01*
X255244612Y-83428000D01*
X254593388Y-83428000D01*
X254547034Y-83423435D01*
X254508363Y-83411704D01*
X254472721Y-83392652D01*
X254441483Y-83367017D01*
X254415848Y-83335779D01*
X254396796Y-83300137D01*
X254385065Y-83261466D01*
X254380500Y-83215112D01*
X254380500Y-82138888D01*
X254385065Y-82092534D01*
X254396796Y-82053863D01*
X254415848Y-82018221D01*
X254441483Y-81986983D01*
X254472721Y-81961348D01*
X254508363Y-81942296D01*
X254547034Y-81930565D01*
X254593388Y-81926000D01*
X255244612Y-81926000D01*
X255290966Y-81930565D01*
X255290966Y-81930565D01*
G37*
G36*
X251741000Y-78631000D02*
X250139000Y-78631000D01*
X250139000Y-77029000D01*
X251741000Y-77029000D01*
X251741000Y-78631000D01*
X251741000Y-78631000D01*
G37*
G36*
X248633643Y-77059781D02*
X248779415Y-77120162D01*
X248910611Y-77207824D01*
X249022176Y-77319389D01*
X249109838Y-77450585D01*
X249170219Y-77596357D01*
X249201000Y-77751107D01*
X249201000Y-77908893D01*
X249170219Y-78063643D01*
X249109838Y-78209415D01*
X249022176Y-78340611D01*
X248910611Y-78452176D01*
X248779415Y-78539838D01*
X248633643Y-78600219D01*
X248478893Y-78631000D01*
X248321107Y-78631000D01*
X248166357Y-78600219D01*
X248020585Y-78539838D01*
X247889389Y-78452176D01*
X247777824Y-78340611D01*
X247690162Y-78209415D01*
X247629781Y-78063643D01*
X247599000Y-77908893D01*
X247599000Y-77751107D01*
X247629781Y-77596357D01*
X247690162Y-77450585D01*
X247777824Y-77319389D01*
X247889389Y-77207824D01*
X248020585Y-77120162D01*
X248166357Y-77059781D01*
X248321107Y-77029000D01*
X248478893Y-77029000D01*
X248633643Y-77059781D01*
X248633643Y-77059781D01*
G37*
G36*
X257171966Y-77104565D02*
X257210637Y-77116296D01*
X257246279Y-77135348D01*
X257277517Y-77160983D01*
X257303152Y-77192221D01*
X257322204Y-77227863D01*
X257333935Y-77266534D01*
X257338500Y-77312888D01*
X257338500Y-78389112D01*
X257333935Y-78435466D01*
X257322204Y-78474137D01*
X257303152Y-78509779D01*
X257277517Y-78541017D01*
X257246279Y-78566652D01*
X257210637Y-78585704D01*
X257171966Y-78597435D01*
X257125612Y-78602000D01*
X256474388Y-78602000D01*
X256428034Y-78597435D01*
X256389363Y-78585704D01*
X256353721Y-78566652D01*
X256322483Y-78541017D01*
X256296848Y-78509779D01*
X256277796Y-78474137D01*
X256266065Y-78435466D01*
X256261500Y-78389112D01*
X256261500Y-77312888D01*
X256266065Y-77266534D01*
X256277796Y-77227863D01*
X256296848Y-77192221D01*
X256322483Y-77160983D01*
X256353721Y-77135348D01*
X256389363Y-77116296D01*
X256428034Y-77104565D01*
X256474388Y-77100000D01*
X257125612Y-77100000D01*
X257171966Y-77104565D01*
X257171966Y-77104565D01*
G37*
G36*
X255296966Y-77104565D02*
X255335637Y-77116296D01*
X255371279Y-77135348D01*
X255402517Y-77160983D01*
X255428152Y-77192221D01*
X255447204Y-77227863D01*
X255458935Y-77266534D01*
X255463500Y-77312888D01*
X255463500Y-78389112D01*
X255458935Y-78435466D01*
X255447204Y-78474137D01*
X255428152Y-78509779D01*
X255402517Y-78541017D01*
X255371279Y-78566652D01*
X255335637Y-78585704D01*
X255296966Y-78597435D01*
X255250612Y-78602000D01*
X254599388Y-78602000D01*
X254553034Y-78597435D01*
X254514363Y-78585704D01*
X254478721Y-78566652D01*
X254447483Y-78541017D01*
X254421848Y-78509779D01*
X254402796Y-78474137D01*
X254391065Y-78435466D01*
X254386500Y-78389112D01*
X254386500Y-77312888D01*
X254391065Y-77266534D01*
X254402796Y-77227863D01*
X254421848Y-77192221D01*
X254447483Y-77160983D01*
X254478721Y-77135348D01*
X254514363Y-77116296D01*
X254553034Y-77104565D01*
X254599388Y-77100000D01*
X255250612Y-77100000D01*
X255296966Y-77104565D01*
X255296966Y-77104565D01*
G37*
G36*
X251691000Y-74031000D02*
X250089000Y-74031000D01*
X250089000Y-72429000D01*
X251691000Y-72429000D01*
X251691000Y-74031000D01*
X251691000Y-74031000D01*
G37*
G36*
X248583643Y-72459781D02*
X248729415Y-72520162D01*
X248860611Y-72607824D01*
X248972176Y-72719389D01*
X249059838Y-72850585D01*
X249120219Y-72996357D01*
X249151000Y-73151107D01*
X249151000Y-73308893D01*
X249120219Y-73463643D01*
X249059838Y-73609415D01*
X248972176Y-73740611D01*
X248860611Y-73852176D01*
X248729415Y-73939838D01*
X248583643Y-74000219D01*
X248428893Y-74031000D01*
X248271107Y-74031000D01*
X248116357Y-74000219D01*
X247970585Y-73939838D01*
X247839389Y-73852176D01*
X247727824Y-73740611D01*
X247640162Y-73609415D01*
X247579781Y-73463643D01*
X247549000Y-73308893D01*
X247549000Y-73151107D01*
X247579781Y-72996357D01*
X247640162Y-72850585D01*
X247727824Y-72719389D01*
X247839389Y-72607824D01*
X247970585Y-72520162D01*
X248116357Y-72459781D01*
X248271107Y-72429000D01*
X248428893Y-72429000D01*
X248583643Y-72459781D01*
X248583643Y-72459781D01*
G37*
G36*
X251731000Y-69661000D02*
X250129000Y-69661000D01*
X250129000Y-68059000D01*
X251731000Y-68059000D01*
X251731000Y-69661000D01*
X251731000Y-69661000D01*
G37*
G36*
X248623643Y-68089781D02*
X248769415Y-68150162D01*
X248900611Y-68237824D01*
X249012176Y-68349389D01*
X249099838Y-68480585D01*
X249160219Y-68626357D01*
X249191000Y-68781107D01*
X249191000Y-68938893D01*
X249160219Y-69093643D01*
X249099838Y-69239415D01*
X249012176Y-69370611D01*
X248900611Y-69482176D01*
X248769415Y-69569838D01*
X248623643Y-69630219D01*
X248468893Y-69661000D01*
X248311107Y-69661000D01*
X248156357Y-69630219D01*
X248010585Y-69569838D01*
X247879389Y-69482176D01*
X247767824Y-69370611D01*
X247680162Y-69239415D01*
X247619781Y-69093643D01*
X247589000Y-68938893D01*
X247589000Y-68781107D01*
X247619781Y-68626357D01*
X247680162Y-68480585D01*
X247767824Y-68349389D01*
X247879389Y-68237824D01*
X248010585Y-68150162D01*
X248156357Y-68089781D01*
X248311107Y-68059000D01*
X248468893Y-68059000D01*
X248623643Y-68089781D01*
X248623643Y-68089781D01*
G37*
G36*
X263007950Y-66477950D02*
X260912050Y-66477950D01*
X260912050Y-64382050D01*
X263007950Y-64382050D01*
X263007950Y-66477950D01*
X263007950Y-66477950D01*
G37*
G36*
X257927950Y-66477950D02*
X255832050Y-66477950D01*
X255832050Y-64382050D01*
X257927950Y-64382050D01*
X257927950Y-66477950D01*
X257927950Y-66477950D01*
G37*
G36*
X245668707Y-64866310D02*
X245007907Y-64866310D01*
X245007907Y-62783110D01*
X245668707Y-62783110D01*
X245668707Y-64866310D01*
X245668707Y-64866310D01*
G37*
G36*
X244398707Y-64866310D02*
X243737907Y-64866310D01*
X243737907Y-62783110D01*
X244398707Y-62783110D01*
X244398707Y-64866310D01*
X244398707Y-64866310D01*
G37*
G36*
X243128707Y-64866310D02*
X242467907Y-64866310D01*
X242467907Y-62783110D01*
X243128707Y-62783110D01*
X243128707Y-64866310D01*
X243128707Y-64866310D01*
G37*
G36*
X241858707Y-64866310D02*
X241197907Y-64866310D01*
X241197907Y-62783110D01*
X241858707Y-62783110D01*
X241858707Y-64866310D01*
X241858707Y-64866310D01*
G37*
G36*
X240588707Y-64866310D02*
X239927907Y-64866310D01*
X239927907Y-62783110D01*
X240588707Y-62783110D01*
X240588707Y-64866310D01*
X240588707Y-64866310D01*
G37*
G36*
X239318707Y-64866310D02*
X238657907Y-64866310D01*
X238657907Y-62783110D01*
X239318707Y-62783110D01*
X239318707Y-64866310D01*
X239318707Y-64866310D01*
G37*
G36*
X238048707Y-64866310D02*
X237387907Y-64866310D01*
X237387907Y-62783110D01*
X238048707Y-62783110D01*
X238048707Y-64866310D01*
X238048707Y-64866310D01*
G37*
G36*
X260467950Y-63937950D02*
X258372050Y-63937950D01*
X258372050Y-61842050D01*
X260467950Y-61842050D01*
X260467950Y-63937950D01*
X260467950Y-63937950D01*
G37*
G36*
X190576466Y-60474565D02*
X190615137Y-60486296D01*
X190650779Y-60505348D01*
X190682017Y-60530983D01*
X190707652Y-60562221D01*
X190726704Y-60597863D01*
X190738435Y-60636534D01*
X190743000Y-60682888D01*
X190743000Y-61334112D01*
X190738435Y-61380466D01*
X190726704Y-61419137D01*
X190707652Y-61454779D01*
X190682017Y-61486017D01*
X190650779Y-61511652D01*
X190615137Y-61530704D01*
X190576466Y-61542435D01*
X190530112Y-61547000D01*
X189453888Y-61547000D01*
X189407534Y-61542435D01*
X189368863Y-61530704D01*
X189333221Y-61511652D01*
X189301983Y-61486017D01*
X189276348Y-61454779D01*
X189257296Y-61419137D01*
X189245565Y-61380466D01*
X189241000Y-61334112D01*
X189241000Y-60682888D01*
X189245565Y-60636534D01*
X189257296Y-60597863D01*
X189276348Y-60562221D01*
X189301983Y-60530983D01*
X189333221Y-60505348D01*
X189368863Y-60486296D01*
X189407534Y-60474565D01*
X189453888Y-60470000D01*
X190530112Y-60470000D01*
X190576466Y-60474565D01*
X190576466Y-60474565D01*
G37*
G36*
X234264466Y-60347565D02*
X234303137Y-60359296D01*
X234338779Y-60378348D01*
X234370017Y-60403983D01*
X234395652Y-60435221D01*
X234414704Y-60470863D01*
X234426435Y-60509534D01*
X234431000Y-60555888D01*
X234431000Y-61207112D01*
X234426435Y-61253466D01*
X234414704Y-61292137D01*
X234395652Y-61327779D01*
X234370017Y-61359017D01*
X234338779Y-61384652D01*
X234303137Y-61403704D01*
X234264466Y-61415435D01*
X234218112Y-61420000D01*
X233141888Y-61420000D01*
X233095534Y-61415435D01*
X233056863Y-61403704D01*
X233021221Y-61384652D01*
X232989983Y-61359017D01*
X232964348Y-61327779D01*
X232945296Y-61292137D01*
X232933565Y-61253466D01*
X232929000Y-61207112D01*
X232929000Y-60555888D01*
X232933565Y-60509534D01*
X232945296Y-60470863D01*
X232964348Y-60435221D01*
X232989983Y-60403983D01*
X233021221Y-60378348D01*
X233056863Y-60359296D01*
X233095534Y-60347565D01*
X233141888Y-60343000D01*
X234218112Y-60343000D01*
X234264466Y-60347565D01*
X234264466Y-60347565D01*
G37*
G36*
X263007950Y-61397950D02*
X260912050Y-61397950D01*
X260912050Y-59302050D01*
X263007950Y-59302050D01*
X263007950Y-61397950D01*
X263007950Y-61397950D01*
G37*
G36*
X257927950Y-61397950D02*
X255832050Y-61397950D01*
X255832050Y-59302050D01*
X257927950Y-59302050D01*
X257927950Y-61397950D01*
X257927950Y-61397950D01*
G37*
G36*
X205140470Y-60245559D02*
X205179141Y-60257290D01*
X205214783Y-60276342D01*
X205246021Y-60301977D01*
X205271656Y-60333215D01*
X205290708Y-60368857D01*
X205302439Y-60407528D01*
X205307004Y-60453882D01*
X205307004Y-61105106D01*
X205302439Y-61151460D01*
X205290708Y-61190131D01*
X205271656Y-61225773D01*
X205246021Y-61257011D01*
X205214783Y-61282646D01*
X205179141Y-61301698D01*
X205140470Y-61313429D01*
X205094116Y-61317994D01*
X204017892Y-61317994D01*
X203971538Y-61313429D01*
X203932867Y-61301698D01*
X203897225Y-61282646D01*
X203865987Y-61257011D01*
X203840352Y-61225773D01*
X203821300Y-61190131D01*
X203809569Y-61151460D01*
X203805004Y-61105106D01*
X203805004Y-60453882D01*
X203809569Y-60407528D01*
X203821300Y-60368857D01*
X203840352Y-60333215D01*
X203865987Y-60301977D01*
X203897225Y-60276342D01*
X203932867Y-60257290D01*
X203971538Y-60245559D01*
X204017892Y-60240994D01*
X205094116Y-60240994D01*
X205140470Y-60245559D01*
X205140470Y-60245559D01*
G37*
G36*
X200295235Y-58053997D02*
X200489419Y-58134431D01*
X200664180Y-58251203D01*
X200812795Y-58399818D01*
X200929567Y-58574579D01*
X201010001Y-58768763D01*
X201051004Y-58974902D01*
X201051004Y-59185086D01*
X201010001Y-59391225D01*
X200929567Y-59585409D01*
X200812795Y-59760170D01*
X200664180Y-59908785D01*
X200489419Y-60025557D01*
X200295235Y-60105991D01*
X200089096Y-60146994D01*
X199878912Y-60146994D01*
X199672773Y-60105991D01*
X199478589Y-60025557D01*
X199303828Y-59908785D01*
X199155213Y-59760170D01*
X199038441Y-59585409D01*
X198958007Y-59391225D01*
X198917004Y-59185086D01*
X198917004Y-58974902D01*
X198958007Y-58768763D01*
X199038441Y-58574579D01*
X199155213Y-58399818D01*
X199303828Y-58251203D01*
X199478589Y-58134431D01*
X199672773Y-58053997D01*
X199878912Y-58012994D01*
X200089096Y-58012994D01*
X200295235Y-58053997D01*
X200295235Y-58053997D01*
G37*
G36*
X197745235Y-58053997D02*
X197939419Y-58134431D01*
X198114180Y-58251203D01*
X198262795Y-58399818D01*
X198379567Y-58574579D01*
X198460001Y-58768763D01*
X198501004Y-58974902D01*
X198501004Y-59185086D01*
X198460001Y-59391225D01*
X198379567Y-59585409D01*
X198262795Y-59760170D01*
X198114180Y-59908785D01*
X197939419Y-60025557D01*
X197745235Y-60105991D01*
X197539096Y-60146994D01*
X197328912Y-60146994D01*
X197122773Y-60105991D01*
X196928589Y-60025557D01*
X196753828Y-59908785D01*
X196605213Y-59760170D01*
X196488441Y-59585409D01*
X196408007Y-59391225D01*
X196367004Y-59185086D01*
X196367004Y-58974902D01*
X196408007Y-58768763D01*
X196488441Y-58574579D01*
X196605213Y-58399818D01*
X196753828Y-58251203D01*
X196928589Y-58134431D01*
X197122773Y-58053997D01*
X197328912Y-58012994D01*
X197539096Y-58012994D01*
X197745235Y-58053997D01*
X197745235Y-58053997D01*
G37*
G36*
X195951004Y-60146994D02*
X193817004Y-60146994D01*
X193817004Y-58012994D01*
X195951004Y-58012994D01*
X195951004Y-60146994D01*
X195951004Y-60146994D01*
G37*
G36*
X238048707Y-59938710D02*
X237387907Y-59938710D01*
X237387907Y-57855510D01*
X238048707Y-57855510D01*
X238048707Y-59938710D01*
X238048707Y-59938710D01*
G37*
G36*
X239318707Y-59938710D02*
X238657907Y-59938710D01*
X238657907Y-57855510D01*
X239318707Y-57855510D01*
X239318707Y-59938710D01*
X239318707Y-59938710D01*
G37*
G36*
X240588707Y-59938710D02*
X239927907Y-59938710D01*
X239927907Y-57855510D01*
X240588707Y-57855510D01*
X240588707Y-59938710D01*
X240588707Y-59938710D01*
G37*
G36*
X241858707Y-59938710D02*
X241197907Y-59938710D01*
X241197907Y-57855510D01*
X241858707Y-57855510D01*
X241858707Y-59938710D01*
X241858707Y-59938710D01*
G37*
G36*
X243128707Y-59938710D02*
X242467907Y-59938710D01*
X242467907Y-57855510D01*
X243128707Y-57855510D01*
X243128707Y-59938710D01*
X243128707Y-59938710D01*
G37*
G36*
X244398707Y-59938710D02*
X243737907Y-59938710D01*
X243737907Y-57855510D01*
X244398707Y-57855510D01*
X244398707Y-59938710D01*
X244398707Y-59938710D01*
G37*
G36*
X245668707Y-59938710D02*
X245007907Y-59938710D01*
X245007907Y-57855510D01*
X245668707Y-57855510D01*
X245668707Y-59938710D01*
X245668707Y-59938710D01*
G37*
G36*
X190576466Y-58599565D02*
X190615137Y-58611296D01*
X190650779Y-58630348D01*
X190682017Y-58655983D01*
X190707652Y-58687221D01*
X190726704Y-58722863D01*
X190738435Y-58761534D01*
X190743000Y-58807888D01*
X190743000Y-59459112D01*
X190738435Y-59505466D01*
X190726704Y-59544137D01*
X190707652Y-59579779D01*
X190682017Y-59611017D01*
X190650779Y-59636652D01*
X190615137Y-59655704D01*
X190576466Y-59667435D01*
X190530112Y-59672000D01*
X189453888Y-59672000D01*
X189407534Y-59667435D01*
X189368863Y-59655704D01*
X189333221Y-59636652D01*
X189301983Y-59611017D01*
X189276348Y-59579779D01*
X189257296Y-59544137D01*
X189245565Y-59505466D01*
X189241000Y-59459112D01*
X189241000Y-58807888D01*
X189245565Y-58761534D01*
X189257296Y-58722863D01*
X189276348Y-58687221D01*
X189301983Y-58655983D01*
X189333221Y-58630348D01*
X189368863Y-58611296D01*
X189407534Y-58599565D01*
X189453888Y-58595000D01*
X190530112Y-58595000D01*
X190576466Y-58599565D01*
X190576466Y-58599565D01*
G37*
G36*
X234264466Y-58472565D02*
X234303137Y-58484296D01*
X234338779Y-58503348D01*
X234370017Y-58528983D01*
X234395652Y-58560221D01*
X234414704Y-58595863D01*
X234426435Y-58634534D01*
X234431000Y-58680888D01*
X234431000Y-59332112D01*
X234426435Y-59378466D01*
X234414704Y-59417137D01*
X234395652Y-59452779D01*
X234370017Y-59484017D01*
X234338779Y-59509652D01*
X234303137Y-59528704D01*
X234264466Y-59540435D01*
X234218112Y-59545000D01*
X233141888Y-59545000D01*
X233095534Y-59540435D01*
X233056863Y-59528704D01*
X233021221Y-59509652D01*
X232989983Y-59484017D01*
X232964348Y-59452779D01*
X232945296Y-59417137D01*
X232933565Y-59378466D01*
X232929000Y-59332112D01*
X232929000Y-58680888D01*
X232933565Y-58634534D01*
X232945296Y-58595863D01*
X232964348Y-58560221D01*
X232989983Y-58528983D01*
X233021221Y-58503348D01*
X233056863Y-58484296D01*
X233095534Y-58472565D01*
X233141888Y-58468000D01*
X234218112Y-58468000D01*
X234264466Y-58472565D01*
X234264466Y-58472565D01*
G37*
G36*
X213522470Y-58389059D02*
X213561141Y-58400790D01*
X213596783Y-58419842D01*
X213628021Y-58445477D01*
X213653656Y-58476715D01*
X213672708Y-58512357D01*
X213684439Y-58551028D01*
X213689004Y-58597382D01*
X213689004Y-59248606D01*
X213684439Y-59294960D01*
X213672708Y-59333631D01*
X213653656Y-59369273D01*
X213628021Y-59400511D01*
X213596783Y-59426146D01*
X213561141Y-59445198D01*
X213522470Y-59456929D01*
X213476116Y-59461494D01*
X212399892Y-59461494D01*
X212353538Y-59456929D01*
X212314867Y-59445198D01*
X212279225Y-59426146D01*
X212247987Y-59400511D01*
X212222352Y-59369273D01*
X212203300Y-59333631D01*
X212191569Y-59294960D01*
X212187004Y-59248606D01*
X212187004Y-58597382D01*
X212191569Y-58551028D01*
X212203300Y-58512357D01*
X212222352Y-58476715D01*
X212247987Y-58445477D01*
X212279225Y-58419842D01*
X212314867Y-58400790D01*
X212353538Y-58389059D01*
X212399892Y-58384494D01*
X213476116Y-58384494D01*
X213522470Y-58389059D01*
X213522470Y-58389059D01*
G37*
G36*
X205140470Y-58370559D02*
X205179141Y-58382290D01*
X205214783Y-58401342D01*
X205246021Y-58426977D01*
X205271656Y-58458215D01*
X205290708Y-58493857D01*
X205302439Y-58532528D01*
X205307004Y-58578882D01*
X205307004Y-59230106D01*
X205302439Y-59276460D01*
X205290708Y-59315131D01*
X205271656Y-59350773D01*
X205246021Y-59382011D01*
X205214783Y-59407646D01*
X205179141Y-59426698D01*
X205140470Y-59438429D01*
X205094116Y-59442994D01*
X204017892Y-59442994D01*
X203971538Y-59438429D01*
X203932867Y-59426698D01*
X203897225Y-59407646D01*
X203865987Y-59382011D01*
X203840352Y-59350773D01*
X203821300Y-59315131D01*
X203809569Y-59276460D01*
X203805004Y-59230106D01*
X203805004Y-58578882D01*
X203809569Y-58532528D01*
X203821300Y-58493857D01*
X203840352Y-58458215D01*
X203865987Y-58426977D01*
X203897225Y-58401342D01*
X203932867Y-58382290D01*
X203971538Y-58370559D01*
X204017892Y-58365994D01*
X205094116Y-58365994D01*
X205140470Y-58370559D01*
X205140470Y-58370559D01*
G37*
G36*
X260014128Y-57319215D02*
X260052799Y-57330946D01*
X260088441Y-57349998D01*
X260119679Y-57375633D01*
X260145314Y-57406871D01*
X260164366Y-57442513D01*
X260176097Y-57481184D01*
X260180662Y-57527538D01*
X260180662Y-58178762D01*
X260176097Y-58225116D01*
X260164366Y-58263787D01*
X260145314Y-58299429D01*
X260119679Y-58330667D01*
X260088441Y-58356302D01*
X260052799Y-58375354D01*
X260014128Y-58387085D01*
X259967774Y-58391650D01*
X258891550Y-58391650D01*
X258845196Y-58387085D01*
X258806525Y-58375354D01*
X258770883Y-58356302D01*
X258739645Y-58330667D01*
X258714010Y-58299429D01*
X258694958Y-58263787D01*
X258683227Y-58225116D01*
X258678662Y-58178762D01*
X258678662Y-57527538D01*
X258683227Y-57481184D01*
X258694958Y-57442513D01*
X258714010Y-57406871D01*
X258739645Y-57375633D01*
X258770883Y-57349998D01*
X258806525Y-57330946D01*
X258845196Y-57319215D01*
X258891550Y-57314650D01*
X259967774Y-57314650D01*
X260014128Y-57319215D01*
X260014128Y-57319215D01*
G37*
G36*
X213522470Y-56514059D02*
X213561141Y-56525790D01*
X213596783Y-56544842D01*
X213628021Y-56570477D01*
X213653656Y-56601715D01*
X213672708Y-56637357D01*
X213684439Y-56676028D01*
X213689004Y-56722382D01*
X213689004Y-57373606D01*
X213684439Y-57419960D01*
X213672708Y-57458631D01*
X213653656Y-57494273D01*
X213628021Y-57525511D01*
X213596783Y-57551146D01*
X213561141Y-57570198D01*
X213522470Y-57581929D01*
X213476116Y-57586494D01*
X212399892Y-57586494D01*
X212353538Y-57581929D01*
X212314867Y-57570198D01*
X212279225Y-57551146D01*
X212247987Y-57525511D01*
X212222352Y-57494273D01*
X212203300Y-57458631D01*
X212191569Y-57419960D01*
X212187004Y-57373606D01*
X212187004Y-56722382D01*
X212191569Y-56676028D01*
X212203300Y-56637357D01*
X212222352Y-56601715D01*
X212247987Y-56570477D01*
X212279225Y-56544842D01*
X212314867Y-56525790D01*
X212353538Y-56514059D01*
X212399892Y-56509494D01*
X213476116Y-56509494D01*
X213522470Y-56514059D01*
X213522470Y-56514059D01*
G37*
G36*
X260014128Y-55444215D02*
X260052799Y-55455946D01*
X260088441Y-55474998D01*
X260119679Y-55500633D01*
X260145314Y-55531871D01*
X260164366Y-55567513D01*
X260176097Y-55606184D01*
X260180662Y-55652538D01*
X260180662Y-56303762D01*
X260176097Y-56350116D01*
X260164366Y-56388787D01*
X260145314Y-56424429D01*
X260119679Y-56455667D01*
X260088441Y-56481302D01*
X260052799Y-56500354D01*
X260014128Y-56512085D01*
X259967774Y-56516650D01*
X258891550Y-56516650D01*
X258845196Y-56512085D01*
X258806525Y-56500354D01*
X258770883Y-56481302D01*
X258739645Y-56455667D01*
X258714010Y-56424429D01*
X258694958Y-56388787D01*
X258683227Y-56350116D01*
X258678662Y-56303762D01*
X258678662Y-55652538D01*
X258683227Y-55606184D01*
X258694958Y-55567513D01*
X258714010Y-55531871D01*
X258739645Y-55500633D01*
X258770883Y-55474998D01*
X258806525Y-55455946D01*
X258845196Y-55444215D01*
X258891550Y-55439650D01*
X259967774Y-55439650D01*
X260014128Y-55444215D01*
X260014128Y-55444215D01*
G37*
G36*
X247772566Y-53584165D02*
X247811237Y-53595896D01*
X247846879Y-53614948D01*
X247878117Y-53640583D01*
X247903752Y-53671821D01*
X247922804Y-53707463D01*
X247934535Y-53746134D01*
X247939100Y-53792488D01*
X247939100Y-54868712D01*
X247934535Y-54915066D01*
X247922804Y-54953737D01*
X247903752Y-54989379D01*
X247878117Y-55020617D01*
X247846879Y-55046252D01*
X247811237Y-55065304D01*
X247772566Y-55077035D01*
X247726212Y-55081600D01*
X247074988Y-55081600D01*
X247028634Y-55077035D01*
X246989963Y-55065304D01*
X246954321Y-55046252D01*
X246923083Y-55020617D01*
X246897448Y-54989379D01*
X246878396Y-54953737D01*
X246866665Y-54915066D01*
X246862100Y-54868712D01*
X246862100Y-53792488D01*
X246866665Y-53746134D01*
X246878396Y-53707463D01*
X246897448Y-53671821D01*
X246923083Y-53640583D01*
X246954321Y-53614948D01*
X246989963Y-53595896D01*
X247028634Y-53584165D01*
X247074988Y-53579600D01*
X247726212Y-53579600D01*
X247772566Y-53584165D01*
X247772566Y-53584165D01*
G37*
G36*
X249647566Y-53584165D02*
X249686237Y-53595896D01*
X249721879Y-53614948D01*
X249753117Y-53640583D01*
X249778752Y-53671821D01*
X249797804Y-53707463D01*
X249809535Y-53746134D01*
X249814100Y-53792488D01*
X249814100Y-54868712D01*
X249809535Y-54915066D01*
X249797804Y-54953737D01*
X249778752Y-54989379D01*
X249753117Y-55020617D01*
X249721879Y-55046252D01*
X249686237Y-55065304D01*
X249647566Y-55077035D01*
X249601212Y-55081600D01*
X248949988Y-55081600D01*
X248903634Y-55077035D01*
X248864963Y-55065304D01*
X248829321Y-55046252D01*
X248798083Y-55020617D01*
X248772448Y-54989379D01*
X248753396Y-54953737D01*
X248741665Y-54915066D01*
X248737100Y-54868712D01*
X248737100Y-53792488D01*
X248741665Y-53746134D01*
X248753396Y-53707463D01*
X248772448Y-53671821D01*
X248798083Y-53640583D01*
X248829321Y-53614948D01*
X248864963Y-53595896D01*
X248903634Y-53584165D01*
X248949988Y-53579600D01*
X249601212Y-53579600D01*
X249647566Y-53584165D01*
X249647566Y-53584165D01*
G37*
G36*
X239957466Y-53546065D02*
X239996137Y-53557796D01*
X240031779Y-53576848D01*
X240063017Y-53602483D01*
X240088652Y-53633721D01*
X240107704Y-53669363D01*
X240119435Y-53708034D01*
X240124000Y-53754388D01*
X240124000Y-54830612D01*
X240119435Y-54876966D01*
X240107704Y-54915637D01*
X240088652Y-54951279D01*
X240063017Y-54982517D01*
X240031779Y-55008152D01*
X239996137Y-55027204D01*
X239957466Y-55038935D01*
X239911112Y-55043500D01*
X239259888Y-55043500D01*
X239213534Y-55038935D01*
X239174863Y-55027204D01*
X239139221Y-55008152D01*
X239107983Y-54982517D01*
X239082348Y-54951279D01*
X239063296Y-54915637D01*
X239051565Y-54876966D01*
X239047000Y-54830612D01*
X239047000Y-53754388D01*
X239051565Y-53708034D01*
X239063296Y-53669363D01*
X239082348Y-53633721D01*
X239107983Y-53602483D01*
X239139221Y-53576848D01*
X239174863Y-53557796D01*
X239213534Y-53546065D01*
X239259888Y-53541500D01*
X239911112Y-53541500D01*
X239957466Y-53546065D01*
X239957466Y-53546065D01*
G37*
G36*
X238082466Y-53546065D02*
X238121137Y-53557796D01*
X238156779Y-53576848D01*
X238188017Y-53602483D01*
X238213652Y-53633721D01*
X238232704Y-53669363D01*
X238244435Y-53708034D01*
X238249000Y-53754388D01*
X238249000Y-54830612D01*
X238244435Y-54876966D01*
X238232704Y-54915637D01*
X238213652Y-54951279D01*
X238188017Y-54982517D01*
X238156779Y-55008152D01*
X238121137Y-55027204D01*
X238082466Y-55038935D01*
X238036112Y-55043500D01*
X237384888Y-55043500D01*
X237338534Y-55038935D01*
X237299863Y-55027204D01*
X237264221Y-55008152D01*
X237232983Y-54982517D01*
X237207348Y-54951279D01*
X237188296Y-54915637D01*
X237176565Y-54876966D01*
X237172000Y-54830612D01*
X237172000Y-53754388D01*
X237176565Y-53708034D01*
X237188296Y-53669363D01*
X237207348Y-53633721D01*
X237232983Y-53602483D01*
X237264221Y-53576848D01*
X237299863Y-53557796D01*
X237338534Y-53546065D01*
X237384888Y-53541500D01*
X238036112Y-53541500D01*
X238082466Y-53546065D01*
X238082466Y-53546065D01*
G37*
G36*
X191143000Y-54237000D02*
X188841000Y-54237000D01*
X188841000Y-51935000D01*
X191143000Y-51935000D01*
X191143000Y-54237000D01*
X191143000Y-54237000D01*
G37*
G36*
X213215400Y-52323540D02*
X213388470Y-52395228D01*
X213544234Y-52499306D01*
X213676692Y-52631764D01*
X213780770Y-52787528D01*
X213852458Y-52960598D01*
X213889004Y-53144327D01*
X213889004Y-53331661D01*
X213852458Y-53515390D01*
X213780770Y-53688460D01*
X213676692Y-53844224D01*
X213544234Y-53976682D01*
X213388470Y-54080760D01*
X213215400Y-54152448D01*
X213031671Y-54188994D01*
X212844337Y-54188994D01*
X212660608Y-54152448D01*
X212487538Y-54080760D01*
X212331774Y-53976682D01*
X212199316Y-53844224D01*
X212095238Y-53688460D01*
X212023550Y-53515390D01*
X211987004Y-53331661D01*
X211987004Y-53144327D01*
X212023550Y-52960598D01*
X212095238Y-52787528D01*
X212199316Y-52631764D01*
X212331774Y-52499306D01*
X212487538Y-52395228D01*
X212660608Y-52323540D01*
X212844337Y-52286994D01*
X213031671Y-52286994D01*
X213215400Y-52323540D01*
X213215400Y-52323540D01*
G37*
G36*
X213889004Y-51648994D02*
X211987004Y-51648994D01*
X211987004Y-49746994D01*
X213889004Y-49746994D01*
X213889004Y-51648994D01*
X213889004Y-51648994D01*
G37*
G36*
X240169966Y-46202065D02*
X240208637Y-46213796D01*
X240244279Y-46232848D01*
X240275517Y-46258483D01*
X240301152Y-46289721D01*
X240320204Y-46325363D01*
X240331935Y-46364034D01*
X240336500Y-46410388D01*
X240336500Y-47061612D01*
X240331935Y-47107966D01*
X240320204Y-47146637D01*
X240301152Y-47182279D01*
X240275517Y-47213517D01*
X240244279Y-47239152D01*
X240208637Y-47258204D01*
X240169966Y-47269935D01*
X240123612Y-47274500D01*
X239047388Y-47274500D01*
X239001034Y-47269935D01*
X238962363Y-47258204D01*
X238926721Y-47239152D01*
X238895483Y-47213517D01*
X238869848Y-47182279D01*
X238850796Y-47146637D01*
X238839065Y-47107966D01*
X238834500Y-47061612D01*
X238834500Y-46410388D01*
X238839065Y-46364034D01*
X238850796Y-46325363D01*
X238869848Y-46289721D01*
X238895483Y-46258483D01*
X238926721Y-46232848D01*
X238962363Y-46213796D01*
X239001034Y-46202065D01*
X239047388Y-46197500D01*
X240123612Y-46197500D01*
X240169966Y-46202065D01*
X240169966Y-46202065D01*
G37*
G36*
X240169966Y-44327065D02*
X240208637Y-44338796D01*
X240244279Y-44357848D01*
X240275517Y-44383483D01*
X240301152Y-44414721D01*
X240320204Y-44450363D01*
X240331935Y-44489034D01*
X240336500Y-44535388D01*
X240336500Y-45186612D01*
X240331935Y-45232966D01*
X240320204Y-45271637D01*
X240301152Y-45307279D01*
X240275517Y-45338517D01*
X240244279Y-45364152D01*
X240208637Y-45383204D01*
X240169966Y-45394935D01*
X240123612Y-45399500D01*
X239047388Y-45399500D01*
X239001034Y-45394935D01*
X238962363Y-45383204D01*
X238926721Y-45364152D01*
X238895483Y-45338517D01*
X238869848Y-45307279D01*
X238850796Y-45271637D01*
X238839065Y-45232966D01*
X238834500Y-45186612D01*
X238834500Y-44535388D01*
X238839065Y-44489034D01*
X238850796Y-44450363D01*
X238869848Y-44414721D01*
X238895483Y-44383483D01*
X238926721Y-44357848D01*
X238962363Y-44338796D01*
X239001034Y-44327065D01*
X239047388Y-44322500D01*
X240123612Y-44322500D01*
X240169966Y-44327065D01*
X240169966Y-44327065D01*
G37*
G36*
X190116180Y-41781662D02*
X190217635Y-41791654D01*
X190434600Y-41857470D01*
X190434602Y-41857471D01*
X190434605Y-41857472D01*
X190634556Y-41964347D01*
X190809818Y-42108182D01*
X190953653Y-42283444D01*
X191060528Y-42483395D01*
X191060529Y-42483398D01*
X191060530Y-42483400D01*
X191126346Y-42700365D01*
X191148569Y-42926000D01*
X191126346Y-43151635D01*
X191060530Y-43368600D01*
X191060528Y-43368605D01*
X190953653Y-43568556D01*
X190809818Y-43743818D01*
X190634556Y-43887653D01*
X190434605Y-43994528D01*
X190434602Y-43994529D01*
X190434600Y-43994530D01*
X190217635Y-44060346D01*
X190116180Y-44070338D01*
X190048545Y-44077000D01*
X189935455Y-44077000D01*
X189867820Y-44070338D01*
X189766365Y-44060346D01*
X189549400Y-43994530D01*
X189549398Y-43994529D01*
X189549395Y-43994528D01*
X189349444Y-43887653D01*
X189174182Y-43743818D01*
X189030347Y-43568556D01*
X188923472Y-43368605D01*
X188923470Y-43368600D01*
X188857654Y-43151635D01*
X188835431Y-42926000D01*
X188857654Y-42700365D01*
X188923470Y-42483400D01*
X188923471Y-42483398D01*
X188923472Y-42483395D01*
X189030347Y-42283444D01*
X189174182Y-42108182D01*
X189349444Y-41964347D01*
X189549395Y-41857472D01*
X189549398Y-41857471D01*
X189549400Y-41857470D01*
X189766365Y-41791654D01*
X189867820Y-41781662D01*
X189935455Y-41775000D01*
X190048545Y-41775000D01*
X190116180Y-41781662D01*
X190116180Y-41781662D01*
G37*
G36*
X237351200Y-42736400D02*
X235749200Y-42736400D01*
X235749200Y-41134400D01*
X237351200Y-41134400D01*
X237351200Y-42736400D01*
X237351200Y-42736400D01*
G37*
G36*
X240386500Y-42723700D02*
X238784500Y-42723700D01*
X238784500Y-41121700D01*
X240386500Y-41121700D01*
X240386500Y-42723700D01*
X240386500Y-42723700D01*
G37*
G36*
X243701200Y-42711000D02*
X242099200Y-42711000D01*
X242099200Y-41109000D01*
X243701200Y-41109000D01*
X243701200Y-42711000D01*
X243701200Y-42711000D01*
G37*
G36*
X236783843Y-38625181D02*
X236929615Y-38685562D01*
X237060811Y-38773224D01*
X237172376Y-38884789D01*
X237260038Y-39015985D01*
X237320419Y-39161757D01*
X237351200Y-39316507D01*
X237351200Y-39474293D01*
X237320419Y-39629043D01*
X237260038Y-39774815D01*
X237172376Y-39906011D01*
X237060811Y-40017576D01*
X236929615Y-40105238D01*
X236783843Y-40165619D01*
X236629093Y-40196400D01*
X236471307Y-40196400D01*
X236316557Y-40165619D01*
X236170785Y-40105238D01*
X236039589Y-40017576D01*
X235928024Y-39906011D01*
X235840362Y-39774815D01*
X235779981Y-39629043D01*
X235749200Y-39474293D01*
X235749200Y-39316507D01*
X235779981Y-39161757D01*
X235840362Y-39015985D01*
X235928024Y-38884789D01*
X236039589Y-38773224D01*
X236170785Y-38685562D01*
X236316557Y-38625181D01*
X236471307Y-38594400D01*
X236629093Y-38594400D01*
X236783843Y-38625181D01*
X236783843Y-38625181D01*
G37*
G36*
X239819143Y-38612481D02*
X239964915Y-38672862D01*
X240096111Y-38760524D01*
X240207676Y-38872089D01*
X240295338Y-39003285D01*
X240355719Y-39149057D01*
X240386500Y-39303807D01*
X240386500Y-39461593D01*
X240355719Y-39616343D01*
X240295338Y-39762115D01*
X240207676Y-39893311D01*
X240096111Y-40004876D01*
X239964915Y-40092538D01*
X239819143Y-40152919D01*
X239664393Y-40183700D01*
X239506607Y-40183700D01*
X239351857Y-40152919D01*
X239206085Y-40092538D01*
X239074889Y-40004876D01*
X238963324Y-39893311D01*
X238875662Y-39762115D01*
X238815281Y-39616343D01*
X238784500Y-39461593D01*
X238784500Y-39303807D01*
X238815281Y-39149057D01*
X238875662Y-39003285D01*
X238963324Y-38872089D01*
X239074889Y-38760524D01*
X239206085Y-38672862D01*
X239351857Y-38612481D01*
X239506607Y-38581700D01*
X239664393Y-38581700D01*
X239819143Y-38612481D01*
X239819143Y-38612481D01*
G37*
G36*
X243133843Y-38599781D02*
X243279615Y-38660162D01*
X243410811Y-38747824D01*
X243522376Y-38859389D01*
X243610038Y-38990585D01*
X243670419Y-39136357D01*
X243701200Y-39291107D01*
X243701200Y-39448893D01*
X243670419Y-39603643D01*
X243610038Y-39749415D01*
X243522376Y-39880611D01*
X243410811Y-39992176D01*
X243279615Y-40079838D01*
X243133843Y-40140219D01*
X242979093Y-40171000D01*
X242821307Y-40171000D01*
X242666557Y-40140219D01*
X242520785Y-40079838D01*
X242389589Y-39992176D01*
X242278024Y-39880611D01*
X242190362Y-39749415D01*
X242129981Y-39603643D01*
X242099200Y-39448893D01*
X242099200Y-39291107D01*
X242129981Y-39136357D01*
X242190362Y-38990585D01*
X242278024Y-38859389D01*
X242389589Y-38747824D01*
X242520785Y-38660162D01*
X242666557Y-38599781D01*
X242821307Y-38569000D01*
X242979093Y-38569000D01*
X243133843Y-38599781D01*
X243133843Y-38599781D01*
G37*
G36*
X190225643Y-38345781D02*
X190371415Y-38406162D01*
X190502611Y-38493824D01*
X190614176Y-38605389D01*
X190701838Y-38736585D01*
X190762219Y-38882357D01*
X190793000Y-39037107D01*
X190793000Y-39194893D01*
X190762219Y-39349643D01*
X190701838Y-39495415D01*
X190614176Y-39626611D01*
X190502611Y-39738176D01*
X190371415Y-39825838D01*
X190225643Y-39886219D01*
X190070893Y-39917000D01*
X189913107Y-39917000D01*
X189758357Y-39886219D01*
X189612585Y-39825838D01*
X189481389Y-39738176D01*
X189369824Y-39626611D01*
X189282162Y-39495415D01*
X189221781Y-39349643D01*
X189191000Y-39194893D01*
X189191000Y-39037107D01*
X189221781Y-38882357D01*
X189282162Y-38736585D01*
X189369824Y-38605389D01*
X189481389Y-38493824D01*
X189612585Y-38406162D01*
X189758357Y-38345781D01*
X189913107Y-38315000D01*
X190070893Y-38315000D01*
X190225643Y-38345781D01*
X190225643Y-38345781D01*
G37*
G36*
X193333000Y-39917000D02*
X191731000Y-39917000D01*
X191731000Y-38315000D01*
X193333000Y-38315000D01*
X193333000Y-39917000D01*
X193333000Y-39917000D01*
G37*
G36*
X255229560Y-37554100D02*
X254149660Y-37554100D01*
X254149660Y-32727700D01*
X255229560Y-32727700D01*
X255229560Y-37554100D01*
X255229560Y-37554100D01*
G37*
G36*
X264691060Y-37554100D02*
X263611160Y-37554100D01*
X263611160Y-32727700D01*
X264691060Y-32727700D01*
X264691060Y-37554100D01*
X264691060Y-37554100D01*
G37*
G36*
X259820610Y-37554100D02*
X259020110Y-37554100D01*
X259020110Y-32727700D01*
X259820610Y-32727700D01*
X259820610Y-37554100D01*
X259820610Y-37554100D01*
G37*
M02*
