G04 #@! TF.GenerationSoftware,KiCad,Pcbnew,(6.0.0-rc1-dev-305-gf0b8b21)*
G04 #@! TF.CreationDate,2018-11-28T21:02:02-08:00*
G04 #@! TF.ProjectId,EE173_Lab4,45453137335F4C6162342E6B69636164,rev?*
G04 #@! TF.SameCoordinates,Original*
G04 #@! TF.FileFunction,Soldermask,Bot*
G04 #@! TF.FilePolarity,Negative*
%FSLAX46Y46*%
G04 Gerber Fmt 4.6, Leading zero omitted, Abs format (unit mm)*
G04 Created by KiCad (PCBNEW (6.0.0-rc1-dev-305-gf0b8b21)) date Wednesday, November 28, 2018 at 09:02:02 PM*
%MOMM*%
%LPD*%
G01*
G04 APERTURE LIST*
%ADD10C,0.100000*%
G04 APERTURE END LIST*
D10*
G36*
X251811000Y-83461000D02*
X250209000Y-83461000D01*
X250209000Y-81859000D01*
X251811000Y-81859000D01*
X251811000Y-83461000D01*
X251811000Y-83461000D01*
G37*
G36*
X248703643Y-81889781D02*
X248849415Y-81950162D01*
X248980611Y-82037824D01*
X249092176Y-82149389D01*
X249179838Y-82280585D01*
X249240219Y-82426357D01*
X249271000Y-82581107D01*
X249271000Y-82738893D01*
X249240219Y-82893643D01*
X249179838Y-83039415D01*
X249092176Y-83170611D01*
X248980611Y-83282176D01*
X248849415Y-83369838D01*
X248703643Y-83430219D01*
X248548893Y-83461000D01*
X248391107Y-83461000D01*
X248236357Y-83430219D01*
X248090585Y-83369838D01*
X247959389Y-83282176D01*
X247847824Y-83170611D01*
X247760162Y-83039415D01*
X247699781Y-82893643D01*
X247669000Y-82738893D01*
X247669000Y-82581107D01*
X247699781Y-82426357D01*
X247760162Y-82280585D01*
X247847824Y-82149389D01*
X247959389Y-82037824D01*
X248090585Y-81950162D01*
X248236357Y-81889781D01*
X248391107Y-81859000D01*
X248548893Y-81859000D01*
X248703643Y-81889781D01*
X248703643Y-81889781D01*
G37*
G36*
X251741000Y-78631000D02*
X250139000Y-78631000D01*
X250139000Y-77029000D01*
X251741000Y-77029000D01*
X251741000Y-78631000D01*
X251741000Y-78631000D01*
G37*
G36*
X248633643Y-77059781D02*
X248779415Y-77120162D01*
X248910611Y-77207824D01*
X249022176Y-77319389D01*
X249109838Y-77450585D01*
X249170219Y-77596357D01*
X249201000Y-77751107D01*
X249201000Y-77908893D01*
X249170219Y-78063643D01*
X249109838Y-78209415D01*
X249022176Y-78340611D01*
X248910611Y-78452176D01*
X248779415Y-78539838D01*
X248633643Y-78600219D01*
X248478893Y-78631000D01*
X248321107Y-78631000D01*
X248166357Y-78600219D01*
X248020585Y-78539838D01*
X247889389Y-78452176D01*
X247777824Y-78340611D01*
X247690162Y-78209415D01*
X247629781Y-78063643D01*
X247599000Y-77908893D01*
X247599000Y-77751107D01*
X247629781Y-77596357D01*
X247690162Y-77450585D01*
X247777824Y-77319389D01*
X247889389Y-77207824D01*
X248020585Y-77120162D01*
X248166357Y-77059781D01*
X248321107Y-77029000D01*
X248478893Y-77029000D01*
X248633643Y-77059781D01*
X248633643Y-77059781D01*
G37*
G36*
X251691000Y-74031000D02*
X250089000Y-74031000D01*
X250089000Y-72429000D01*
X251691000Y-72429000D01*
X251691000Y-74031000D01*
X251691000Y-74031000D01*
G37*
G36*
X248583643Y-72459781D02*
X248729415Y-72520162D01*
X248860611Y-72607824D01*
X248972176Y-72719389D01*
X249059838Y-72850585D01*
X249120219Y-72996357D01*
X249151000Y-73151107D01*
X249151000Y-73308893D01*
X249120219Y-73463643D01*
X249059838Y-73609415D01*
X248972176Y-73740611D01*
X248860611Y-73852176D01*
X248729415Y-73939838D01*
X248583643Y-74000219D01*
X248428893Y-74031000D01*
X248271107Y-74031000D01*
X248116357Y-74000219D01*
X247970585Y-73939838D01*
X247839389Y-73852176D01*
X247727824Y-73740611D01*
X247640162Y-73609415D01*
X247579781Y-73463643D01*
X247549000Y-73308893D01*
X247549000Y-73151107D01*
X247579781Y-72996357D01*
X247640162Y-72850585D01*
X247727824Y-72719389D01*
X247839389Y-72607824D01*
X247970585Y-72520162D01*
X248116357Y-72459781D01*
X248271107Y-72429000D01*
X248428893Y-72429000D01*
X248583643Y-72459781D01*
X248583643Y-72459781D01*
G37*
G36*
X251731000Y-69661000D02*
X250129000Y-69661000D01*
X250129000Y-68059000D01*
X251731000Y-68059000D01*
X251731000Y-69661000D01*
X251731000Y-69661000D01*
G37*
G36*
X248623643Y-68089781D02*
X248769415Y-68150162D01*
X248900611Y-68237824D01*
X249012176Y-68349389D01*
X249099838Y-68480585D01*
X249160219Y-68626357D01*
X249191000Y-68781107D01*
X249191000Y-68938893D01*
X249160219Y-69093643D01*
X249099838Y-69239415D01*
X249012176Y-69370611D01*
X248900611Y-69482176D01*
X248769415Y-69569838D01*
X248623643Y-69630219D01*
X248468893Y-69661000D01*
X248311107Y-69661000D01*
X248156357Y-69630219D01*
X248010585Y-69569838D01*
X247879389Y-69482176D01*
X247767824Y-69370611D01*
X247680162Y-69239415D01*
X247619781Y-69093643D01*
X247589000Y-68938893D01*
X247589000Y-68781107D01*
X247619781Y-68626357D01*
X247680162Y-68480585D01*
X247767824Y-68349389D01*
X247879389Y-68237824D01*
X248010585Y-68150162D01*
X248156357Y-68089781D01*
X248311107Y-68059000D01*
X248468893Y-68059000D01*
X248623643Y-68089781D01*
X248623643Y-68089781D01*
G37*
G36*
X263007950Y-66477950D02*
X260912050Y-66477950D01*
X260912050Y-64382050D01*
X263007950Y-64382050D01*
X263007950Y-66477950D01*
X263007950Y-66477950D01*
G37*
G36*
X257927950Y-66477950D02*
X255832050Y-66477950D01*
X255832050Y-64382050D01*
X257927950Y-64382050D01*
X257927950Y-66477950D01*
X257927950Y-66477950D01*
G37*
G36*
X260467950Y-63937950D02*
X258372050Y-63937950D01*
X258372050Y-61842050D01*
X260467950Y-61842050D01*
X260467950Y-63937950D01*
X260467950Y-63937950D01*
G37*
G36*
X263007950Y-61397950D02*
X260912050Y-61397950D01*
X260912050Y-59302050D01*
X263007950Y-59302050D01*
X263007950Y-61397950D01*
X263007950Y-61397950D01*
G37*
G36*
X257927950Y-61397950D02*
X255832050Y-61397950D01*
X255832050Y-59302050D01*
X257927950Y-59302050D01*
X257927950Y-61397950D01*
X257927950Y-61397950D01*
G37*
G36*
X195951004Y-60146994D02*
X193817004Y-60146994D01*
X193817004Y-58012994D01*
X195951004Y-58012994D01*
X195951004Y-60146994D01*
X195951004Y-60146994D01*
G37*
G36*
X197745235Y-58053997D02*
X197939419Y-58134431D01*
X198114180Y-58251203D01*
X198262795Y-58399818D01*
X198379567Y-58574579D01*
X198460001Y-58768763D01*
X198501004Y-58974902D01*
X198501004Y-59185086D01*
X198460001Y-59391225D01*
X198379567Y-59585409D01*
X198262795Y-59760170D01*
X198114180Y-59908785D01*
X197939419Y-60025557D01*
X197745235Y-60105991D01*
X197539096Y-60146994D01*
X197328912Y-60146994D01*
X197122773Y-60105991D01*
X196928589Y-60025557D01*
X196753828Y-59908785D01*
X196605213Y-59760170D01*
X196488441Y-59585409D01*
X196408007Y-59391225D01*
X196367004Y-59185086D01*
X196367004Y-58974902D01*
X196408007Y-58768763D01*
X196488441Y-58574579D01*
X196605213Y-58399818D01*
X196753828Y-58251203D01*
X196928589Y-58134431D01*
X197122773Y-58053997D01*
X197328912Y-58012994D01*
X197539096Y-58012994D01*
X197745235Y-58053997D01*
X197745235Y-58053997D01*
G37*
G36*
X200295235Y-58053997D02*
X200489419Y-58134431D01*
X200664180Y-58251203D01*
X200812795Y-58399818D01*
X200929567Y-58574579D01*
X201010001Y-58768763D01*
X201051004Y-58974902D01*
X201051004Y-59185086D01*
X201010001Y-59391225D01*
X200929567Y-59585409D01*
X200812795Y-59760170D01*
X200664180Y-59908785D01*
X200489419Y-60025557D01*
X200295235Y-60105991D01*
X200089096Y-60146994D01*
X199878912Y-60146994D01*
X199672773Y-60105991D01*
X199478589Y-60025557D01*
X199303828Y-59908785D01*
X199155213Y-59760170D01*
X199038441Y-59585409D01*
X198958007Y-59391225D01*
X198917004Y-59185086D01*
X198917004Y-58974902D01*
X198958007Y-58768763D01*
X199038441Y-58574579D01*
X199155213Y-58399818D01*
X199303828Y-58251203D01*
X199478589Y-58134431D01*
X199672773Y-58053997D01*
X199878912Y-58012994D01*
X200089096Y-58012994D01*
X200295235Y-58053997D01*
X200295235Y-58053997D01*
G37*
G36*
X191143000Y-54237000D02*
X188841000Y-54237000D01*
X188841000Y-51935000D01*
X191143000Y-51935000D01*
X191143000Y-54237000D01*
X191143000Y-54237000D01*
G37*
G36*
X213215400Y-52323540D02*
X213388470Y-52395228D01*
X213544234Y-52499306D01*
X213676692Y-52631764D01*
X213780770Y-52787528D01*
X213852458Y-52960598D01*
X213889004Y-53144327D01*
X213889004Y-53331661D01*
X213852458Y-53515390D01*
X213780770Y-53688460D01*
X213676692Y-53844224D01*
X213544234Y-53976682D01*
X213388470Y-54080760D01*
X213215400Y-54152448D01*
X213031671Y-54188994D01*
X212844337Y-54188994D01*
X212660608Y-54152448D01*
X212487538Y-54080760D01*
X212331774Y-53976682D01*
X212199316Y-53844224D01*
X212095238Y-53688460D01*
X212023550Y-53515390D01*
X211987004Y-53331661D01*
X211987004Y-53144327D01*
X212023550Y-52960598D01*
X212095238Y-52787528D01*
X212199316Y-52631764D01*
X212331774Y-52499306D01*
X212487538Y-52395228D01*
X212660608Y-52323540D01*
X212844337Y-52286994D01*
X213031671Y-52286994D01*
X213215400Y-52323540D01*
X213215400Y-52323540D01*
G37*
G36*
X213889004Y-51648994D02*
X211987004Y-51648994D01*
X211987004Y-49746994D01*
X213889004Y-49746994D01*
X213889004Y-51648994D01*
X213889004Y-51648994D01*
G37*
G36*
X190116180Y-41781662D02*
X190217635Y-41791654D01*
X190434600Y-41857470D01*
X190434602Y-41857471D01*
X190434605Y-41857472D01*
X190634556Y-41964347D01*
X190809818Y-42108182D01*
X190953653Y-42283444D01*
X191060528Y-42483395D01*
X191060529Y-42483398D01*
X191060530Y-42483400D01*
X191126346Y-42700365D01*
X191148569Y-42926000D01*
X191126346Y-43151635D01*
X191060530Y-43368600D01*
X191060528Y-43368605D01*
X190953653Y-43568556D01*
X190809818Y-43743818D01*
X190634556Y-43887653D01*
X190434605Y-43994528D01*
X190434602Y-43994529D01*
X190434600Y-43994530D01*
X190217635Y-44060346D01*
X190116180Y-44070338D01*
X190048545Y-44077000D01*
X189935455Y-44077000D01*
X189867820Y-44070338D01*
X189766365Y-44060346D01*
X189549400Y-43994530D01*
X189549398Y-43994529D01*
X189549395Y-43994528D01*
X189349444Y-43887653D01*
X189174182Y-43743818D01*
X189030347Y-43568556D01*
X188923472Y-43368605D01*
X188923470Y-43368600D01*
X188857654Y-43151635D01*
X188835431Y-42926000D01*
X188857654Y-42700365D01*
X188923470Y-42483400D01*
X188923471Y-42483398D01*
X188923472Y-42483395D01*
X189030347Y-42283444D01*
X189174182Y-42108182D01*
X189349444Y-41964347D01*
X189549395Y-41857472D01*
X189549398Y-41857471D01*
X189549400Y-41857470D01*
X189766365Y-41791654D01*
X189867820Y-41781662D01*
X189935455Y-41775000D01*
X190048545Y-41775000D01*
X190116180Y-41781662D01*
X190116180Y-41781662D01*
G37*
G36*
X237351200Y-42736400D02*
X235749200Y-42736400D01*
X235749200Y-41134400D01*
X237351200Y-41134400D01*
X237351200Y-42736400D01*
X237351200Y-42736400D01*
G37*
G36*
X240386500Y-42723700D02*
X238784500Y-42723700D01*
X238784500Y-41121700D01*
X240386500Y-41121700D01*
X240386500Y-42723700D01*
X240386500Y-42723700D01*
G37*
G36*
X243701200Y-42711000D02*
X242099200Y-42711000D01*
X242099200Y-41109000D01*
X243701200Y-41109000D01*
X243701200Y-42711000D01*
X243701200Y-42711000D01*
G37*
G36*
X236783843Y-38625181D02*
X236929615Y-38685562D01*
X237060811Y-38773224D01*
X237172376Y-38884789D01*
X237260038Y-39015985D01*
X237320419Y-39161757D01*
X237351200Y-39316507D01*
X237351200Y-39474293D01*
X237320419Y-39629043D01*
X237260038Y-39774815D01*
X237172376Y-39906011D01*
X237060811Y-40017576D01*
X236929615Y-40105238D01*
X236783843Y-40165619D01*
X236629093Y-40196400D01*
X236471307Y-40196400D01*
X236316557Y-40165619D01*
X236170785Y-40105238D01*
X236039589Y-40017576D01*
X235928024Y-39906011D01*
X235840362Y-39774815D01*
X235779981Y-39629043D01*
X235749200Y-39474293D01*
X235749200Y-39316507D01*
X235779981Y-39161757D01*
X235840362Y-39015985D01*
X235928024Y-38884789D01*
X236039589Y-38773224D01*
X236170785Y-38685562D01*
X236316557Y-38625181D01*
X236471307Y-38594400D01*
X236629093Y-38594400D01*
X236783843Y-38625181D01*
X236783843Y-38625181D01*
G37*
G36*
X239819143Y-38612481D02*
X239964915Y-38672862D01*
X240096111Y-38760524D01*
X240207676Y-38872089D01*
X240295338Y-39003285D01*
X240355719Y-39149057D01*
X240386500Y-39303807D01*
X240386500Y-39461593D01*
X240355719Y-39616343D01*
X240295338Y-39762115D01*
X240207676Y-39893311D01*
X240096111Y-40004876D01*
X239964915Y-40092538D01*
X239819143Y-40152919D01*
X239664393Y-40183700D01*
X239506607Y-40183700D01*
X239351857Y-40152919D01*
X239206085Y-40092538D01*
X239074889Y-40004876D01*
X238963324Y-39893311D01*
X238875662Y-39762115D01*
X238815281Y-39616343D01*
X238784500Y-39461593D01*
X238784500Y-39303807D01*
X238815281Y-39149057D01*
X238875662Y-39003285D01*
X238963324Y-38872089D01*
X239074889Y-38760524D01*
X239206085Y-38672862D01*
X239351857Y-38612481D01*
X239506607Y-38581700D01*
X239664393Y-38581700D01*
X239819143Y-38612481D01*
X239819143Y-38612481D01*
G37*
G36*
X243133843Y-38599781D02*
X243279615Y-38660162D01*
X243410811Y-38747824D01*
X243522376Y-38859389D01*
X243610038Y-38990585D01*
X243670419Y-39136357D01*
X243701200Y-39291107D01*
X243701200Y-39448893D01*
X243670419Y-39603643D01*
X243610038Y-39749415D01*
X243522376Y-39880611D01*
X243410811Y-39992176D01*
X243279615Y-40079838D01*
X243133843Y-40140219D01*
X242979093Y-40171000D01*
X242821307Y-40171000D01*
X242666557Y-40140219D01*
X242520785Y-40079838D01*
X242389589Y-39992176D01*
X242278024Y-39880611D01*
X242190362Y-39749415D01*
X242129981Y-39603643D01*
X242099200Y-39448893D01*
X242099200Y-39291107D01*
X242129981Y-39136357D01*
X242190362Y-38990585D01*
X242278024Y-38859389D01*
X242389589Y-38747824D01*
X242520785Y-38660162D01*
X242666557Y-38599781D01*
X242821307Y-38569000D01*
X242979093Y-38569000D01*
X243133843Y-38599781D01*
X243133843Y-38599781D01*
G37*
G36*
X190225643Y-38345781D02*
X190371415Y-38406162D01*
X190502611Y-38493824D01*
X190614176Y-38605389D01*
X190701838Y-38736585D01*
X190762219Y-38882357D01*
X190793000Y-39037107D01*
X190793000Y-39194893D01*
X190762219Y-39349643D01*
X190701838Y-39495415D01*
X190614176Y-39626611D01*
X190502611Y-39738176D01*
X190371415Y-39825838D01*
X190225643Y-39886219D01*
X190070893Y-39917000D01*
X189913107Y-39917000D01*
X189758357Y-39886219D01*
X189612585Y-39825838D01*
X189481389Y-39738176D01*
X189369824Y-39626611D01*
X189282162Y-39495415D01*
X189221781Y-39349643D01*
X189191000Y-39194893D01*
X189191000Y-39037107D01*
X189221781Y-38882357D01*
X189282162Y-38736585D01*
X189369824Y-38605389D01*
X189481389Y-38493824D01*
X189612585Y-38406162D01*
X189758357Y-38345781D01*
X189913107Y-38315000D01*
X190070893Y-38315000D01*
X190225643Y-38345781D01*
X190225643Y-38345781D01*
G37*
G36*
X193333000Y-39917000D02*
X191731000Y-39917000D01*
X191731000Y-38315000D01*
X193333000Y-38315000D01*
X193333000Y-39917000D01*
X193333000Y-39917000D01*
G37*
G36*
X255229560Y-37554100D02*
X254149660Y-37554100D01*
X254149660Y-32727700D01*
X255229560Y-32727700D01*
X255229560Y-37554100D01*
X255229560Y-37554100D01*
G37*
G36*
X264691060Y-37554100D02*
X263611160Y-37554100D01*
X263611160Y-32727700D01*
X264691060Y-32727700D01*
X264691060Y-37554100D01*
X264691060Y-37554100D01*
G37*
M02*
