M48
;DRILL file {KiCad (6.0.0-rc1-dev-305-gf0b8b21)} date Wednesday, November 28, 2018 at 09:02:52 PM
;FORMAT={2:4/ absolute / inch / suppress leading zeros}
FMAT,2
INCH,TZ
T1C0.0200
T2C0.0300
T3C0.0354
T4C0.0394
T5C0.0433
T6C0.0600
T7C0.0670
%
G90
G05
M72
T1
X77767Y-27827
X87267Y-25327
X89267Y-15827
X89267Y-21327
X92267Y-29327
X98767Y-17827
X100272Y-13370
X100272Y-14300
X103997Y-13370
X103997Y-14300
T2
X78767Y-18327
T3
X83834Y-19960
X83834Y-20960
T4
X97776Y-28831
X98776Y-28831
X74800Y-15400
X75800Y-15400
X93130Y-15510
X93130Y-16510
X95630Y-15500
X95630Y-16500
X94325Y-15505
X94325Y-16505
X97791Y-27110
X98791Y-27110
X97823Y-32543
X98823Y-32543
X97795Y-30642
X98795Y-30642
T5
X74800Y-16900
X74800Y-20900
T6
X76726Y-23260
X77730Y-23260
X78734Y-23260
T7
X101134Y-23760
X101134Y-25760
X102134Y-24760
X103134Y-23760
X103134Y-25760
T0
M30
