G04 #@! TF.GenerationSoftware,KiCad,Pcbnew,(6.0.0-rc1-dev-305-gf0b8b21)*
G04 #@! TF.CreationDate,2018-11-28T21:02:02-08:00*
G04 #@! TF.ProjectId,EE173_Lab4,45453137335F4C6162342E6B69636164,rev?*
G04 #@! TF.SameCoordinates,Original*
G04 #@! TF.FileFunction,Copper,L2,Bot,Signal*
G04 #@! TF.FilePolarity,Positive*
%FSLAX46Y46*%
G04 Gerber Fmt 4.6, Leading zero omitted, Abs format (unit mm)*
G04 Created by KiCad (PCBNEW (6.0.0-rc1-dev-305-gf0b8b21)) date Wednesday, November 28, 2018 at 09:02:02 PM*
%MOMM*%
%LPD*%
G01*
G04 APERTURE LIST*
G04 #@! TA.AperFunction,ComponentPad*
%ADD10R,2.200000X2.200000*%
G04 #@! TD*
G04 #@! TA.AperFunction,ComponentPad*
%ADD11O,2.200000X2.200000*%
G04 #@! TD*
G04 #@! TA.AperFunction,ComponentPad*
%ADD12R,1.800000X1.800000*%
G04 #@! TD*
G04 #@! TA.AperFunction,ComponentPad*
%ADD13C,1.800000*%
G04 #@! TD*
G04 #@! TA.AperFunction,ComponentPad*
%ADD14C,1.500000*%
G04 #@! TD*
G04 #@! TA.AperFunction,ComponentPad*
%ADD15R,1.500000X1.500000*%
G04 #@! TD*
G04 #@! TA.AperFunction,ComponentPad*
%ADD16R,1.993900X1.993900*%
G04 #@! TD*
G04 #@! TA.AperFunction,ComponentPad*
%ADD17R,0.977900X2.362200*%
G04 #@! TD*
G04 #@! TA.AperFunction,ComponentPad*
%ADD18C,2.032000*%
G04 #@! TD*
G04 #@! TA.AperFunction,ComponentPad*
%ADD19R,2.032000X2.032000*%
G04 #@! TD*
G04 #@! TA.AperFunction,ViaPad*
%ADD20C,0.889000*%
G04 #@! TD*
G04 #@! TA.AperFunction,Conductor*
%ADD21C,0.254000*%
G04 #@! TD*
G04 APERTURE END LIST*
D10*
G04 #@! TO.P,D1,1*
G04 #@! TO.N,Net-(C2-Pad2)*
X189992000Y-53086000D03*
D11*
G04 #@! TO.P,D1,2*
G04 #@! TO.N,Net-(D1-Pad2)*
X189992000Y-42926000D03*
G04 #@! TD*
D12*
G04 #@! TO.P,D2,1*
G04 #@! TO.N,GND*
X212938004Y-50697994D03*
D13*
G04 #@! TO.P,D2,2*
G04 #@! TO.N,Net-(D2-Pad2)*
X212938004Y-53237994D03*
G04 #@! TD*
D14*
G04 #@! TO.P,J1,1*
G04 #@! TO.N,Net-(J1-Pad1)*
X236550200Y-39395400D03*
D15*
G04 #@! TO.P,J1,2*
G04 #@! TO.N,GND*
X236550200Y-41935400D03*
G04 #@! TD*
G04 #@! TO.P,J2,2*
G04 #@! TO.N,GND*
X192532000Y-39116000D03*
D14*
G04 #@! TO.P,J2,1*
G04 #@! TO.N,Net-(D1-Pad2)*
X189992000Y-39116000D03*
G04 #@! TD*
D16*
G04 #@! TO.P,J3,2*
G04 #@! TO.N,GND*
X261960000Y-60350000D03*
X261960000Y-65430000D03*
X256880000Y-60350000D03*
X256880000Y-65430000D03*
G04 #@! TO.P,J3,1*
G04 #@! TO.N,Net-(J3-Pad1)*
X259420000Y-62890000D03*
G04 #@! TD*
D17*
G04 #@! TO.P,J4,2*
G04 #@! TO.N,GND*
X264151110Y-36322000D03*
X264151110Y-33959800D03*
X254689610Y-36322000D03*
X254689610Y-33959800D03*
G04 #@! TD*
D14*
G04 #@! TO.P,JP1,1*
G04 #@! TO.N,Net-(J1-Pad1)*
X239585500Y-39382700D03*
D15*
G04 #@! TO.P,JP1,2*
G04 #@! TO.N,Net-(C1-Pad2)*
X239585500Y-41922700D03*
G04 #@! TD*
G04 #@! TO.P,JP2,2*
G04 #@! TO.N,Net-(C1-Pad2)*
X242900200Y-41910000D03*
D14*
G04 #@! TO.P,JP2,1*
G04 #@! TO.N,GND*
X242900200Y-39370000D03*
G04 #@! TD*
G04 #@! TO.P,JP3,1*
G04 #@! TO.N,GND*
X248350000Y-73230000D03*
D15*
G04 #@! TO.P,JP3,2*
G04 #@! TO.N,Net-(J3-Pad1)*
X250890000Y-73230000D03*
G04 #@! TD*
G04 #@! TO.P,JP4,2*
G04 #@! TO.N,Net-(JP4-Pad2)*
X250940000Y-77830000D03*
D14*
G04 #@! TO.P,JP4,1*
G04 #@! TO.N,Net-(JP4-Pad1)*
X248400000Y-77830000D03*
G04 #@! TD*
G04 #@! TO.P,JP5,1*
G04 #@! TO.N,Net-(JP4-Pad1)*
X248470000Y-82660000D03*
D15*
G04 #@! TO.P,JP5,2*
G04 #@! TO.N,Net-(JP5-Pad2)*
X251010000Y-82660000D03*
G04 #@! TD*
G04 #@! TO.P,JP6,2*
G04 #@! TO.N,Net-(J3-Pad1)*
X250930000Y-68860000D03*
D14*
G04 #@! TO.P,JP6,1*
G04 #@! TO.N,Net-(JP4-Pad1)*
X248390000Y-68860000D03*
G04 #@! TD*
D18*
G04 #@! TO.P,U2,3*
G04 #@! TO.N,+6V*
X199984004Y-59079994D03*
G04 #@! TO.P,U2,2*
G04 #@! TO.N,GND*
X197434004Y-59079994D03*
D19*
G04 #@! TO.P,U2,1*
G04 #@! TO.N,Net-(C2-Pad2)*
X194884004Y-59079994D03*
G04 #@! TD*
D20*
G04 #@! TO.N,GND*
X234358307Y-74490910D03*
X250868307Y-45280910D03*
X200068307Y-46550910D03*
X226738307Y-54170910D03*
X226738307Y-40200910D03*
X197528307Y-70680910D03*
X221658307Y-64330910D03*
G04 #@! TD*
D21*
G04 #@! TO.N,GND*
G36*
X253565660Y-33674050D02*
X253724410Y-33832800D01*
X254562610Y-33832800D01*
X254562610Y-33812800D01*
X254816610Y-33812800D01*
X254816610Y-33832800D01*
X255654810Y-33832800D01*
X255813560Y-33674050D01*
X255813560Y-33290910D01*
X263027160Y-33290910D01*
X263027160Y-33674050D01*
X263185910Y-33832800D01*
X264024110Y-33832800D01*
X264024110Y-33812800D01*
X264128307Y-33812800D01*
X264128307Y-34106800D01*
X264024110Y-34106800D01*
X264024110Y-34086800D01*
X263185910Y-34086800D01*
X263027160Y-34245550D01*
X263027160Y-36036250D01*
X263185910Y-36195000D01*
X264024110Y-36195000D01*
X264024110Y-36175000D01*
X264128307Y-36175000D01*
X264128307Y-36469000D01*
X264024110Y-36469000D01*
X264024110Y-36449000D01*
X263185910Y-36449000D01*
X263027160Y-36607750D01*
X263027160Y-37629410D01*
X263123833Y-37862799D01*
X263302462Y-38041427D01*
X263535851Y-38138100D01*
X263865360Y-38138100D01*
X264024108Y-37979352D01*
X264024108Y-38138100D01*
X264128307Y-38138100D01*
X264128308Y-89020910D01*
X184617004Y-89020910D01*
X184617004Y-82384506D01*
X247085000Y-82384506D01*
X247085000Y-82935494D01*
X247295853Y-83444540D01*
X247685460Y-83834147D01*
X248194506Y-84045000D01*
X248745494Y-84045000D01*
X249254540Y-83834147D01*
X249623531Y-83465156D01*
X249661843Y-83657765D01*
X249802191Y-83867809D01*
X250012235Y-84008157D01*
X250260000Y-84057440D01*
X251760000Y-84057440D01*
X252007765Y-84008157D01*
X252217809Y-83867809D01*
X252358157Y-83657765D01*
X252407440Y-83410000D01*
X252407440Y-81910000D01*
X252358157Y-81662235D01*
X252217809Y-81452191D01*
X252007765Y-81311843D01*
X251760000Y-81262560D01*
X250260000Y-81262560D01*
X250012235Y-81311843D01*
X249802191Y-81452191D01*
X249661843Y-81662235D01*
X249623531Y-81854844D01*
X249254540Y-81485853D01*
X248745494Y-81275000D01*
X248194506Y-81275000D01*
X247685460Y-81485853D01*
X247295853Y-81875460D01*
X247085000Y-82384506D01*
X184617004Y-82384506D01*
X184617004Y-77554506D01*
X247015000Y-77554506D01*
X247015000Y-78105494D01*
X247225853Y-78614540D01*
X247615460Y-79004147D01*
X248124506Y-79215000D01*
X248675494Y-79215000D01*
X249184540Y-79004147D01*
X249553531Y-78635156D01*
X249591843Y-78827765D01*
X249732191Y-79037809D01*
X249942235Y-79178157D01*
X250190000Y-79227440D01*
X251690000Y-79227440D01*
X251937765Y-79178157D01*
X252147809Y-79037809D01*
X252288157Y-78827765D01*
X252337440Y-78580000D01*
X252337440Y-77080000D01*
X252288157Y-76832235D01*
X252147809Y-76622191D01*
X251937765Y-76481843D01*
X251690000Y-76432560D01*
X250190000Y-76432560D01*
X249942235Y-76481843D01*
X249732191Y-76622191D01*
X249591843Y-76832235D01*
X249553531Y-77024844D01*
X249184540Y-76655853D01*
X248675494Y-76445000D01*
X248124506Y-76445000D01*
X247615460Y-76655853D01*
X247225853Y-77045460D01*
X247015000Y-77554506D01*
X184617004Y-77554506D01*
X184617004Y-74201517D01*
X247558088Y-74201517D01*
X247626077Y-74442460D01*
X248145171Y-74627201D01*
X248695448Y-74599230D01*
X249073923Y-74442460D01*
X249141912Y-74201517D01*
X248350000Y-73409605D01*
X247558088Y-74201517D01*
X184617004Y-74201517D01*
X184617004Y-73025171D01*
X246952799Y-73025171D01*
X246980770Y-73575448D01*
X247137540Y-73953923D01*
X247378483Y-74021912D01*
X248170395Y-73230000D01*
X248529605Y-73230000D01*
X249321517Y-74021912D01*
X249492560Y-73973647D01*
X249492560Y-73980000D01*
X249541843Y-74227765D01*
X249682191Y-74437809D01*
X249892235Y-74578157D01*
X250140000Y-74627440D01*
X251640000Y-74627440D01*
X251887765Y-74578157D01*
X252097809Y-74437809D01*
X252238157Y-74227765D01*
X252287440Y-73980000D01*
X252287440Y-72480000D01*
X252238157Y-72232235D01*
X252097809Y-72022191D01*
X251887765Y-71881843D01*
X251640000Y-71832560D01*
X250140000Y-71832560D01*
X249892235Y-71881843D01*
X249682191Y-72022191D01*
X249541843Y-72232235D01*
X249492560Y-72480000D01*
X249492560Y-72486353D01*
X249321517Y-72438088D01*
X248529605Y-73230000D01*
X248170395Y-73230000D01*
X247378483Y-72438088D01*
X247137540Y-72506077D01*
X246952799Y-73025171D01*
X184617004Y-73025171D01*
X184617004Y-72258483D01*
X247558088Y-72258483D01*
X248350000Y-73050395D01*
X249141912Y-72258483D01*
X249073923Y-72017540D01*
X248554829Y-71832799D01*
X248004552Y-71860770D01*
X247626077Y-72017540D01*
X247558088Y-72258483D01*
X184617004Y-72258483D01*
X184617004Y-68584506D01*
X247005000Y-68584506D01*
X247005000Y-69135494D01*
X247215853Y-69644540D01*
X247605460Y-70034147D01*
X248114506Y-70245000D01*
X248665494Y-70245000D01*
X249174540Y-70034147D01*
X249543531Y-69665156D01*
X249581843Y-69857765D01*
X249722191Y-70067809D01*
X249932235Y-70208157D01*
X250180000Y-70257440D01*
X251680000Y-70257440D01*
X251927765Y-70208157D01*
X252137809Y-70067809D01*
X252278157Y-69857765D01*
X252327440Y-69610000D01*
X252327440Y-68110000D01*
X252278157Y-67862235D01*
X252137809Y-67652191D01*
X251927765Y-67511843D01*
X251680000Y-67462560D01*
X250180000Y-67462560D01*
X249932235Y-67511843D01*
X249722191Y-67652191D01*
X249581843Y-67862235D01*
X249543531Y-68054844D01*
X249174540Y-67685853D01*
X248665494Y-67475000D01*
X248114506Y-67475000D01*
X247605460Y-67685853D01*
X247215853Y-68075460D01*
X247005000Y-68584506D01*
X184617004Y-68584506D01*
X184617004Y-65715750D01*
X255248050Y-65715750D01*
X255248050Y-66553259D01*
X255344723Y-66786648D01*
X255523351Y-66965277D01*
X255756740Y-67061950D01*
X256594250Y-67061950D01*
X256753000Y-66903200D01*
X256753000Y-65557000D01*
X257007000Y-65557000D01*
X257007000Y-66903200D01*
X257165750Y-67061950D01*
X258003260Y-67061950D01*
X258236649Y-66965277D01*
X258415277Y-66786648D01*
X258511950Y-66553259D01*
X258511950Y-65715750D01*
X260328050Y-65715750D01*
X260328050Y-66553259D01*
X260424723Y-66786648D01*
X260603351Y-66965277D01*
X260836740Y-67061950D01*
X261674250Y-67061950D01*
X261833000Y-66903200D01*
X261833000Y-65557000D01*
X262087000Y-65557000D01*
X262087000Y-66903200D01*
X262245750Y-67061950D01*
X263083260Y-67061950D01*
X263316649Y-66965277D01*
X263495277Y-66786648D01*
X263591950Y-66553259D01*
X263591950Y-65715750D01*
X263433200Y-65557000D01*
X262087000Y-65557000D01*
X261833000Y-65557000D01*
X260486800Y-65557000D01*
X260328050Y-65715750D01*
X258511950Y-65715750D01*
X258353200Y-65557000D01*
X257007000Y-65557000D01*
X256753000Y-65557000D01*
X255406800Y-65557000D01*
X255248050Y-65715750D01*
X184617004Y-65715750D01*
X184617004Y-64306741D01*
X255248050Y-64306741D01*
X255248050Y-65144250D01*
X255406800Y-65303000D01*
X256753000Y-65303000D01*
X256753000Y-63956800D01*
X256594250Y-63798050D01*
X255756740Y-63798050D01*
X255523351Y-63894723D01*
X255344723Y-64073352D01*
X255248050Y-64306741D01*
X184617004Y-64306741D01*
X184617004Y-58063994D01*
X193220564Y-58063994D01*
X193220564Y-60095994D01*
X193269847Y-60343759D01*
X193410195Y-60553803D01*
X193620239Y-60694151D01*
X193868004Y-60743434D01*
X195900004Y-60743434D01*
X196147769Y-60694151D01*
X196357813Y-60553803D01*
X196490913Y-60354607D01*
X196550124Y-60512616D01*
X197165646Y-60741810D01*
X197822023Y-60718008D01*
X198317884Y-60512616D01*
X198418506Y-60244101D01*
X197434004Y-59259599D01*
X197419862Y-59273742D01*
X197240257Y-59094137D01*
X197254399Y-59079994D01*
X197613609Y-59079994D01*
X198598111Y-60064496D01*
X198623955Y-60054811D01*
X199048788Y-60479644D01*
X199655600Y-60730994D01*
X200312408Y-60730994D01*
X200542347Y-60635750D01*
X255248050Y-60635750D01*
X255248050Y-61473259D01*
X255344723Y-61706648D01*
X255523351Y-61885277D01*
X255756740Y-61981950D01*
X256594250Y-61981950D01*
X256753000Y-61823200D01*
X256753000Y-60477000D01*
X257007000Y-60477000D01*
X257007000Y-61823200D01*
X257165750Y-61981950D01*
X257775610Y-61981950D01*
X257775610Y-63798050D01*
X257165750Y-63798050D01*
X257007000Y-63956800D01*
X257007000Y-65303000D01*
X258353200Y-65303000D01*
X258511950Y-65144250D01*
X258511950Y-64534390D01*
X260328050Y-64534390D01*
X260328050Y-65144250D01*
X260486800Y-65303000D01*
X261833000Y-65303000D01*
X261833000Y-63956800D01*
X262087000Y-63956800D01*
X262087000Y-65303000D01*
X263433200Y-65303000D01*
X263591950Y-65144250D01*
X263591950Y-64306741D01*
X263495277Y-64073352D01*
X263316649Y-63894723D01*
X263083260Y-63798050D01*
X262245750Y-63798050D01*
X262087000Y-63956800D01*
X261833000Y-63956800D01*
X261674250Y-63798050D01*
X261064390Y-63798050D01*
X261064390Y-61981950D01*
X261674250Y-61981950D01*
X261833000Y-61823200D01*
X261833000Y-60477000D01*
X262087000Y-60477000D01*
X262087000Y-61823200D01*
X262245750Y-61981950D01*
X263083260Y-61981950D01*
X263316649Y-61885277D01*
X263495277Y-61706648D01*
X263591950Y-61473259D01*
X263591950Y-60635750D01*
X263433200Y-60477000D01*
X262087000Y-60477000D01*
X261833000Y-60477000D01*
X260486800Y-60477000D01*
X260328050Y-60635750D01*
X260328050Y-61245610D01*
X258511950Y-61245610D01*
X258511950Y-60635750D01*
X258353200Y-60477000D01*
X257007000Y-60477000D01*
X256753000Y-60477000D01*
X255406800Y-60477000D01*
X255248050Y-60635750D01*
X200542347Y-60635750D01*
X200919220Y-60479644D01*
X201383654Y-60015210D01*
X201635004Y-59408398D01*
X201635004Y-59226741D01*
X255248050Y-59226741D01*
X255248050Y-60064250D01*
X255406800Y-60223000D01*
X256753000Y-60223000D01*
X256753000Y-58876800D01*
X257007000Y-58876800D01*
X257007000Y-60223000D01*
X258353200Y-60223000D01*
X258511950Y-60064250D01*
X258511950Y-59226741D01*
X260328050Y-59226741D01*
X260328050Y-60064250D01*
X260486800Y-60223000D01*
X261833000Y-60223000D01*
X261833000Y-58876800D01*
X262087000Y-58876800D01*
X262087000Y-60223000D01*
X263433200Y-60223000D01*
X263591950Y-60064250D01*
X263591950Y-59226741D01*
X263495277Y-58993352D01*
X263316649Y-58814723D01*
X263083260Y-58718050D01*
X262245750Y-58718050D01*
X262087000Y-58876800D01*
X261833000Y-58876800D01*
X261674250Y-58718050D01*
X260836740Y-58718050D01*
X260603351Y-58814723D01*
X260424723Y-58993352D01*
X260328050Y-59226741D01*
X258511950Y-59226741D01*
X258415277Y-58993352D01*
X258236649Y-58814723D01*
X258003260Y-58718050D01*
X257165750Y-58718050D01*
X257007000Y-58876800D01*
X256753000Y-58876800D01*
X256594250Y-58718050D01*
X255756740Y-58718050D01*
X255523351Y-58814723D01*
X255344723Y-58993352D01*
X255248050Y-59226741D01*
X201635004Y-59226741D01*
X201635004Y-58751590D01*
X201383654Y-58144778D01*
X200919220Y-57680344D01*
X200312408Y-57428994D01*
X199655600Y-57428994D01*
X199048788Y-57680344D01*
X198623955Y-58105177D01*
X198598111Y-58095492D01*
X197613609Y-59079994D01*
X197254399Y-59079994D01*
X197240257Y-59065852D01*
X197419862Y-58886247D01*
X197434004Y-58900389D01*
X198418506Y-57915887D01*
X198317884Y-57647372D01*
X197702362Y-57418178D01*
X197045985Y-57441980D01*
X196550124Y-57647372D01*
X196490913Y-57805381D01*
X196357813Y-57606185D01*
X196147769Y-57465837D01*
X195900004Y-57416554D01*
X193868004Y-57416554D01*
X193620239Y-57465837D01*
X193410195Y-57606185D01*
X193269847Y-57816229D01*
X193220564Y-58063994D01*
X184617004Y-58063994D01*
X184617004Y-51986000D01*
X188244560Y-51986000D01*
X188244560Y-54186000D01*
X188293843Y-54433765D01*
X188434191Y-54643809D01*
X188644235Y-54784157D01*
X188892000Y-54833440D01*
X191092000Y-54833440D01*
X191339765Y-54784157D01*
X191549809Y-54643809D01*
X191690157Y-54433765D01*
X191739440Y-54186000D01*
X191739440Y-51986000D01*
X191690157Y-51738235D01*
X191549809Y-51528191D01*
X191339765Y-51387843D01*
X191092000Y-51338560D01*
X188892000Y-51338560D01*
X188644235Y-51387843D01*
X188434191Y-51528191D01*
X188293843Y-51738235D01*
X188244560Y-51986000D01*
X184617004Y-51986000D01*
X184617004Y-50983744D01*
X211403004Y-50983744D01*
X211403004Y-51724303D01*
X211499677Y-51957692D01*
X211678305Y-52136321D01*
X211813048Y-52192133D01*
X211636694Y-52368487D01*
X211403004Y-52932664D01*
X211403004Y-53543324D01*
X211636694Y-54107501D01*
X212068497Y-54539304D01*
X212632674Y-54772994D01*
X213243334Y-54772994D01*
X213807511Y-54539304D01*
X214239314Y-54107501D01*
X214473004Y-53543324D01*
X214473004Y-52932664D01*
X214239314Y-52368487D01*
X214062960Y-52192133D01*
X214197703Y-52136321D01*
X214376331Y-51957692D01*
X214473004Y-51724303D01*
X214473004Y-50983744D01*
X214314254Y-50824994D01*
X213065004Y-50824994D01*
X213065004Y-50844994D01*
X212811004Y-50844994D01*
X212811004Y-50824994D01*
X211561754Y-50824994D01*
X211403004Y-50983744D01*
X184617004Y-50983744D01*
X184617004Y-49671685D01*
X211403004Y-49671685D01*
X211403004Y-50412244D01*
X211561754Y-50570994D01*
X212811004Y-50570994D01*
X212811004Y-49321744D01*
X213065004Y-49321744D01*
X213065004Y-50570994D01*
X214314254Y-50570994D01*
X214473004Y-50412244D01*
X214473004Y-49671685D01*
X214376331Y-49438296D01*
X214197703Y-49259667D01*
X213964314Y-49162994D01*
X213223754Y-49162994D01*
X213065004Y-49321744D01*
X212811004Y-49321744D01*
X212652254Y-49162994D01*
X211911694Y-49162994D01*
X211678305Y-49259667D01*
X211499677Y-49438296D01*
X211403004Y-49671685D01*
X184617004Y-49671685D01*
X184617004Y-42926000D01*
X188223010Y-42926000D01*
X188357666Y-43602963D01*
X188741135Y-44176865D01*
X189315037Y-44560334D01*
X189821120Y-44661000D01*
X190162880Y-44661000D01*
X190668963Y-44560334D01*
X191242865Y-44176865D01*
X191626334Y-43602963D01*
X191760990Y-42926000D01*
X191626334Y-42249037D01*
X191607701Y-42221150D01*
X235165200Y-42221150D01*
X235165200Y-42811709D01*
X235261873Y-43045098D01*
X235440501Y-43223727D01*
X235673890Y-43320400D01*
X236264450Y-43320400D01*
X236423200Y-43161650D01*
X236423200Y-42062400D01*
X236677200Y-42062400D01*
X236677200Y-43161650D01*
X236835950Y-43320400D01*
X237426510Y-43320400D01*
X237659899Y-43223727D01*
X237838527Y-43045098D01*
X237935200Y-42811709D01*
X237935200Y-42221150D01*
X237776450Y-42062400D01*
X236677200Y-42062400D01*
X236423200Y-42062400D01*
X235323950Y-42062400D01*
X235165200Y-42221150D01*
X191607701Y-42221150D01*
X191242865Y-41675135D01*
X190668963Y-41291666D01*
X190162880Y-41191000D01*
X189821120Y-41191000D01*
X189315037Y-41291666D01*
X188741135Y-41675135D01*
X188357666Y-42249037D01*
X188223010Y-42926000D01*
X184617004Y-42926000D01*
X184617004Y-38840506D01*
X188607000Y-38840506D01*
X188607000Y-39391494D01*
X188817853Y-39900540D01*
X189207460Y-40290147D01*
X189716506Y-40501000D01*
X190267494Y-40501000D01*
X190776540Y-40290147D01*
X191147000Y-39919687D01*
X191147000Y-39992310D01*
X191243673Y-40225699D01*
X191422302Y-40404327D01*
X191655691Y-40501000D01*
X192246250Y-40501000D01*
X192405000Y-40342250D01*
X192405000Y-39243000D01*
X192659000Y-39243000D01*
X192659000Y-40342250D01*
X192817750Y-40501000D01*
X193408309Y-40501000D01*
X193641698Y-40404327D01*
X193820327Y-40225699D01*
X193917000Y-39992310D01*
X193917000Y-39401750D01*
X193758250Y-39243000D01*
X192659000Y-39243000D01*
X192405000Y-39243000D01*
X192385000Y-39243000D01*
X192385000Y-39119906D01*
X235165200Y-39119906D01*
X235165200Y-39670894D01*
X235376053Y-40179940D01*
X235746513Y-40550400D01*
X235673890Y-40550400D01*
X235440501Y-40647073D01*
X235261873Y-40825702D01*
X235165200Y-41059091D01*
X235165200Y-41649650D01*
X235323950Y-41808400D01*
X236423200Y-41808400D01*
X236423200Y-41788400D01*
X236677200Y-41788400D01*
X236677200Y-41808400D01*
X237776450Y-41808400D01*
X237935200Y-41649650D01*
X237935200Y-41172700D01*
X238188060Y-41172700D01*
X238188060Y-42672700D01*
X238237343Y-42920465D01*
X238377691Y-43130509D01*
X238587735Y-43270857D01*
X238835500Y-43320140D01*
X240335500Y-43320140D01*
X240583265Y-43270857D01*
X240793309Y-43130509D01*
X240933657Y-42920465D01*
X240982940Y-42672700D01*
X240982940Y-41172700D01*
X240980414Y-41160000D01*
X241502760Y-41160000D01*
X241502760Y-42660000D01*
X241552043Y-42907765D01*
X241692391Y-43117809D01*
X241902435Y-43258157D01*
X242150200Y-43307440D01*
X243650200Y-43307440D01*
X243897965Y-43258157D01*
X244108009Y-43117809D01*
X244248357Y-42907765D01*
X244297640Y-42660000D01*
X244297640Y-41160000D01*
X244248357Y-40912235D01*
X244108009Y-40702191D01*
X243897965Y-40561843D01*
X243650200Y-40512560D01*
X243643847Y-40512560D01*
X243692112Y-40341517D01*
X242900200Y-39549605D01*
X242108288Y-40341517D01*
X242156553Y-40512560D01*
X242150200Y-40512560D01*
X241902435Y-40561843D01*
X241692391Y-40702191D01*
X241552043Y-40912235D01*
X241502760Y-41160000D01*
X240980414Y-41160000D01*
X240933657Y-40924935D01*
X240793309Y-40714891D01*
X240583265Y-40574543D01*
X240390656Y-40536231D01*
X240759647Y-40167240D01*
X240970500Y-39658194D01*
X240970500Y-39165171D01*
X241502999Y-39165171D01*
X241530970Y-39715448D01*
X241687740Y-40093923D01*
X241928683Y-40161912D01*
X242720595Y-39370000D01*
X243079805Y-39370000D01*
X243871717Y-40161912D01*
X244112660Y-40093923D01*
X244297401Y-39574829D01*
X244269430Y-39024552D01*
X244112660Y-38646077D01*
X243871717Y-38578088D01*
X243079805Y-39370000D01*
X242720595Y-39370000D01*
X241928683Y-38578088D01*
X241687740Y-38646077D01*
X241502999Y-39165171D01*
X240970500Y-39165171D01*
X240970500Y-39107206D01*
X240759647Y-38598160D01*
X240559970Y-38398483D01*
X242108288Y-38398483D01*
X242900200Y-39190395D01*
X243692112Y-38398483D01*
X243624123Y-38157540D01*
X243105029Y-37972799D01*
X242554752Y-38000770D01*
X242176277Y-38157540D01*
X242108288Y-38398483D01*
X240559970Y-38398483D01*
X240370040Y-38208553D01*
X239860994Y-37997700D01*
X239310006Y-37997700D01*
X238800960Y-38208553D01*
X238411353Y-38598160D01*
X238200500Y-39107206D01*
X238200500Y-39658194D01*
X238411353Y-40167240D01*
X238780344Y-40536231D01*
X238587735Y-40574543D01*
X238377691Y-40714891D01*
X238237343Y-40924935D01*
X238188060Y-41172700D01*
X237935200Y-41172700D01*
X237935200Y-41059091D01*
X237838527Y-40825702D01*
X237659899Y-40647073D01*
X237426510Y-40550400D01*
X237353887Y-40550400D01*
X237724347Y-40179940D01*
X237935200Y-39670894D01*
X237935200Y-39119906D01*
X237724347Y-38610860D01*
X237334740Y-38221253D01*
X236825694Y-38010400D01*
X236274706Y-38010400D01*
X235765660Y-38221253D01*
X235376053Y-38610860D01*
X235165200Y-39119906D01*
X192385000Y-39119906D01*
X192385000Y-38989000D01*
X192405000Y-38989000D01*
X192405000Y-37889750D01*
X192659000Y-37889750D01*
X192659000Y-38989000D01*
X193758250Y-38989000D01*
X193917000Y-38830250D01*
X193917000Y-38239690D01*
X193820327Y-38006301D01*
X193641698Y-37827673D01*
X193408309Y-37731000D01*
X192817750Y-37731000D01*
X192659000Y-37889750D01*
X192405000Y-37889750D01*
X192246250Y-37731000D01*
X191655691Y-37731000D01*
X191422302Y-37827673D01*
X191243673Y-38006301D01*
X191147000Y-38239690D01*
X191147000Y-38312313D01*
X190776540Y-37941853D01*
X190267494Y-37731000D01*
X189716506Y-37731000D01*
X189207460Y-37941853D01*
X188817853Y-38331460D01*
X188607000Y-38840506D01*
X184617004Y-38840506D01*
X184617004Y-36607750D01*
X253565660Y-36607750D01*
X253565660Y-37629410D01*
X253662333Y-37862799D01*
X253840962Y-38041427D01*
X254074351Y-38138100D01*
X254403860Y-38138100D01*
X254562610Y-37979350D01*
X254562610Y-36449000D01*
X254816610Y-36449000D01*
X254816610Y-37979350D01*
X254975360Y-38138100D01*
X255304869Y-38138100D01*
X255538258Y-38041427D01*
X255716887Y-37862799D01*
X255813560Y-37629410D01*
X255813560Y-36607750D01*
X255654810Y-36449000D01*
X254816610Y-36449000D01*
X254562610Y-36449000D01*
X253724410Y-36449000D01*
X253565660Y-36607750D01*
X184617004Y-36607750D01*
X184617004Y-34245550D01*
X253565660Y-34245550D01*
X253565660Y-36036250D01*
X253724410Y-36195000D01*
X254562610Y-36195000D01*
X254562610Y-34086800D01*
X254816610Y-34086800D01*
X254816610Y-36195000D01*
X255654810Y-36195000D01*
X255813560Y-36036250D01*
X255813560Y-34245550D01*
X255654810Y-34086800D01*
X254816610Y-34086800D01*
X254562610Y-34086800D01*
X253724410Y-34086800D01*
X253565660Y-34245550D01*
X184617004Y-34245550D01*
X184617004Y-33290910D01*
X253565660Y-33290910D01*
X253565660Y-33674050D01*
X253565660Y-33674050D01*
G37*
X253565660Y-33674050D02*
X253724410Y-33832800D01*
X254562610Y-33832800D01*
X254562610Y-33812800D01*
X254816610Y-33812800D01*
X254816610Y-33832800D01*
X255654810Y-33832800D01*
X255813560Y-33674050D01*
X255813560Y-33290910D01*
X263027160Y-33290910D01*
X263027160Y-33674050D01*
X263185910Y-33832800D01*
X264024110Y-33832800D01*
X264024110Y-33812800D01*
X264128307Y-33812800D01*
X264128307Y-34106800D01*
X264024110Y-34106800D01*
X264024110Y-34086800D01*
X263185910Y-34086800D01*
X263027160Y-34245550D01*
X263027160Y-36036250D01*
X263185910Y-36195000D01*
X264024110Y-36195000D01*
X264024110Y-36175000D01*
X264128307Y-36175000D01*
X264128307Y-36469000D01*
X264024110Y-36469000D01*
X264024110Y-36449000D01*
X263185910Y-36449000D01*
X263027160Y-36607750D01*
X263027160Y-37629410D01*
X263123833Y-37862799D01*
X263302462Y-38041427D01*
X263535851Y-38138100D01*
X263865360Y-38138100D01*
X264024108Y-37979352D01*
X264024108Y-38138100D01*
X264128307Y-38138100D01*
X264128308Y-89020910D01*
X184617004Y-89020910D01*
X184617004Y-82384506D01*
X247085000Y-82384506D01*
X247085000Y-82935494D01*
X247295853Y-83444540D01*
X247685460Y-83834147D01*
X248194506Y-84045000D01*
X248745494Y-84045000D01*
X249254540Y-83834147D01*
X249623531Y-83465156D01*
X249661843Y-83657765D01*
X249802191Y-83867809D01*
X250012235Y-84008157D01*
X250260000Y-84057440D01*
X251760000Y-84057440D01*
X252007765Y-84008157D01*
X252217809Y-83867809D01*
X252358157Y-83657765D01*
X252407440Y-83410000D01*
X252407440Y-81910000D01*
X252358157Y-81662235D01*
X252217809Y-81452191D01*
X252007765Y-81311843D01*
X251760000Y-81262560D01*
X250260000Y-81262560D01*
X250012235Y-81311843D01*
X249802191Y-81452191D01*
X249661843Y-81662235D01*
X249623531Y-81854844D01*
X249254540Y-81485853D01*
X248745494Y-81275000D01*
X248194506Y-81275000D01*
X247685460Y-81485853D01*
X247295853Y-81875460D01*
X247085000Y-82384506D01*
X184617004Y-82384506D01*
X184617004Y-77554506D01*
X247015000Y-77554506D01*
X247015000Y-78105494D01*
X247225853Y-78614540D01*
X247615460Y-79004147D01*
X248124506Y-79215000D01*
X248675494Y-79215000D01*
X249184540Y-79004147D01*
X249553531Y-78635156D01*
X249591843Y-78827765D01*
X249732191Y-79037809D01*
X249942235Y-79178157D01*
X250190000Y-79227440D01*
X251690000Y-79227440D01*
X251937765Y-79178157D01*
X252147809Y-79037809D01*
X252288157Y-78827765D01*
X252337440Y-78580000D01*
X252337440Y-77080000D01*
X252288157Y-76832235D01*
X252147809Y-76622191D01*
X251937765Y-76481843D01*
X251690000Y-76432560D01*
X250190000Y-76432560D01*
X249942235Y-76481843D01*
X249732191Y-76622191D01*
X249591843Y-76832235D01*
X249553531Y-77024844D01*
X249184540Y-76655853D01*
X248675494Y-76445000D01*
X248124506Y-76445000D01*
X247615460Y-76655853D01*
X247225853Y-77045460D01*
X247015000Y-77554506D01*
X184617004Y-77554506D01*
X184617004Y-74201517D01*
X247558088Y-74201517D01*
X247626077Y-74442460D01*
X248145171Y-74627201D01*
X248695448Y-74599230D01*
X249073923Y-74442460D01*
X249141912Y-74201517D01*
X248350000Y-73409605D01*
X247558088Y-74201517D01*
X184617004Y-74201517D01*
X184617004Y-73025171D01*
X246952799Y-73025171D01*
X246980770Y-73575448D01*
X247137540Y-73953923D01*
X247378483Y-74021912D01*
X248170395Y-73230000D01*
X248529605Y-73230000D01*
X249321517Y-74021912D01*
X249492560Y-73973647D01*
X249492560Y-73980000D01*
X249541843Y-74227765D01*
X249682191Y-74437809D01*
X249892235Y-74578157D01*
X250140000Y-74627440D01*
X251640000Y-74627440D01*
X251887765Y-74578157D01*
X252097809Y-74437809D01*
X252238157Y-74227765D01*
X252287440Y-73980000D01*
X252287440Y-72480000D01*
X252238157Y-72232235D01*
X252097809Y-72022191D01*
X251887765Y-71881843D01*
X251640000Y-71832560D01*
X250140000Y-71832560D01*
X249892235Y-71881843D01*
X249682191Y-72022191D01*
X249541843Y-72232235D01*
X249492560Y-72480000D01*
X249492560Y-72486353D01*
X249321517Y-72438088D01*
X248529605Y-73230000D01*
X248170395Y-73230000D01*
X247378483Y-72438088D01*
X247137540Y-72506077D01*
X246952799Y-73025171D01*
X184617004Y-73025171D01*
X184617004Y-72258483D01*
X247558088Y-72258483D01*
X248350000Y-73050395D01*
X249141912Y-72258483D01*
X249073923Y-72017540D01*
X248554829Y-71832799D01*
X248004552Y-71860770D01*
X247626077Y-72017540D01*
X247558088Y-72258483D01*
X184617004Y-72258483D01*
X184617004Y-68584506D01*
X247005000Y-68584506D01*
X247005000Y-69135494D01*
X247215853Y-69644540D01*
X247605460Y-70034147D01*
X248114506Y-70245000D01*
X248665494Y-70245000D01*
X249174540Y-70034147D01*
X249543531Y-69665156D01*
X249581843Y-69857765D01*
X249722191Y-70067809D01*
X249932235Y-70208157D01*
X250180000Y-70257440D01*
X251680000Y-70257440D01*
X251927765Y-70208157D01*
X252137809Y-70067809D01*
X252278157Y-69857765D01*
X252327440Y-69610000D01*
X252327440Y-68110000D01*
X252278157Y-67862235D01*
X252137809Y-67652191D01*
X251927765Y-67511843D01*
X251680000Y-67462560D01*
X250180000Y-67462560D01*
X249932235Y-67511843D01*
X249722191Y-67652191D01*
X249581843Y-67862235D01*
X249543531Y-68054844D01*
X249174540Y-67685853D01*
X248665494Y-67475000D01*
X248114506Y-67475000D01*
X247605460Y-67685853D01*
X247215853Y-68075460D01*
X247005000Y-68584506D01*
X184617004Y-68584506D01*
X184617004Y-65715750D01*
X255248050Y-65715750D01*
X255248050Y-66553259D01*
X255344723Y-66786648D01*
X255523351Y-66965277D01*
X255756740Y-67061950D01*
X256594250Y-67061950D01*
X256753000Y-66903200D01*
X256753000Y-65557000D01*
X257007000Y-65557000D01*
X257007000Y-66903200D01*
X257165750Y-67061950D01*
X258003260Y-67061950D01*
X258236649Y-66965277D01*
X258415277Y-66786648D01*
X258511950Y-66553259D01*
X258511950Y-65715750D01*
X260328050Y-65715750D01*
X260328050Y-66553259D01*
X260424723Y-66786648D01*
X260603351Y-66965277D01*
X260836740Y-67061950D01*
X261674250Y-67061950D01*
X261833000Y-66903200D01*
X261833000Y-65557000D01*
X262087000Y-65557000D01*
X262087000Y-66903200D01*
X262245750Y-67061950D01*
X263083260Y-67061950D01*
X263316649Y-66965277D01*
X263495277Y-66786648D01*
X263591950Y-66553259D01*
X263591950Y-65715750D01*
X263433200Y-65557000D01*
X262087000Y-65557000D01*
X261833000Y-65557000D01*
X260486800Y-65557000D01*
X260328050Y-65715750D01*
X258511950Y-65715750D01*
X258353200Y-65557000D01*
X257007000Y-65557000D01*
X256753000Y-65557000D01*
X255406800Y-65557000D01*
X255248050Y-65715750D01*
X184617004Y-65715750D01*
X184617004Y-64306741D01*
X255248050Y-64306741D01*
X255248050Y-65144250D01*
X255406800Y-65303000D01*
X256753000Y-65303000D01*
X256753000Y-63956800D01*
X256594250Y-63798050D01*
X255756740Y-63798050D01*
X255523351Y-63894723D01*
X255344723Y-64073352D01*
X255248050Y-64306741D01*
X184617004Y-64306741D01*
X184617004Y-58063994D01*
X193220564Y-58063994D01*
X193220564Y-60095994D01*
X193269847Y-60343759D01*
X193410195Y-60553803D01*
X193620239Y-60694151D01*
X193868004Y-60743434D01*
X195900004Y-60743434D01*
X196147769Y-60694151D01*
X196357813Y-60553803D01*
X196490913Y-60354607D01*
X196550124Y-60512616D01*
X197165646Y-60741810D01*
X197822023Y-60718008D01*
X198317884Y-60512616D01*
X198418506Y-60244101D01*
X197434004Y-59259599D01*
X197419862Y-59273742D01*
X197240257Y-59094137D01*
X197254399Y-59079994D01*
X197613609Y-59079994D01*
X198598111Y-60064496D01*
X198623955Y-60054811D01*
X199048788Y-60479644D01*
X199655600Y-60730994D01*
X200312408Y-60730994D01*
X200542347Y-60635750D01*
X255248050Y-60635750D01*
X255248050Y-61473259D01*
X255344723Y-61706648D01*
X255523351Y-61885277D01*
X255756740Y-61981950D01*
X256594250Y-61981950D01*
X256753000Y-61823200D01*
X256753000Y-60477000D01*
X257007000Y-60477000D01*
X257007000Y-61823200D01*
X257165750Y-61981950D01*
X257775610Y-61981950D01*
X257775610Y-63798050D01*
X257165750Y-63798050D01*
X257007000Y-63956800D01*
X257007000Y-65303000D01*
X258353200Y-65303000D01*
X258511950Y-65144250D01*
X258511950Y-64534390D01*
X260328050Y-64534390D01*
X260328050Y-65144250D01*
X260486800Y-65303000D01*
X261833000Y-65303000D01*
X261833000Y-63956800D01*
X262087000Y-63956800D01*
X262087000Y-65303000D01*
X263433200Y-65303000D01*
X263591950Y-65144250D01*
X263591950Y-64306741D01*
X263495277Y-64073352D01*
X263316649Y-63894723D01*
X263083260Y-63798050D01*
X262245750Y-63798050D01*
X262087000Y-63956800D01*
X261833000Y-63956800D01*
X261674250Y-63798050D01*
X261064390Y-63798050D01*
X261064390Y-61981950D01*
X261674250Y-61981950D01*
X261833000Y-61823200D01*
X261833000Y-60477000D01*
X262087000Y-60477000D01*
X262087000Y-61823200D01*
X262245750Y-61981950D01*
X263083260Y-61981950D01*
X263316649Y-61885277D01*
X263495277Y-61706648D01*
X263591950Y-61473259D01*
X263591950Y-60635750D01*
X263433200Y-60477000D01*
X262087000Y-60477000D01*
X261833000Y-60477000D01*
X260486800Y-60477000D01*
X260328050Y-60635750D01*
X260328050Y-61245610D01*
X258511950Y-61245610D01*
X258511950Y-60635750D01*
X258353200Y-60477000D01*
X257007000Y-60477000D01*
X256753000Y-60477000D01*
X255406800Y-60477000D01*
X255248050Y-60635750D01*
X200542347Y-60635750D01*
X200919220Y-60479644D01*
X201383654Y-60015210D01*
X201635004Y-59408398D01*
X201635004Y-59226741D01*
X255248050Y-59226741D01*
X255248050Y-60064250D01*
X255406800Y-60223000D01*
X256753000Y-60223000D01*
X256753000Y-58876800D01*
X257007000Y-58876800D01*
X257007000Y-60223000D01*
X258353200Y-60223000D01*
X258511950Y-60064250D01*
X258511950Y-59226741D01*
X260328050Y-59226741D01*
X260328050Y-60064250D01*
X260486800Y-60223000D01*
X261833000Y-60223000D01*
X261833000Y-58876800D01*
X262087000Y-58876800D01*
X262087000Y-60223000D01*
X263433200Y-60223000D01*
X263591950Y-60064250D01*
X263591950Y-59226741D01*
X263495277Y-58993352D01*
X263316649Y-58814723D01*
X263083260Y-58718050D01*
X262245750Y-58718050D01*
X262087000Y-58876800D01*
X261833000Y-58876800D01*
X261674250Y-58718050D01*
X260836740Y-58718050D01*
X260603351Y-58814723D01*
X260424723Y-58993352D01*
X260328050Y-59226741D01*
X258511950Y-59226741D01*
X258415277Y-58993352D01*
X258236649Y-58814723D01*
X258003260Y-58718050D01*
X257165750Y-58718050D01*
X257007000Y-58876800D01*
X256753000Y-58876800D01*
X256594250Y-58718050D01*
X255756740Y-58718050D01*
X255523351Y-58814723D01*
X255344723Y-58993352D01*
X255248050Y-59226741D01*
X201635004Y-59226741D01*
X201635004Y-58751590D01*
X201383654Y-58144778D01*
X200919220Y-57680344D01*
X200312408Y-57428994D01*
X199655600Y-57428994D01*
X199048788Y-57680344D01*
X198623955Y-58105177D01*
X198598111Y-58095492D01*
X197613609Y-59079994D01*
X197254399Y-59079994D01*
X197240257Y-59065852D01*
X197419862Y-58886247D01*
X197434004Y-58900389D01*
X198418506Y-57915887D01*
X198317884Y-57647372D01*
X197702362Y-57418178D01*
X197045985Y-57441980D01*
X196550124Y-57647372D01*
X196490913Y-57805381D01*
X196357813Y-57606185D01*
X196147769Y-57465837D01*
X195900004Y-57416554D01*
X193868004Y-57416554D01*
X193620239Y-57465837D01*
X193410195Y-57606185D01*
X193269847Y-57816229D01*
X193220564Y-58063994D01*
X184617004Y-58063994D01*
X184617004Y-51986000D01*
X188244560Y-51986000D01*
X188244560Y-54186000D01*
X188293843Y-54433765D01*
X188434191Y-54643809D01*
X188644235Y-54784157D01*
X188892000Y-54833440D01*
X191092000Y-54833440D01*
X191339765Y-54784157D01*
X191549809Y-54643809D01*
X191690157Y-54433765D01*
X191739440Y-54186000D01*
X191739440Y-51986000D01*
X191690157Y-51738235D01*
X191549809Y-51528191D01*
X191339765Y-51387843D01*
X191092000Y-51338560D01*
X188892000Y-51338560D01*
X188644235Y-51387843D01*
X188434191Y-51528191D01*
X188293843Y-51738235D01*
X188244560Y-51986000D01*
X184617004Y-51986000D01*
X184617004Y-50983744D01*
X211403004Y-50983744D01*
X211403004Y-51724303D01*
X211499677Y-51957692D01*
X211678305Y-52136321D01*
X211813048Y-52192133D01*
X211636694Y-52368487D01*
X211403004Y-52932664D01*
X211403004Y-53543324D01*
X211636694Y-54107501D01*
X212068497Y-54539304D01*
X212632674Y-54772994D01*
X213243334Y-54772994D01*
X213807511Y-54539304D01*
X214239314Y-54107501D01*
X214473004Y-53543324D01*
X214473004Y-52932664D01*
X214239314Y-52368487D01*
X214062960Y-52192133D01*
X214197703Y-52136321D01*
X214376331Y-51957692D01*
X214473004Y-51724303D01*
X214473004Y-50983744D01*
X214314254Y-50824994D01*
X213065004Y-50824994D01*
X213065004Y-50844994D01*
X212811004Y-50844994D01*
X212811004Y-50824994D01*
X211561754Y-50824994D01*
X211403004Y-50983744D01*
X184617004Y-50983744D01*
X184617004Y-49671685D01*
X211403004Y-49671685D01*
X211403004Y-50412244D01*
X211561754Y-50570994D01*
X212811004Y-50570994D01*
X212811004Y-49321744D01*
X213065004Y-49321744D01*
X213065004Y-50570994D01*
X214314254Y-50570994D01*
X214473004Y-50412244D01*
X214473004Y-49671685D01*
X214376331Y-49438296D01*
X214197703Y-49259667D01*
X213964314Y-49162994D01*
X213223754Y-49162994D01*
X213065004Y-49321744D01*
X212811004Y-49321744D01*
X212652254Y-49162994D01*
X211911694Y-49162994D01*
X211678305Y-49259667D01*
X211499677Y-49438296D01*
X211403004Y-49671685D01*
X184617004Y-49671685D01*
X184617004Y-42926000D01*
X188223010Y-42926000D01*
X188357666Y-43602963D01*
X188741135Y-44176865D01*
X189315037Y-44560334D01*
X189821120Y-44661000D01*
X190162880Y-44661000D01*
X190668963Y-44560334D01*
X191242865Y-44176865D01*
X191626334Y-43602963D01*
X191760990Y-42926000D01*
X191626334Y-42249037D01*
X191607701Y-42221150D01*
X235165200Y-42221150D01*
X235165200Y-42811709D01*
X235261873Y-43045098D01*
X235440501Y-43223727D01*
X235673890Y-43320400D01*
X236264450Y-43320400D01*
X236423200Y-43161650D01*
X236423200Y-42062400D01*
X236677200Y-42062400D01*
X236677200Y-43161650D01*
X236835950Y-43320400D01*
X237426510Y-43320400D01*
X237659899Y-43223727D01*
X237838527Y-43045098D01*
X237935200Y-42811709D01*
X237935200Y-42221150D01*
X237776450Y-42062400D01*
X236677200Y-42062400D01*
X236423200Y-42062400D01*
X235323950Y-42062400D01*
X235165200Y-42221150D01*
X191607701Y-42221150D01*
X191242865Y-41675135D01*
X190668963Y-41291666D01*
X190162880Y-41191000D01*
X189821120Y-41191000D01*
X189315037Y-41291666D01*
X188741135Y-41675135D01*
X188357666Y-42249037D01*
X188223010Y-42926000D01*
X184617004Y-42926000D01*
X184617004Y-38840506D01*
X188607000Y-38840506D01*
X188607000Y-39391494D01*
X188817853Y-39900540D01*
X189207460Y-40290147D01*
X189716506Y-40501000D01*
X190267494Y-40501000D01*
X190776540Y-40290147D01*
X191147000Y-39919687D01*
X191147000Y-39992310D01*
X191243673Y-40225699D01*
X191422302Y-40404327D01*
X191655691Y-40501000D01*
X192246250Y-40501000D01*
X192405000Y-40342250D01*
X192405000Y-39243000D01*
X192659000Y-39243000D01*
X192659000Y-40342250D01*
X192817750Y-40501000D01*
X193408309Y-40501000D01*
X193641698Y-40404327D01*
X193820327Y-40225699D01*
X193917000Y-39992310D01*
X193917000Y-39401750D01*
X193758250Y-39243000D01*
X192659000Y-39243000D01*
X192405000Y-39243000D01*
X192385000Y-39243000D01*
X192385000Y-39119906D01*
X235165200Y-39119906D01*
X235165200Y-39670894D01*
X235376053Y-40179940D01*
X235746513Y-40550400D01*
X235673890Y-40550400D01*
X235440501Y-40647073D01*
X235261873Y-40825702D01*
X235165200Y-41059091D01*
X235165200Y-41649650D01*
X235323950Y-41808400D01*
X236423200Y-41808400D01*
X236423200Y-41788400D01*
X236677200Y-41788400D01*
X236677200Y-41808400D01*
X237776450Y-41808400D01*
X237935200Y-41649650D01*
X237935200Y-41172700D01*
X238188060Y-41172700D01*
X238188060Y-42672700D01*
X238237343Y-42920465D01*
X238377691Y-43130509D01*
X238587735Y-43270857D01*
X238835500Y-43320140D01*
X240335500Y-43320140D01*
X240583265Y-43270857D01*
X240793309Y-43130509D01*
X240933657Y-42920465D01*
X240982940Y-42672700D01*
X240982940Y-41172700D01*
X240980414Y-41160000D01*
X241502760Y-41160000D01*
X241502760Y-42660000D01*
X241552043Y-42907765D01*
X241692391Y-43117809D01*
X241902435Y-43258157D01*
X242150200Y-43307440D01*
X243650200Y-43307440D01*
X243897965Y-43258157D01*
X244108009Y-43117809D01*
X244248357Y-42907765D01*
X244297640Y-42660000D01*
X244297640Y-41160000D01*
X244248357Y-40912235D01*
X244108009Y-40702191D01*
X243897965Y-40561843D01*
X243650200Y-40512560D01*
X243643847Y-40512560D01*
X243692112Y-40341517D01*
X242900200Y-39549605D01*
X242108288Y-40341517D01*
X242156553Y-40512560D01*
X242150200Y-40512560D01*
X241902435Y-40561843D01*
X241692391Y-40702191D01*
X241552043Y-40912235D01*
X241502760Y-41160000D01*
X240980414Y-41160000D01*
X240933657Y-40924935D01*
X240793309Y-40714891D01*
X240583265Y-40574543D01*
X240390656Y-40536231D01*
X240759647Y-40167240D01*
X240970500Y-39658194D01*
X240970500Y-39165171D01*
X241502999Y-39165171D01*
X241530970Y-39715448D01*
X241687740Y-40093923D01*
X241928683Y-40161912D01*
X242720595Y-39370000D01*
X243079805Y-39370000D01*
X243871717Y-40161912D01*
X244112660Y-40093923D01*
X244297401Y-39574829D01*
X244269430Y-39024552D01*
X244112660Y-38646077D01*
X243871717Y-38578088D01*
X243079805Y-39370000D01*
X242720595Y-39370000D01*
X241928683Y-38578088D01*
X241687740Y-38646077D01*
X241502999Y-39165171D01*
X240970500Y-39165171D01*
X240970500Y-39107206D01*
X240759647Y-38598160D01*
X240559970Y-38398483D01*
X242108288Y-38398483D01*
X242900200Y-39190395D01*
X243692112Y-38398483D01*
X243624123Y-38157540D01*
X243105029Y-37972799D01*
X242554752Y-38000770D01*
X242176277Y-38157540D01*
X242108288Y-38398483D01*
X240559970Y-38398483D01*
X240370040Y-38208553D01*
X239860994Y-37997700D01*
X239310006Y-37997700D01*
X238800960Y-38208553D01*
X238411353Y-38598160D01*
X238200500Y-39107206D01*
X238200500Y-39658194D01*
X238411353Y-40167240D01*
X238780344Y-40536231D01*
X238587735Y-40574543D01*
X238377691Y-40714891D01*
X238237343Y-40924935D01*
X238188060Y-41172700D01*
X237935200Y-41172700D01*
X237935200Y-41059091D01*
X237838527Y-40825702D01*
X237659899Y-40647073D01*
X237426510Y-40550400D01*
X237353887Y-40550400D01*
X237724347Y-40179940D01*
X237935200Y-39670894D01*
X237935200Y-39119906D01*
X237724347Y-38610860D01*
X237334740Y-38221253D01*
X236825694Y-38010400D01*
X236274706Y-38010400D01*
X235765660Y-38221253D01*
X235376053Y-38610860D01*
X235165200Y-39119906D01*
X192385000Y-39119906D01*
X192385000Y-38989000D01*
X192405000Y-38989000D01*
X192405000Y-37889750D01*
X192659000Y-37889750D01*
X192659000Y-38989000D01*
X193758250Y-38989000D01*
X193917000Y-38830250D01*
X193917000Y-38239690D01*
X193820327Y-38006301D01*
X193641698Y-37827673D01*
X193408309Y-37731000D01*
X192817750Y-37731000D01*
X192659000Y-37889750D01*
X192405000Y-37889750D01*
X192246250Y-37731000D01*
X191655691Y-37731000D01*
X191422302Y-37827673D01*
X191243673Y-38006301D01*
X191147000Y-38239690D01*
X191147000Y-38312313D01*
X190776540Y-37941853D01*
X190267494Y-37731000D01*
X189716506Y-37731000D01*
X189207460Y-37941853D01*
X188817853Y-38331460D01*
X188607000Y-38840506D01*
X184617004Y-38840506D01*
X184617004Y-36607750D01*
X253565660Y-36607750D01*
X253565660Y-37629410D01*
X253662333Y-37862799D01*
X253840962Y-38041427D01*
X254074351Y-38138100D01*
X254403860Y-38138100D01*
X254562610Y-37979350D01*
X254562610Y-36449000D01*
X254816610Y-36449000D01*
X254816610Y-37979350D01*
X254975360Y-38138100D01*
X255304869Y-38138100D01*
X255538258Y-38041427D01*
X255716887Y-37862799D01*
X255813560Y-37629410D01*
X255813560Y-36607750D01*
X255654810Y-36449000D01*
X254816610Y-36449000D01*
X254562610Y-36449000D01*
X253724410Y-36449000D01*
X253565660Y-36607750D01*
X184617004Y-36607750D01*
X184617004Y-34245550D01*
X253565660Y-34245550D01*
X253565660Y-36036250D01*
X253724410Y-36195000D01*
X254562610Y-36195000D01*
X254562610Y-34086800D01*
X254816610Y-34086800D01*
X254816610Y-36195000D01*
X255654810Y-36195000D01*
X255813560Y-36036250D01*
X255813560Y-34245550D01*
X255654810Y-34086800D01*
X254816610Y-34086800D01*
X254562610Y-34086800D01*
X253724410Y-34086800D01*
X253565660Y-34245550D01*
X184617004Y-34245550D01*
X184617004Y-33290910D01*
X253565660Y-33290910D01*
X253565660Y-33674050D01*
G04 #@! TD*
M02*
